<?xml version="1.0" encoding="UTF-8"?> <svg xmlns="http://www.w3.org/2000/svg" width="129" height="129" viewBox="0 0 129 129" fill="none"><path d="M76 97C84.8366 97 92 90.2843 92 82C92 73.7157 84.8366 67 76 67C67.1634 67 60 73.7157 60 82C60 90.2843 67.1634 97 76 97Z" fill="#F9C900"></path><path d="M34.5 90C38.6421 90 42 86.6421 42 82.5C42 78.3579 38.6421 75 34.5 75C30.3579 75 27 78.3579 27 82.5C27 86.6421 30.3579 90 34.5 90Z" fill="#F9C900"></path><path d="M58.5714 92.9166C55.0321 91.8885 39.9929 90.5712 32.8008 90.9169C25.5904 91.2623 12.172 91.4786 14.2486 93.1259C16.4661 94.8834 26.6402 94.9764 35.5256 94.9592C44.4109 94.9464 65.5442 94.9507 58.5714 92.9166Z" fill="#F9C900"></path><path d="M57.2305 31.1446C58.9825 31.0103 60.1318 30.7982 60.859 30.0728C61.2759 29.6568 61.8631 28.23 61.1242 27.3157C60.3854 26.4014 58.3295 26.3658 57.0116 26.8031C56.5165 26.9655 56.0595 27.2414 55.6792 27.6061C55.3021 27.9669 55.0144 28.4084 54.8371 28.8908C54.5593 29.5669 54.4113 30.275 54.4045 30.9868L57.2305 31.1446Z" fill="#F0F9FF"></path><path d="M59.7058 31.1744C58.8922 31.3876 58.0657 31.5146 57.2367 31.5578L57.1763 31.5581L54.0168 31.3821L53.987 31.0553C53.9865 30.2871 54.1436 29.5173 54.4412 28.7883C54.6409 28.2426 54.9647 27.7431 55.3918 27.3292C55.8189 26.9152 56.3339 26.6056 56.8977 26.4183C58.1895 25.9908 60.528 25.8956 61.4619 27.0533C62.3404 28.1399 61.7212 29.7793 61.1478 30.3552C60.749 30.7423 60.249 31.0265 59.7058 31.1744ZM57.2559 30.7367C58.8907 30.606 59.9575 30.4137 60.5685 29.7997C60.8536 29.5136 61.376 28.3101 60.7915 27.5866C60.2035 26.8602 58.3663 26.7855 57.1269 27.1934C56.6973 27.3347 56.3014 27.5731 55.9747 27.8877C55.6479 28.2022 55.3965 28.5855 55.2446 29.0009C55.0532 29.522 54.9231 30.0561 54.8539 30.5967L57.2559 30.7367Z" fill="#0D2640"></path><path d="M51.6563 30.7487C50.137 30.4716 49.2632 29.8797 48.8301 29.1622C48.5829 28.7497 48.5498 27.3753 49.5103 26.8181C51.9756 25.3805 54.6019 27.3678 54.5583 29.0813C54.5639 29.6838 54.4963 30.2949 54.354 30.8945C54.3474 30.8953 52.2751 30.8649 51.6563 30.7487Z" fill="#F0F9FF"></path><path d="M54.6515 31.3109L54.3123 31.3068C54.2248 31.3036 52.1961 31.2715 51.5537 31.1546C50.0411 30.8768 49.0026 30.2806 48.4632 29.3868C48.2253 28.8687 48.19 28.273 48.3715 27.7059C48.4375 27.4522 48.5581 27.2123 48.7175 26.9982C48.8768 26.7841 49.0821 26.6017 49.3106 26.4638C49.9066 26.1143 50.5774 25.9212 51.2543 25.9094C51.9277 25.8946 52.5831 26.0537 53.1495 26.3783C54.2688 26.9785 55.0057 28.0548 54.9761 29.0624C54.9809 29.7021 54.9059 30.3511 54.7527 30.9857L54.6515 31.3109ZM51.7617 30.3451C52.1593 30.4165 53.3065 30.4608 54.0124 30.4793C54.0842 30.0227 54.1254 29.5596 54.1332 29.1004C54.1534 28.3871 53.5654 27.5663 52.7041 27.1044C52.2636 26.8527 51.7513 26.724 51.2253 26.735C50.6993 26.746 50.173 26.8952 49.7054 27.1623C49.5734 27.2417 49.4602 27.3493 49.3684 27.4747C49.2766 27.6 49.2123 27.7355 49.1792 27.8843C49.0697 28.2341 49.0756 28.6041 49.1964 28.937C49.6179 29.6324 50.4801 30.1076 51.7617 30.3451Z" fill="#0D2640"></path><path d="M56.2458 31.065C53.4523 30.8461 50.9138 31.1028 49.744 31.9272C49.2653 32.2292 48.8613 32.637 48.5694 33.1126C48.2775 33.5882 48.107 34.1204 48.0679 34.6607C48.0453 35.5294 48.8391 38.0311 51.1026 39.3465C53.3661 40.6619 56.2976 40.649 57.8308 40.6481C59.364 40.6472 61.5648 39.9785 62.6446 38.211C63.6883 36.5018 62.8485 34.2514 62.1375 33.3035C61.4707 32.4111 60.4731 31.3957 56.2458 31.065Z" fill="#F9C900"></path><path opacity="0.52" d="M62.9323 36.4409C62.4193 37.0165 61.7847 37.485 61.0794 37.8068C60.3776 38.1316 59.6214 38.3044 58.8606 38.3159C56.8492 38.3863 53.2013 37.7552 51.8996 37.1865C50.598 36.6177 48.8093 34.5189 48.6345 33.6565C48.4627 32.7904 48.5439 34.9409 48.5439 34.9409C48.5575 35.8962 48.8268 36.8116 49.3254 37.6024C49.824 38.3932 50.5329 39.0245 51.3847 39.4471C52.7822 40.1394 56.4383 41.029 58.3576 40.555C60.2768 40.0809 61.4191 39.5799 62.2723 38.1659C63.1285 36.7481 62.9323 36.4409 62.9323 36.4409Z" fill="url(#paint0_linear_2608_21350)"></path><path d="M59.7522 40.7489C59.1151 40.9448 58.4546 41.0457 57.7941 41.0523C56.1637 41.0544 53.198 41.0579 50.8611 39.7005C48.5277 38.3461 47.6106 35.7611 47.6381 34.6762C47.6761 34.072 47.872 33.4728 48.1965 32.9362C48.521 32.3995 48.9719 31.9423 49.5081 31.5999C50.7103 30.7583 53.1853 30.4112 56.3061 30.6558C60.54 30.9858 61.5953 32.1057 62.3675 32.9217L62.4473 33.0067C63.5708 34.1894 64.0986 36.584 62.9919 38.3984C62.2473 39.5437 61.0789 40.3881 59.7522 40.7489ZM50.9715 31.7992C50.6195 31.8977 50.2779 32.0489 49.9671 32.2571C49.546 32.5187 49.1919 32.8735 48.9326 33.288C48.6733 33.7025 48.5181 34.1655 48.4809 34.6382C48.4651 35.3174 49.1301 37.7061 51.3273 38.9855C53.4756 40.2369 56.297 40.2335 57.8067 40.232C59.3768 40.2301 61.3413 39.5419 62.2734 38.0108C63.2298 36.4431 62.6183 34.4323 61.8069 33.5837L61.7235 33.4958C60.9986 32.7315 60.0994 31.7787 56.1758 31.4731C54.0302 31.3064 52.1867 31.4278 50.9715 31.7992Z" fill="#0D2640"></path><path d="M52.0839 31.0456C52.7868 30.9734 53.4894 30.9451 54.1886 30.9643C53.0592 31.7907 49.6883 36.1345 52.6233 40.1209C51.7916 39.8409 50.988 39.4834 50.2365 39.0558C48.9041 35.0065 51.1343 31.6622 52.0839 31.0456Z" fill="#0D2640"></path><path d="M55.6562 31.0488C53.6512 33.0188 51.5712 35.9715 54.0788 40.4157C54.4888 40.4722 55.3165 40.5539 55.7957 40.5921C54.6526 38.4177 53.1961 34.8446 57.4274 31.1885C56.9398 31.1243 55.6562 31.0488 55.6562 31.0488Z" fill="#0D2640"></path><path d="M48.0641 34.6563C48.1031 34.116 48.2736 33.5838 48.5655 33.1083C48.8574 32.6327 49.2615 32.2248 49.7401 31.9228C50.1172 31.6563 50.6183 31.8638 51.437 31.6736C49.147 32.0293 47.5856 35.4368 49.9384 37.8268C49.9419 37.8298 49.5945 38.0895 49.5941 38.0828C48.7259 37.1432 48.1954 35.9484 48.0641 34.6563Z" fill="#0D2640"></path><path d="M57.2305 31.1446C58.9825 31.0103 60.1318 30.7982 60.859 30.0728C61.2759 29.6568 61.8631 28.23 61.1242 27.3157C60.3854 26.4014 58.3295 26.3658 57.0116 26.8031C56.5165 26.9655 56.0595 27.2414 55.6792 27.6061C55.3021 27.9669 55.0144 28.4084 54.8371 28.8908C54.5593 29.5669 54.4113 30.275 54.4045 30.9868L57.2305 31.1446Z" fill="#F0F9FF"></path><path d="M59.7058 31.1744C58.8922 31.3876 58.0657 31.5146 57.2367 31.5578L57.1763 31.5581L54.0168 31.3821L53.987 31.0553C53.9865 30.2871 54.1436 29.5173 54.4412 28.7883C54.6409 28.2426 54.9647 27.7431 55.3918 27.3292C55.8189 26.9152 56.3339 26.6056 56.8977 26.4183C58.1895 25.9908 60.528 25.8956 61.4619 27.0533C62.3404 28.1399 61.7212 29.7793 61.1478 30.3552C60.749 30.7423 60.249 31.0265 59.7058 31.1744ZM57.2559 30.7367C58.8907 30.606 59.9575 30.4137 60.5685 29.7997C60.8536 29.5136 61.376 28.3101 60.7915 27.5866C60.2035 26.8602 58.3663 26.7855 57.1269 27.1934C56.6973 27.3347 56.3014 27.5731 55.9747 27.8877C55.6479 28.2022 55.3965 28.5855 55.2446 29.0009C55.0532 29.522 54.9231 30.0561 54.8539 30.5967L57.2559 30.7367Z" fill="#0D2640"></path><path d="M51.6563 30.7487C50.137 30.4716 49.2632 29.8797 48.8301 29.1622C48.5829 28.7497 48.5498 27.3753 49.5103 26.8181C51.9756 25.3805 54.6019 27.3678 54.5583 29.0813C54.5639 29.6838 54.4963 30.2949 54.354 30.8945C54.3474 30.8953 52.2751 30.8649 51.6563 30.7487Z" fill="#F0F9FF"></path><path d="M54.6515 31.3109L54.3123 31.3068C54.2248 31.3036 52.1961 31.2715 51.5537 31.1546C50.0411 30.8768 49.0026 30.2806 48.4632 29.3868C48.2253 28.8687 48.19 28.273 48.3715 27.7059C48.4375 27.4522 48.5581 27.2123 48.7175 26.9982C48.8768 26.7841 49.0821 26.6017 49.3106 26.4638C49.9066 26.1143 50.5774 25.9212 51.2543 25.9094C51.9277 25.8946 52.5831 26.0537 53.1495 26.3783C54.2688 26.9785 55.0057 28.0548 54.9761 29.0624C54.9809 29.7021 54.9059 30.3511 54.7527 30.9857L54.6515 31.3109ZM51.7617 30.3451C52.1593 30.4165 53.3065 30.4608 54.0124 30.4793C54.0842 30.0227 54.1254 29.5596 54.1332 29.1004C54.1534 28.3871 53.5654 27.5663 52.7041 27.1044C52.2636 26.8527 51.7513 26.724 51.2253 26.735C50.6993 26.746 50.173 26.8952 49.7054 27.1623C49.5734 27.2417 49.4602 27.3493 49.3684 27.4747C49.2766 27.6 49.2123 27.7355 49.1792 27.8843C49.0697 28.2341 49.0756 28.6041 49.1964 28.937C49.6179 29.6324 50.4801 30.1076 51.7617 30.3451Z" fill="#0D2640"></path><path d="M56.2458 31.065C53.4523 30.8461 50.9138 31.1028 49.744 31.9272C49.2654 32.2292 48.8613 32.637 48.5694 33.1126C48.2775 33.5882 48.107 34.1204 48.0679 34.6607C48.0453 35.5294 48.8391 38.0311 51.1026 39.3465C53.3661 40.6619 56.2976 40.649 57.8308 40.6481C59.364 40.6472 61.5648 39.9785 62.6446 38.211C63.6883 36.5018 62.8485 34.2514 62.1375 33.3035C61.4707 32.4111 60.4731 31.3957 56.2458 31.065Z" fill="#F9C900"></path><path opacity="0.52" d="M62.9323 36.4409C62.4193 37.0165 61.7847 37.485 61.0794 37.8068C60.3776 38.1316 59.6214 38.3044 58.8606 38.3159C56.8492 38.3863 53.2013 37.7552 51.8996 37.1865C50.598 36.6177 48.8093 34.5189 48.6345 33.6565C48.4627 32.7904 48.5439 34.9409 48.5439 34.9409C48.5575 35.8962 48.8268 36.8116 49.3254 37.6024C49.824 38.3932 50.5329 39.0245 51.3847 39.4471C52.7822 40.1394 56.4383 41.029 58.3576 40.555C60.2768 40.0809 61.4191 39.5799 62.2723 38.1659C63.1285 36.7481 62.9323 36.4409 62.9323 36.4409Z" fill="url(#paint1_linear_2608_21350)"></path><path d="M59.7522 40.7489C59.1151 40.9448 58.4546 41.0457 57.7941 41.0523C56.1637 41.0544 53.198 41.0579 50.8611 39.7005C48.5277 38.3461 47.6106 35.7611 47.6381 34.6762C47.6761 34.072 47.872 33.4728 48.1965 32.9362C48.521 32.3995 48.9719 31.9423 49.5081 31.5999C50.7103 30.7583 53.1853 30.4112 56.3061 30.6558C60.54 30.9858 61.5953 32.1057 62.3675 32.9217L62.4473 33.0067C63.5708 34.1894 64.0986 36.584 62.9919 38.3984C62.2473 39.5437 61.0789 40.3881 59.7522 40.7489ZM50.9715 31.7992C50.6195 31.8977 50.2779 32.0489 49.9671 32.2571C49.546 32.5187 49.1919 32.8735 48.9326 33.288C48.6733 33.7025 48.5181 34.1655 48.4809 34.6382C48.4651 35.3174 49.1301 37.7061 51.3273 38.9855C53.4756 40.2369 56.297 40.2335 57.8067 40.232C59.3768 40.2301 61.3413 39.5419 62.2734 38.0108C63.2298 36.4431 62.6183 34.4323 61.8069 33.5837L61.7235 33.4958C60.9986 32.7315 60.0994 31.7787 56.1758 31.4731C54.0302 31.3064 52.1867 31.4278 50.9715 31.7992Z" fill="#0D2640"></path><path d="M59.5888 34.3014C59.2202 34.2603 58.8727 34.7087 58.7892 35.2374C58.7057 35.7661 58.6944 36.3673 59.1706 36.4598C59.65 36.5486 59.853 36.0497 59.9542 35.7245C60.0554 35.3992 60.1404 34.3683 59.5888 34.3014Z" fill="#0D2640"></path><path d="M52.0839 31.0456C52.7868 30.9734 53.4894 30.9451 54.1886 30.9643C53.0592 31.7907 49.6883 36.1345 52.6233 40.1209C51.7916 39.8409 50.988 39.4834 50.2365 39.0558C48.9041 35.0065 51.1343 31.6622 52.0839 31.0456Z" fill="#0D2640"></path><path d="M55.6562 31.0488C53.6512 33.0188 51.5712 35.9715 54.0788 40.4157C54.4888 40.4722 55.3165 40.5539 55.7957 40.5921C54.6526 38.4177 53.1961 34.8446 57.4274 31.1885C56.9398 31.1243 55.6562 31.0488 55.6562 31.0488Z" fill="#0D2640"></path><path d="M48.0641 34.6563C48.1031 34.116 48.2736 33.5838 48.5655 33.1083C48.8574 32.6327 49.2615 32.2248 49.7401 31.9228C50.1172 31.6563 50.6183 31.8638 51.437 31.6736C49.147 32.0293 47.5856 35.4368 49.9384 37.8268C49.9419 37.8298 49.5945 38.0895 49.5941 38.0828C48.7259 37.1432 48.1954 35.9484 48.0641 34.6563Z" fill="#0D2640"></path><path opacity="0.48" d="M53.7811 52.3101C53.6378 53.9896 52.4904 54.9587 50.6915 55.0632C50.6721 55.0663 50.6528 55.0693 50.6446 55.0805C50.6267 55.0931 50.6201 55.1139 50.6231 55.1331L50.5621 55.8825C50.5599 55.9321 50.5481 55.9833 50.5154 56.0279C50.4924 56.071 50.4598 56.1155 50.4241 56.1409C50.3899 56.1758 50.3429 56.193 50.2961 56.2103C50.2492 56.2275 50.2008 56.2351 50.1493 56.2234L49.2753 56.1533C49.2254 56.1513 49.174 56.1397 49.1308 56.1168C49.0875 56.094 49.0427 56.0616 49.0173 56.0261C48.9919 55.9907 48.965 55.9456 48.9478 55.899C48.9305 55.8523 48.923 55.8042 48.9348 55.753L48.9989 55.0229C48.9958 55.0037 48.9928 54.9844 48.9816 54.9763C48.9689 54.9586 48.9577 54.9505 48.9369 54.9439C47.9271 54.7669 46.98 54.294 46.2351 53.5922C46.1649 53.5243 46.1208 53.4326 46.1154 53.3348C46.1099 53.237 46.1448 53.1428 46.2035 53.0744L47.2364 51.8175C47.269 51.773 47.3144 51.7461 47.3598 51.7193C47.4052 51.6924 47.4633 51.6833 47.5117 51.6757C47.5601 51.6681 47.6212 51.6783 47.6645 51.7011C47.7174 51.7224 47.7607 51.7452 47.7957 51.7791C48.4466 52.3872 49.2884 52.7582 50.1833 52.8349C50.6773 52.8856 51.1508 52.7423 51.1769 52.4029C51.2015 52.0538 50.8637 51.8602 50.0236 51.627C48.626 51.2544 46.5003 50.7296 46.6828 48.5409C46.7933 47.2216 47.8376 46.101 49.7124 45.9746C49.7318 45.9716 49.7511 45.9685 49.7593 45.9574C49.7772 45.9447 49.7838 45.924 49.7808 45.9047L49.8455 45.1154C49.8497 45.016 49.9039 44.9188 49.982 44.8474C50.0616 44.7856 50.165 44.7496 50.2649 44.7537L51.1389 44.8237C51.2402 44.8374 51.3364 44.8815 51.3984 44.9606C51.4604 45.0396 51.4964 45.1425 51.4921 45.2418L51.4223 46.0615C51.4253 46.0808 51.4283 46.1001 51.4395 46.1082C51.4522 46.1259 51.4634 46.134 51.4843 46.1406C52.3071 46.3272 53.0796 46.6992 53.7296 47.2384C53.7647 47.2723 53.8013 47.3159 53.8282 47.361C53.8551 47.4061 53.8627 47.4542 53.8717 47.512C53.8793 47.5601 53.8675 47.6113 53.8556 47.6625C53.8438 47.7136 53.8112 47.7582 53.777 47.7932L52.7238 48.9842C52.6554 49.0541 52.5743 49.1062 52.476 49.1118C52.3792 49.127 52.2845 49.0925 52.2062 49.0358C51.6085 48.5771 50.9091 48.2923 50.161 48.2025C49.5188 48.1553 49.3538 48.3685 49.332 48.6087C49.2962 48.9497 49.6377 49.1032 50.5358 49.3273C51.8917 49.6868 53.949 50.2814 53.7811 52.3101Z" fill="#A6501E"></path><path d="M60.9975 51.1369C60.6711 54.305 59.094 57.2155 56.6257 59.2498C54.1559 61.2746 50.9881 62.2646 47.7999 61.9854L47.6181 61.9646C47.3766 61.9433 47.1449 61.9204 46.9198 61.8768C45.2618 61.6141 43.6879 61.0028 42.2862 60.0982C42.2206 60.0592 42.1534 60.0106 42.0878 59.9715C41.5343 59.6046 41.0119 59.1835 40.5238 58.7274C40.4297 58.6337 40.326 58.5415 40.2304 58.4381C39.7123 57.9177 39.2448 57.34 38.8323 56.7339C38.7053 56.5566 38.5865 56.3681 38.4773 56.1781C37.3119 54.2501 36.7054 52.0273 36.7387 49.7731C36.772 47.519 37.4283 45.3151 38.6371 43.4093C39.8556 41.5019 41.5793 39.969 43.6177 38.9885C45.6546 37.9983 47.9334 37.6014 50.1814 37.8308C50.4034 37.8551 50.6352 37.878 50.8506 37.9231C51.2366 37.9809 51.6271 38.0676 52.0095 38.1655C52.4738 38.2801 52.9345 38.4347 53.3789 38.6116C53.8233 38.7884 54.261 38.9861 54.6838 39.2157C54.9225 39.346 55.1514 39.4777 55.3819 39.6191C55.8429 39.9019 56.2794 40.2181 56.6898 40.5582C57.557 41.2803 58.323 42.1169 58.9656 43.0518C60.5841 45.402 61.3111 48.2667 60.9975 51.1369Z" fill="#043A9B"></path><path opacity="0.15" d="M54.6717 39.1988L40.2183 58.4211C39.7003 57.9007 39.2342 57.3327 38.8121 56.7282C38.6851 56.5508 38.5662 56.3623 38.457 56.1723L51.9892 38.1597C52.4535 38.2743 52.9143 38.4289 53.3586 38.6058C53.8112 38.7715 54.2489 38.9692 54.6717 39.1988Z" fill="white"></path><path opacity="0.15" d="M60.2258 45.4463L47.8013 61.9833L47.6195 61.9625C47.378 61.9411 47.1463 61.9183 46.9212 61.8747C45.2632 61.612 43.6893 61.0007 42.2876 60.0961C42.222 60.057 42.1548 60.0084 42.0892 59.9694L56.68 40.5479C57.5472 41.27 58.3132 42.1067 58.9543 43.0319C59.4684 43.7798 59.8932 44.591 60.2258 45.4463Z" fill="white"></path><path d="M47.7961 60.2608C53.5425 60.849 58.6927 56.6876 59.294 50.971C59.8938 45.2449 55.7285 40.128 49.9821 39.5398C44.2358 38.9517 39.0855 43.1131 38.4858 48.8392C37.883 54.5461 42.0483 59.6631 47.7961 60.2608Z" fill="url(#paint2_linear_2608_21350)"></path><path d="M58.4863 50.8782C58.3474 52.1428 57.9656 53.3764 57.3578 54.4975C56.75 55.6187 55.9229 56.6065 54.9285 57.4135C53.9342 58.2204 52.7874 58.8146 51.5657 59.1837C50.3425 59.5433 49.0525 59.6667 47.7813 59.5307C47.4289 59.4972 47.0831 59.4429 46.7328 59.3598C46.5383 59.3213 46.3422 59.2731 46.1559 59.2234C44.601 58.7965 43.1839 57.9831 42.0262 56.8627C41.9336 56.7786 41.8396 56.6848 41.7552 56.5896C41.3281 56.1436 40.9338 55.6531 40.593 55.1246L40.5788 55.0973C40.0526 54.2723 39.6514 53.3588 39.3939 52.4128C39.3864 52.3647 39.3707 52.3277 39.3631 52.2795C38.9763 50.762 38.9656 49.1757 39.323 47.6598C39.6886 46.1328 40.4105 44.7274 41.4346 43.541C42.4587 42.3546 43.7635 41.4398 45.2194 40.8563C46.6769 40.2825 48.2595 40.0639 49.822 40.2232L50.0634 40.2446C50.5686 40.3034 51.062 40.4134 51.5502 40.5538C51.7992 40.6233 52.0512 40.712 52.2935 40.8022C52.6304 40.9269 52.972 41.0805 53.2956 41.2467C55.0325 42.1382 56.4627 43.5414 57.3952 45.2495C58.3099 46.9703 58.6969 48.9316 58.4863 50.8782Z" fill="#0348AA"></path><path d="M41.7069 49.9909L42.4339 50.0985L42.6113 48.9006L43.8023 49.077L43.91 48.3499L42.719 48.1735L42.8954 46.9825L42.1683 46.8749L41.9919 48.0659L40.794 47.8885L40.6863 48.6156L41.8843 48.7929L41.7069 49.9909ZM45.4052 51.6C45.7192 51.6465 46.0209 51.6157 46.3105 51.5076C46.6005 51.3972 46.8461 51.2284 47.0472 51.001C47.2487 50.7714 47.3726 50.4996 47.4191 50.1857C47.4656 49.8718 47.4387 49.5836 47.3384 49.3211C47.2408 49.0566 47.0822 48.8373 46.8626 48.6633C46.6457 48.4873 46.3803 48.376 46.0664 48.3296C45.958 48.3135 45.8405 48.3103 45.7141 48.3198C45.5876 48.3294 45.4646 48.356 45.3449 48.3996L45.5751 47.3227L47.462 47.6021L47.5923 46.7227L44.8709 46.3198L44.3259 48.9493L45.0863 49.3096C45.1496 49.2647 45.2409 49.2216 45.3602 49.1803C45.4799 49.1367 45.6274 49.1279 45.8028 49.1538C45.946 49.175 46.0712 49.229 46.1787 49.3156C46.2885 49.4027 46.3693 49.5102 46.4211 49.6381C46.4752 49.7664 46.4917 49.9021 46.4705 50.0453C46.4493 50.1884 46.3942 50.3135 46.3052 50.4206C46.2185 50.5281 46.1101 50.6075 45.9798 50.659C45.8518 50.7108 45.7163 50.7261 45.5732 50.7049C45.4116 50.681 45.2658 50.6063 45.1358 50.4809C45.0057 50.3555 44.9306 50.2017 44.9104 50.0195L43.9674 50.1275C44.0004 50.3824 44.0829 50.614 44.2148 50.8222C44.3468 51.0305 44.5147 51.2027 44.7186 51.3391C44.9248 51.4758 45.1537 51.5627 45.4052 51.6ZM49.3998 52.1915C49.7691 52.2462 50.1037 52.2167 50.4035 52.1031C50.7034 51.9894 50.9512 51.8056 51.1468 51.5515C51.3425 51.2974 51.4677 50.9857 51.5224 50.6164L51.7439 49.1207C51.7985 48.7514 51.7691 48.4168 51.6554 48.117C51.5418 47.8171 51.3579 47.5693 51.1039 47.3736C50.8498 47.178 50.5381 47.0528 50.1688 46.9981C49.7995 46.9434 49.4649 46.9729 49.165 47.0865C48.8651 47.2002 48.6174 47.384 48.4217 47.6381C48.226 47.8922 48.1009 48.2039 48.0462 48.5732L47.8247 50.0689C47.77 50.4382 47.7995 50.7728 47.9131 51.0727C48.0267 51.3725 48.2106 51.6203 48.4647 51.816C48.7188 52.0116 49.0304 52.1368 49.3998 52.1915ZM49.532 51.2982C49.3658 51.2736 49.2216 51.2122 49.0994 51.1139C48.9771 51.0156 48.8867 50.8937 48.828 50.7482C48.7694 50.6027 48.7523 50.4468 48.7769 50.2807L49.02 48.6395C49.0446 48.4734 49.106 48.3291 49.2043 48.2069C49.3026 48.0846 49.4245 47.9942 49.57 47.9355C49.7155 47.8769 49.8714 47.8599 50.0375 47.8845C50.2037 47.9091 50.348 47.9705 50.4702 48.0688C50.5925 48.1671 50.6829 48.289 50.7416 48.4345C50.8002 48.58 50.8172 48.7359 50.7926 48.902L50.5496 50.5431C50.525 50.7093 50.4635 50.8536 50.3652 50.9758C50.2669 51.0981 50.145 51.1885 49.9996 51.2472C49.8541 51.3058 49.6982 51.3228 49.532 51.2982ZM53.3438 50.0158C53.5723 50.0496 53.7882 50.025 53.9916 49.9419C54.1976 49.8568 54.371 49.7291 54.5118 49.5589C54.6529 49.3864 54.7406 49.1847 54.7748 48.9539C54.809 48.7231 54.7833 48.5058 54.6979 48.3021C54.6129 48.0961 54.4839 47.9237 54.311 47.7849C54.1408 47.6441 53.9414 47.5568 53.7129 47.5229C53.4914 47.4901 53.2776 47.5163 53.0715 47.6013C52.8655 47.6864 52.6908 47.815 52.5474 47.9872C52.4039 48.1594 52.3155 48.3586 52.282 48.5848C52.2478 48.8156 52.2732 49.034 52.3583 49.24C52.4437 49.4437 52.5715 49.616 52.7417 49.7568C52.9146 49.8956 53.1153 49.9819 53.3438 50.0158ZM52.5438 52.5509L57.5512 48.8414L57.0213 48.119L52.0129 51.8354L52.5438 52.5509ZM53.4617 49.2194C53.3417 49.2017 53.2433 49.1411 53.1667 49.0378C53.09 48.9344 53.0605 48.8227 53.0783 48.7027C53.0964 48.5804 53.157 48.482 53.26 48.4076C53.3633 48.3309 53.475 48.3015 53.595 48.3193C53.7174 48.3374 53.8157 48.3979 53.8901 48.5009C53.9671 48.602 53.9966 48.7137 53.9785 48.836C53.9607 48.956 53.9001 49.0544 53.7968 49.1311C53.6957 49.2081 53.5841 49.2376 53.4617 49.2194ZM55.8522 53.147C56.0807 53.1808 56.2966 53.1562 56.5 53.0731C56.706 52.988 56.8794 52.8604 57.0202 52.6901C57.1613 52.5176 57.249 52.3159 57.2832 52.0851C57.3173 51.8543 57.2917 51.6371 57.2063 51.4333C57.1212 51.2273 56.9923 51.0549 56.8194 50.9161C56.6492 50.7753 56.4498 50.688 56.2213 50.6542C55.9997 50.6213 55.7859 50.6475 55.5799 50.7325C55.3739 50.8176 55.1992 50.9462 55.0557 51.1184C54.9123 51.2906 54.8238 51.4898 54.7904 51.716C54.7562 51.9468 54.7805 52.1651 54.8632 52.3707C54.9486 52.5744 55.0776 52.7469 55.2501 52.888C55.423 53.0268 55.6237 53.1131 55.8522 53.147ZM55.9701 52.3507C55.8501 52.3329 55.7517 52.2723 55.675 52.169C55.5984 52.0656 55.5689 51.9539 55.5867 51.8339C55.6048 51.7116 55.6653 51.6132 55.7684 51.5388C55.8717 51.4622 55.9834 51.4327 56.1034 51.4505C56.2257 51.4686 56.3241 51.5291 56.3985 51.6322C56.4755 51.7332 56.505 51.8449 56.4869 51.9672C56.4691 52.0872 56.4085 52.1856 56.3052 52.2623C56.2041 52.3393 56.0924 52.3688 55.9701 52.3507Z" fill="#F9C900"></path><path opacity="0.1" d="M51.5448 40.5658L40.6069 55.1335L40.583 55.1077C40.0568 54.2828 39.6557 53.3692 39.3982 52.4232C39.381 52.3766 39.3749 52.3381 39.3674 52.29L48.4591 40.1817C48.912 40.16 49.371 40.1768 49.8247 40.224L50.0662 40.2453C50.5744 40.3234 51.0566 40.4254 51.5448 40.5658Z" fill="white"></path><path opacity="0.1" d="M57.3547 45.2291L46.7273 59.3733C46.5328 59.3348 46.3368 59.2866 46.1505 59.2369C44.5956 58.8101 43.1785 57.9966 42.0207 56.8762C41.9282 56.7921 41.8341 56.6984 41.7497 56.6031L53.2626 41.2744C54.9883 42.1578 56.4156 43.5418 57.3465 45.2402L57.3547 45.2291Z" fill="white"></path><path d="M33.5985 101.163C40.0361 99.2925 67.3912 96.8965 80.473 97.5253C93.5881 98.1535 117.995 98.547 114.218 101.543C110.184 104.74 91.6785 104.909 75.5168 104.878C59.3552 104.855 20.9156 104.862 33.5985 101.163Z" fill="#F9C900"></path><path fill-rule="evenodd" clip-rule="evenodd" d="M34.8291 64C31.1901 64 27.8742 65.202 25.9125 66.184C25.7352 66.2727 25.5701 66.3597 25.4162 66.4435C25.1117 66.6094 24.8523 66.7641 24.646 66.9002L26.8776 70.1856L27.9282 70.6037C32.0336 72.6749 37.5392 72.6749 41.6455 70.6037L42.8378 69.985L44.9485 66.9002C44.5113 66.615 44.0565 66.3575 43.587 66.1293C41.6358 65.1577 38.3996 64 34.8291 64ZM29.6385 67.7188C28.8483 67.5709 28.0678 67.375 27.3014 67.1323C29.139 66.3162 31.8781 65.4501 34.8283 65.4501C36.8722 65.4501 38.8049 65.8658 40.4032 66.3927C38.5301 66.6561 36.5314 67.1033 34.6269 67.6535C33.1284 68.0869 31.377 68.0402 29.6385 67.7188ZM42.4962 71.7984L42.2989 71.8983C37.7817 74.1766 31.7911 74.1766 27.274 71.8983L27.0871 71.8033C20.3021 79.248 15.122 93 34.8291 93C54.5347 93 49.228 78.991 42.4962 71.7984ZM33.9913 78.5012C33.5639 78.5012 33.1541 78.671 32.8519 78.9731C32.5498 79.2753 32.38 79.6851 32.38 80.1125C32.38 80.5398 32.5498 80.9496 32.8519 81.2518C33.1541 81.5539 33.5639 81.7237 33.9913 81.7237V78.5012ZM35.6025 76.89V76.0843H33.9913V76.89C33.1366 76.89 32.317 77.2295 31.7126 77.8338C31.1083 78.4381 30.7688 79.2578 30.7688 80.1125C30.7688 80.9671 31.1083 81.7868 31.7126 82.3911C32.317 82.9954 33.1366 83.3349 33.9913 83.3349V86.5574C33.2904 86.5574 32.6934 86.1103 32.4719 85.4835C32.4007 85.2821 32.2524 85.1171 32.0597 85.0249C31.8669 84.9328 31.6454 84.921 31.4439 84.9921C31.2424 85.0633 31.0774 85.2115 30.9853 85.4043C30.8931 85.5971 30.8813 85.8186 30.9525 86.0201C31.1747 86.6484 31.5862 87.1925 32.1304 87.5773C32.6747 87.962 33.3248 88.1687 33.9913 88.1687V88.9743H35.6025V88.1687C36.4572 88.1687 37.2768 87.8292 37.8812 87.2248C38.4855 86.6205 38.825 85.8008 38.825 84.9462C38.825 84.0915 38.4855 83.2719 37.8812 82.6675C37.2768 82.0632 36.4572 81.7237 35.6025 81.7237V78.5012C36.3034 78.5012 36.9004 78.9483 37.1227 79.5751C37.1557 79.6776 37.2089 79.7725 37.2792 79.8541C37.3495 79.9358 37.4355 80.0025 37.532 80.0503C37.6285 80.0981 37.7337 80.1261 37.8412 80.1325C37.9487 80.139 38.0565 80.1239 38.158 80.088C38.2596 80.0521 38.3529 79.9962 38.4325 79.9236C38.5121 79.851 38.5763 79.7632 38.6214 79.6654C38.6665 79.5675 38.6914 79.4617 38.6949 79.354C38.6983 79.2463 38.6801 79.1391 38.6413 79.0386C38.4191 78.4102 38.0076 77.8662 37.4633 77.4814C36.9191 77.0966 36.269 76.89 35.6025 76.89ZM35.6025 83.3349V86.5574C36.0298 86.5574 36.4397 86.3877 36.7418 86.0855C37.044 85.7833 37.2138 85.3735 37.2138 84.9462C37.2138 84.5189 37.044 84.109 36.7418 83.8069C36.4397 83.5047 36.0298 83.3349 35.6025 83.3349Z" fill="url(#paint3_linear_2608_21350)"></path><path fill-rule="evenodd" clip-rule="evenodd" d="M74.2276 47C67.3261 47 61.0372 49.2796 57.3168 51.1422C56.9806 51.3102 56.6674 51.4752 56.3756 51.6341C55.798 51.9489 55.3061 52.2422 54.9149 52.5005L59.1472 58.7313L61.1396 59.5242C68.9258 63.4525 79.3675 63.4525 87.1552 59.5242L89.4165 58.3508L93.4197 52.5005C92.5903 51.9596 91.7279 51.4712 90.8375 51.0383C87.1369 49.1956 80.9993 47 74.2276 47ZM64.3833 54.0528C62.8847 53.7724 61.4044 53.4009 59.9509 52.9405C63.436 51.3927 68.6309 49.7502 74.2261 49.7502C78.1024 49.7502 81.7678 50.5386 84.7992 51.5379C81.2468 52.0375 77.4561 52.8855 73.8441 53.929C71.0022 54.7511 67.6806 54.6624 64.3833 54.0528ZM88.7687 61.7901L88.3944 61.9796C79.8274 66.3005 68.4659 66.3005 59.8989 61.9796L59.5445 61.7993C46.6765 75.9187 36.852 102 74.2276 102C111.6 102 101.536 75.4313 88.7687 61.7901ZM72.6386 74.5023C71.8282 74.5023 71.0509 74.8242 70.4778 75.3973C69.9048 75.9704 69.5828 76.7476 69.5828 77.5581C69.5828 78.3686 69.9048 79.1458 70.4778 79.7189C71.0509 80.292 71.8282 80.6139 72.6386 80.6139V74.5023ZM75.6944 71.4465V69.9186H72.6386V71.4465C71.0177 71.4465 69.4632 72.0904 68.3171 73.2365C67.1709 74.3827 66.527 75.9372 66.527 77.5581C66.527 79.179 67.1709 80.7335 68.3171 81.8797C69.4632 83.0258 71.0177 83.6697 72.6386 83.6697V89.7813C71.3093 89.7813 70.1772 88.9333 69.757 87.7446C69.622 87.3625 69.3408 87.0496 68.9752 86.8749C68.6096 86.7001 68.1895 86.6777 67.8074 86.8126C67.4253 86.9476 67.1124 87.2288 66.9376 87.5944C66.7628 87.96 66.7404 88.3801 66.8754 88.7622C67.2968 89.954 68.0773 90.9857 69.1095 91.7155C70.1416 92.4453 71.3746 92.8371 72.6386 92.8372V94.3651H75.6944V92.8372C77.3153 92.8372 78.8698 92.1932 80.016 91.0471C81.1621 89.9009 81.806 88.3464 81.806 86.7255C81.806 85.1046 81.1621 83.5501 80.016 82.404C78.8698 81.2578 77.3153 80.6139 75.6944 80.6139V74.5023C77.0237 74.5023 78.1559 75.3503 78.5776 76.539C78.6402 76.7335 78.7411 76.9134 78.8744 77.0682C79.0077 77.223 79.1708 77.3495 79.3538 77.4402C79.5369 77.5309 79.7363 77.5839 79.9402 77.5962C80.1441 77.6085 80.3484 77.5798 80.5411 77.5117C80.7337 77.4436 80.9107 77.3376 81.0617 77.2C81.2126 77.0623 81.3344 76.8958 81.4199 76.7102C81.5053 76.5246 81.5527 76.3238 81.5592 76.1196C81.5657 75.9154 81.5312 75.712 81.4577 75.5214C81.0362 74.3297 80.2557 73.2979 79.2236 72.5681C78.1915 71.8384 76.9585 71.4465 75.6944 71.4465ZM75.6944 83.6697V89.7813C76.5049 89.7813 77.2821 89.4594 77.8552 88.8863C78.4283 88.3132 78.7502 87.536 78.7502 86.7255C78.7502 85.9151 78.4283 85.1378 77.8552 84.5647C77.2821 83.9917 76.5049 83.6697 75.6944 83.6697Z" fill="url(#paint4_linear_2608_21350)"></path><defs><linearGradient id="paint0_linear_2608_21350" x1="55.8672" y1="34.2785" x2="55.1578" y2="40.5342" gradientUnits="userSpaceOnUse"><stop stop-color="#F9C900"></stop><stop offset="1" stop-color="#D07800"></stop></linearGradient><linearGradient id="paint1_linear_2608_21350" x1="55.8672" y1="34.2785" x2="55.1578" y2="40.5342" gradientUnits="userSpaceOnUse"><stop stop-color="#F9C900"></stop><stop offset="1" stop-color="#D07800"></stop></linearGradient><linearGradient id="paint2_linear_2608_21350" x1="47.8095" y1="60.2619" x2="49.9382" y2="39.53" gradientUnits="userSpaceOnUse"><stop stop-color="#0B2B86" stop-opacity="0"></stop><stop offset="1" stop-color="#0B2B86"></stop></linearGradient><linearGradient id="paint3_linear_2608_21350" x1="24.2053" y1="64" x2="47.1004" y2="94.5268" gradientUnits="userSpaceOnUse"><stop stop-color="#0C257F"></stop><stop offset="1" stop-color="#013FA1"></stop></linearGradient><linearGradient id="paint4_linear_2608_21350" x1="54.079" y1="47" x2="97.5008" y2="104.896" gradientUnits="userSpaceOnUse"><stop stop-color="#0C257F"></stop><stop offset="1" stop-color="#013FA1"></stop></linearGradient></defs></svg> 