<?xml version="1.0" encoding="UTF-8"?> <svg xmlns="http://www.w3.org/2000/svg" width="513" height="513" viewBox="0 0 513 513" fill="none"><g clip-path="url(#clip0_7106_37675)"><path d="M329.989 205.291C310.612 220.447 285.828 221.189 274.319 207.064L269.944 201.471L270.409 200.415C269.322 197.647 268.681 194.723 268.512 191.754C268.502 191.52 268.479 191.284 268.474 191.057C268.391 189.012 268.494 186.963 268.782 184.936C268.841 184.51 268.907 184.078 268.974 183.634C269.171 182.5 269.42 181.359 269.749 180.203C270.078 179.046 270.437 177.854 270.858 176.683C271.099 175.988 271.372 175.29 271.67 174.596C275.423 165.925 281.332 158.359 288.834 152.616C291.684 150.382 294.731 148.412 297.938 146.729C303.137 143.968 308.765 142.104 314.584 141.214C316.432 140.937 318.297 140.78 320.166 140.745C326.674 140.477 333.113 142.168 338.65 145.599L340.569 145.827L345.039 151.542C345.358 151.95 345.683 152.364 345.953 152.799C347.307 154.828 348.365 157.04 349.096 159.367C349.515 160.673 349.832 162.01 350.044 163.364C350.169 164.143 350.255 164.917 350.315 165.7C350.41 167.312 350.383 168.928 350.235 170.536C349.965 174.149 349.199 177.709 347.959 181.113C347.706 181.772 347.459 182.415 347.218 183.041C346.285 185.303 345.185 187.493 343.927 189.593C342.154 192.522 340.111 195.278 337.823 197.826C335.443 200.546 332.821 203.045 329.989 205.291V205.291Z" fill="#F9C900"></path><path opacity="0.5" d="M329.989 205.291C310.612 220.447 285.828 221.189 274.319 207.064L269.944 201.471L270.409 200.415C269.322 197.647 268.681 194.723 268.512 191.754C268.502 191.52 268.479 191.284 268.474 191.057C268.391 189.012 268.494 186.963 268.782 184.936C268.841 184.51 268.907 184.078 268.974 183.634C269.171 182.5 269.42 181.359 269.749 180.203C270.078 179.046 270.437 177.854 270.858 176.683C271.099 175.988 271.372 175.29 271.67 174.596C275.423 165.925 281.332 158.359 288.834 152.616C291.684 150.382 294.731 148.412 297.938 146.729C303.137 143.968 308.765 142.104 314.584 141.214C316.432 140.937 318.297 140.78 320.166 140.745C326.674 140.477 333.113 142.168 338.65 145.599L340.569 145.827L345.039 151.542C345.358 151.95 345.683 152.364 345.953 152.799C347.307 154.828 348.365 157.04 349.096 159.367C349.515 160.673 349.832 162.01 350.044 163.364C350.169 164.143 350.255 164.917 350.315 165.7C350.41 167.312 350.383 168.928 350.235 170.536C349.965 174.149 349.199 177.709 347.959 181.113C347.706 181.772 347.459 182.415 347.218 183.041C346.285 185.303 345.185 187.493 343.927 189.593C342.154 192.522 340.111 195.278 337.823 197.826C335.443 200.546 332.821 203.045 329.989 205.291V205.291Z" fill="url(#paint0_linear_7106_37675)"></path><path opacity="0.6" d="M337.895 197.873L294.009 141.766C299.208 139.006 304.833 137.139 310.65 136.244L347.262 183.053C346.329 185.315 345.229 187.505 343.971 189.605C342.209 192.545 340.175 195.313 337.895 197.873V197.873Z" fill="url(#paint1_linear_7106_37675)"></path><path d="M326.065 200.289C306.709 215.428 281.937 216.185 270.418 202.091L269.937 201.476C269.584 201.025 269.232 200.575 268.942 200.086C266.344 196.114 264.849 191.521 264.61 186.78L264.567 186.077C264.482 184.044 264.583 182.008 264.871 179.994L269.754 180.164C270.304 174.284 272.236 168.618 275.391 163.626L270.887 163.425C271.851 161.769 272.911 160.17 274.06 158.637L278.718 158.799C280.543 156.523 282.562 154.409 284.749 152.478L279.59 152.294C283.849 148.083 288.707 144.524 294.007 141.733C299.205 138.972 304.83 137.106 310.647 136.211C322.65 134.443 333.871 137.645 340.549 145.83L340.879 146.252C341.265 146.746 341.646 147.232 341.948 147.722C342.558 148.628 343.106 149.574 343.588 150.555C344.184 151.76 344.687 153.008 345.091 154.29L345.179 154.579L338.14 154.321C339.013 156.424 339.583 158.642 339.832 160.906L346.344 161.139C346.448 162.584 346.446 164.034 346.337 165.479L346.296 166.03L339.919 165.807C339.767 167.976 339.401 170.124 338.824 172.22C337.832 175.783 336.35 179.192 334.423 182.349L341.134 182.588C340.784 183.231 340.414 183.877 340.031 184.523C338.268 187.463 336.234 190.231 333.955 192.792C331.558 195.525 328.917 198.034 326.065 200.289V200.289Z" fill="#F9C900"></path><path d="M278.72 158.831L274.06 158.637C275.745 156.39 277.594 154.27 279.59 152.294L284.75 152.478C282.561 154.419 280.544 156.545 278.72 158.831V158.831Z" fill="#F9C900"></path><path d="M346.389 161.197L339.877 160.964C339.628 158.699 339.058 156.482 338.185 154.378L345.224 154.637C345.599 155.854 345.889 157.095 346.089 158.353C346.209 159.124 346.288 159.904 346.353 160.694C346.374 160.861 346.386 161.029 346.389 161.197V161.197Z" fill="#F9C900"></path><path d="M269.737 180.142L264.854 179.972C264.918 179.553 264.977 179.127 265.01 178.698C265.43 176.335 266.051 174.013 266.867 171.757C267.12 171.063 267.393 170.366 267.679 169.67C268.6 167.515 269.672 165.428 270.888 163.425L275.403 163.582C272.235 168.578 270.293 174.253 269.737 180.142V180.142Z" fill="#F9C900"></path><path d="M341.158 182.661L334.446 182.423C337.57 177.423 339.457 171.75 339.949 165.875L346.326 166.098C346.016 169.52 345.267 172.887 344.099 176.118C343.288 178.372 342.305 180.559 341.158 182.661V182.661Z" fill="#F9C900"></path><path d="M322.524 195.761C305.736 208.892 284.207 209.417 274.433 196.921C270.808 192.12 269.131 186.127 269.737 180.142C270.288 174.262 272.219 168.596 275.374 163.604C276.389 161.945 277.507 160.351 278.72 158.831C280.546 156.556 282.564 154.441 284.752 152.511C285.521 151.829 286.32 151.169 287.142 150.526C303.937 137.389 325.464 136.877 335.233 149.365C336.433 150.899 337.424 152.587 338.177 154.383C339.051 156.487 339.62 158.704 339.869 160.968C340.045 162.596 340.074 164.237 339.956 165.87C339.464 171.745 337.577 177.418 334.453 182.418C331.325 187.557 327.282 192.079 322.524 195.761V195.761Z" fill="url(#paint2_linear_7106_37675)"></path><path d="M322.535 195.775C306.891 208.011 286.837 208.49 277.734 196.852C277.132 196.084 276.589 195.272 276.11 194.422C275.832 193.949 275.579 193.463 275.35 192.964C274.421 190.963 273.8 188.832 273.509 186.645C273.178 184.158 273.206 181.637 273.59 179.158C273.645 178.757 273.721 178.352 273.796 177.947C274.184 175.945 274.751 173.981 275.49 172.08L275.529 171.968C275.785 171.307 276.071 170.656 276.371 170.007C277.13 168.348 278.007 166.745 278.995 165.211C279.461 164.466 279.966 163.725 280.494 163.001C280.623 162.9 280.683 162.726 280.789 162.597C281.759 161.29 282.799 160.037 283.907 158.844C285.649 156.954 287.543 155.211 289.57 153.63C302.517 143.504 318.461 141.409 328.765 147.611C329.844 148.261 330.861 149.009 331.804 149.846C332.752 150.673 333.619 151.589 334.393 152.582L334.802 153.104C335.628 154.231 336.332 155.442 336.902 156.718C337.203 157.38 337.467 158.058 337.696 158.749C337.92 159.417 338.109 160.097 338.262 160.785C338.332 161.11 338.402 161.436 338.464 161.78C338.796 163.612 338.919 165.476 338.832 167.337C338.756 168.975 338.542 170.605 338.192 172.207C338.145 172.486 338.079 172.756 338.014 173.026C337.465 175.26 336.698 177.435 335.726 179.52C334.201 182.807 332.253 185.881 329.931 188.664C327.732 191.297 325.252 193.681 322.535 195.775V195.775Z" fill="#F9C900"></path><path opacity="0.8" d="M307.038 184.586C302.193 188.503 297.298 188.745 293.409 185.527C293.356 185.496 293.295 185.483 293.234 185.491C293.173 185.498 293.117 185.527 293.074 185.57L290.864 187.299C290.241 187.786 289.446 187.831 289.076 187.372L287.543 185.515C287.179 185.05 287.362 184.296 287.973 183.795L290.119 182.117C290.171 182.084 290.209 182.034 290.227 181.976C290.245 181.918 290.241 181.855 290.216 181.799C288.656 179.237 288.057 176.204 288.526 173.241C288.596 172.909 288.761 172.604 289.002 172.364C289.243 172.125 289.548 171.961 289.881 171.893L295.334 170.728C295.481 170.673 295.64 170.657 295.795 170.681C295.951 170.705 296.097 170.77 296.22 170.867C296.343 170.965 296.438 171.093 296.497 171.239C296.556 171.385 296.576 171.543 296.555 171.699C296.344 172.964 296.398 174.259 296.715 175.502C297.032 176.745 297.605 177.908 298.396 178.917C299.229 179.983 300.551 180.552 301.555 179.743C302.56 178.935 302.404 177.777 301.37 175.6C299.632 171.978 296.835 166.603 303.191 161.494C306.994 158.426 312.133 157.612 316.156 160.898C316.207 160.931 316.268 160.946 316.328 160.94C316.389 160.935 316.446 160.909 316.49 160.868L318.765 159.031C318.997 158.791 319.311 158.649 319.643 158.633C319.976 158.617 320.302 158.729 320.555 158.945L322.093 160.809C322.451 161.266 322.267 162.033 321.657 162.521L319.296 164.426C319.247 164.461 319.211 164.511 319.193 164.568C319.176 164.626 319.178 164.688 319.199 164.744C320.348 166.906 320.853 169.352 320.654 171.792C320.589 172.149 320.42 172.478 320.167 172.738C319.913 172.997 319.588 173.175 319.233 173.249L313.897 174.194C313.762 174.237 313.618 174.248 313.477 174.225C313.336 174.202 313.203 174.146 313.088 174.062C312.973 173.978 312.879 173.868 312.815 173.741C312.75 173.614 312.716 173.474 312.715 173.332C312.827 171.184 312.198 169.063 310.933 167.324C309.792 165.968 308.898 166.195 308.188 166.762C307.186 167.545 307.462 168.575 308.611 170.87C310.448 174.413 312.915 179.851 307.038 184.586Z" fill="#B76800"></path><path opacity="0.1" d="M338.798 167.307L278.995 165.211C279.461 164.466 279.966 163.725 280.494 163.001C280.623 162.9 280.683 162.726 280.789 162.597C281.759 161.29 282.8 160.037 283.907 158.844L338.232 160.762C338.303 161.088 338.373 161.413 338.434 161.757C338.764 163.587 338.886 165.449 338.798 167.307V167.307Z" fill="white"></path><path opacity="0.1" d="M329.89 188.628L273.492 186.625C273.162 184.138 273.189 181.617 273.573 179.137C273.628 178.737 273.704 178.332 273.779 177.927C274.167 175.924 274.734 173.961 275.473 172.06L275.513 171.948C275.768 171.287 276.055 170.636 276.354 169.987L338.14 172.157C338.093 172.436 338.027 172.706 337.962 172.976C337.413 175.21 336.646 177.385 335.674 179.47C334.154 182.761 332.209 185.84 329.89 188.628Z" fill="white"></path><path opacity="0.2" d="M278.72 158.831L274.06 158.637C275.745 156.39 277.594 154.27 279.59 152.294L284.75 152.478C282.561 154.419 280.544 156.545 278.72 158.831V158.831Z" fill="white"></path><path opacity="0.2" d="M346.389 161.197L339.877 160.964C339.628 158.699 339.058 156.482 338.185 154.378L345.224 154.637C345.599 155.854 345.889 157.095 346.089 158.353C346.209 159.124 346.288 159.904 346.353 160.694C346.374 160.861 346.386 161.029 346.389 161.197V161.197Z" fill="white"></path><path opacity="0.2" d="M269.737 180.142L264.854 179.972C264.918 179.553 264.977 179.127 265.01 178.698C265.43 176.335 266.051 174.013 266.867 171.757C267.12 171.063 267.393 170.366 267.679 169.67C268.6 167.515 269.672 165.428 270.888 163.425L275.403 163.582C272.235 168.578 270.293 174.253 269.737 180.142V180.142Z" fill="white"></path><path opacity="0.2" d="M341.158 182.661L334.446 182.423C337.57 177.423 339.457 171.75 339.949 165.875L346.326 166.098C346.016 169.52 345.267 172.887 344.099 176.118C343.288 178.372 342.305 180.559 341.158 182.661V182.661Z" fill="white"></path><path d="M132.896 88.3683C140.604 74.4424 155.176 67.7342 165.602 73.2364L169.622 75.4615L169.612 76.208C170.96 77.5816 172.08 79.1608 172.932 80.8864C172.997 81.0233 173.071 81.1578 173.131 81.2918C173.697 82.489 174.154 83.7352 174.495 85.0151C174.568 85.2838 174.638 85.5576 174.71 85.8395C174.88 86.5645 175.019 87.3068 175.116 88.0787C175.212 88.8507 175.3 89.6513 175.345 90.4553C175.378 90.9301 175.392 91.4145 175.39 91.9036C175.346 98.0165 173.741 104.017 170.725 109.334C169.592 111.385 168.276 113.329 166.791 115.142C164.393 118.1 161.513 120.634 158.272 122.635C157.241 123.268 156.17 123.832 155.066 124.326C151.258 126.131 146.996 126.752 142.831 126.109L141.63 126.458L137.522 124.185C137.229 124.022 136.931 123.857 136.661 123.667C135.341 122.801 134.152 121.751 133.128 120.55C132.548 119.878 132.022 119.162 131.553 118.409C131.281 117.977 131.034 117.538 130.801 117.086C130.337 116.15 129.944 115.181 129.626 114.186C128.873 111.966 128.429 109.653 128.307 107.311C128.291 106.855 128.276 106.41 128.26 105.976C128.244 104.393 128.346 102.81 128.564 101.242C128.879 99.049 129.399 96.8907 130.118 94.7951C130.847 92.5733 131.777 90.4222 132.896 88.3683V88.3683Z" fill="#F9C900"></path><path opacity="0.5" d="M132.896 88.3683C140.604 74.4424 155.176 67.7342 165.602 73.2364L169.622 75.4615L169.612 76.208C170.96 77.5816 172.08 79.1608 172.932 80.8864C172.997 81.0233 173.071 81.1578 173.131 81.2918C173.697 82.489 174.154 83.7352 174.495 85.0151C174.568 85.2838 174.638 85.5576 174.71 85.8395C174.88 86.5645 175.019 87.3068 175.116 88.0787C175.212 88.8507 175.3 89.6513 175.345 90.4553C175.378 90.9301 175.392 91.4145 175.39 91.9036C175.346 98.0165 173.741 104.017 170.725 109.334C169.592 111.385 168.276 113.329 166.791 115.142C164.393 118.1 161.513 120.634 158.272 122.635C157.241 123.268 156.17 123.832 155.066 124.326C151.258 126.131 146.996 126.752 142.831 126.109L141.63 126.458L137.522 124.185C137.229 124.022 136.931 123.857 136.661 123.667C135.341 122.801 134.152 121.751 133.128 120.55C132.548 119.878 132.022 119.162 131.553 118.409C131.281 117.977 131.034 117.538 130.801 117.086C130.337 116.15 129.944 115.181 129.626 114.186C128.873 111.966 128.429 109.653 128.307 107.311C128.291 106.855 128.276 106.41 128.26 105.976C128.244 104.393 128.346 102.81 128.564 101.242C128.879 99.049 129.399 96.8907 130.118 94.7951C130.847 92.5733 131.777 90.4222 132.896 88.3683V88.3683Z" fill="url(#paint3_linear_7106_37675)"></path><path opacity="0.6" d="M130.063 94.7843L170.386 117.104C167.988 120.062 165.11 122.596 161.871 124.6L128.231 105.979C128.215 104.396 128.316 102.814 128.535 101.245C128.841 99.0484 129.352 96.8853 130.063 94.7843V94.7843Z" fill="url(#paint4_linear_7106_37675)"></path><path d="M136.497 90.3549C144.197 76.4444 158.759 69.7304 169.183 75.2116L169.625 75.4563C169.949 75.6355 170.273 75.8148 170.569 76.0323C173.121 77.7415 175.172 80.0984 176.513 82.8616L176.717 83.2699C177.281 84.4588 177.736 85.6971 178.074 86.9692L175.123 88.1026C176.281 91.7436 176.564 95.6067 175.947 99.3775L178.68 98.3585C178.525 99.5885 178.298 100.808 178.001 102.012L175.186 103.093C174.674 104.91 174.007 106.68 173.192 108.383L176.311 107.188C174.84 110.773 172.846 114.121 170.396 117.123C167.998 120.081 165.119 122.615 161.881 124.619C155.18 128.707 147.688 129.636 141.641 126.451L141.337 126.283C140.983 126.086 140.633 125.893 140.329 125.678C139.737 125.292 139.171 124.867 138.636 124.405C137.977 123.838 137.361 123.222 136.796 122.56L136.671 122.411L140.929 120.785C139.877 119.753 138.977 118.576 138.256 117.291L134.319 118.798C133.891 117.964 133.526 117.1 133.225 116.212L133.111 115.873L136.965 114.394C136.507 113.064 136.182 111.692 135.995 110.298C135.686 107.924 135.706 105.52 136.056 103.152L131.998 104.707C132.044 104.236 132.101 103.757 132.166 103.276C132.473 101.079 132.984 98.9161 133.694 96.8148C134.43 94.5809 135.369 92.4186 136.497 90.3549V90.3549Z" fill="#F9C900"></path><path d="M175.176 103.074L178.001 102.012C177.566 103.776 177.001 105.506 176.311 107.188L173.192 108.382C174.004 106.673 174.668 104.897 175.176 103.074V103.074Z" fill="#F9C900"></path><path d="M134.278 118.776L138.215 117.268C138.936 118.554 139.836 119.73 140.888 120.762L136.63 122.388C136.099 121.758 135.612 121.092 135.175 120.394C134.909 119.965 134.665 119.52 134.426 119.066C134.371 118.972 134.322 118.875 134.278 118.776V118.776Z" fill="#F9C900"></path><path d="M175.138 88.1105L178.089 86.977C178.157 87.2429 178.23 87.5115 178.319 87.7756C178.666 89.2887 178.883 90.8288 178.967 92.3789C178.992 92.8559 179.006 93.3405 179.012 93.8272C179.008 95.3434 178.897 96.8573 178.68 98.3578L175.951 99.4059C176.575 95.6293 176.296 91.7588 175.138 88.1105V88.1105Z" fill="#F9C900"></path><path d="M131.965 104.669L136.023 103.114C135.427 106.881 135.737 110.737 136.93 114.36L133.075 115.84C132.395 113.724 131.989 111.529 131.868 109.309C131.781 107.762 131.814 106.211 131.965 104.669V104.669Z" fill="#F9C900"></path><path d="M139.751 92.1552C146.429 80.0902 159.118 74.3339 168.099 79.3048C171.472 81.2475 173.986 84.3926 175.138 88.1104C176.297 91.7514 176.579 95.6145 175.962 99.3852C175.777 100.63 175.515 101.862 175.176 103.074C174.664 104.891 173.997 106.66 173.182 108.363C172.897 108.964 172.588 109.558 172.26 110.15C165.579 122.22 152.888 127.968 143.913 123C142.81 122.39 141.793 121.635 140.891 120.756C139.839 119.724 138.939 118.547 138.218 117.262C137.701 116.337 137.269 115.367 136.927 114.365C135.735 110.741 135.424 106.886 136.02 103.118C136.584 99.2666 137.848 95.551 139.751 92.1552V92.1552Z" fill="url(#paint5_linear_7106_37675)"></path><path d="M139.741 92.1499C145.964 80.9074 157.786 75.5513 166.15 80.1808C166.703 80.4859 167.232 80.8325 167.732 81.2175C168.017 81.429 168.291 81.6546 168.553 81.8936C169.612 82.8506 170.521 83.9625 171.247 85.1914C172.073 86.589 172.694 88.0976 173.092 89.6713C173.161 89.924 173.218 90.1841 173.276 90.4443C173.551 91.735 173.71 93.0478 173.75 94.367L173.755 94.4434C173.77 94.9017 173.764 95.3617 173.75 95.8239C173.717 97.0041 173.6 98.1804 173.4 99.3439C173.31 99.9056 173.197 100.474 173.066 101.039C173.014 101.132 173.023 101.251 172.992 101.354C172.745 102.378 172.442 103.387 172.084 104.378C171.524 105.944 170.837 107.461 170.029 108.915C164.879 118.219 155.913 123.498 148.209 122.41C147.401 122.295 146.606 122.107 145.834 121.847C145.06 121.594 144.312 121.268 143.6 120.873L143.224 120.665C142.447 120.202 141.722 119.659 141.06 119.044C140.713 118.725 140.384 118.388 140.073 118.034C139.771 117.693 139.487 117.336 139.222 116.965C139.097 116.789 138.973 116.613 138.85 116.424C138.189 115.416 137.644 114.337 137.225 113.207C136.856 112.212 136.572 111.188 136.375 110.145C136.333 109.967 136.303 109.789 136.274 109.612C136.036 108.143 135.943 106.654 135.995 105.166C136.072 102.823 136.455 100.499 137.134 98.2551C137.778 96.1312 138.652 94.084 139.741 92.1499V92.1499Z" fill="#F9C900"></path><path opacity="0.8" d="M151.8 94.896C153.695 91.3383 156.549 89.9562 159.679 90.8895C159.718 90.895 159.758 90.8871 159.792 90.8671C159.826 90.8471 159.853 90.816 159.867 90.7791L160.747 89.1906C160.994 88.7434 161.456 88.5156 161.793 88.6954L163.175 89.4134C163.509 89.5984 163.591 90.0936 163.354 90.5465L162.5 92.0887C162.478 92.1211 162.468 92.1606 162.472 92.1999C162.476 92.2392 162.494 92.2756 162.523 92.3027C164.1 93.4344 165.223 95.0892 165.693 96.9722C165.736 97.1878 165.714 97.411 165.631 97.6145C165.548 97.818 165.408 97.9929 165.227 98.1177L162.274 100.19C162.2 100.26 162.11 100.31 162.011 100.335C161.912 100.36 161.809 100.358 161.711 100.331C161.613 100.304 161.524 100.252 161.452 100.18C161.38 100.108 161.328 100.018 161.301 99.9203C161.107 99.1135 160.747 98.3561 160.244 97.6961C159.741 97.0361 159.106 96.4881 158.38 96.0871C157.614 95.6631 156.683 95.6583 156.289 96.3939C155.896 97.1296 156.281 97.7796 157.448 98.8147C159.398 100.532 162.423 103.026 159.93 107.676C158.44 110.465 155.585 112.249 152.358 111.309C152.32 111.303 152.28 111.309 152.245 111.328C152.211 111.346 152.183 111.376 152.167 111.412L151.277 113.081C151.199 113.282 151.048 113.446 150.854 113.54C150.66 113.633 150.438 113.649 150.233 113.584L148.845 112.864C148.516 112.681 148.432 112.178 148.672 111.733L149.596 110.002C149.617 109.969 149.626 109.93 149.622 109.891C149.617 109.853 149.601 109.816 149.574 109.788C148.343 108.791 147.424 107.462 146.926 105.958C146.874 105.73 146.891 105.491 146.976 105.272C147.062 105.053 147.21 104.865 147.403 104.732L150.342 102.819C150.412 102.759 150.495 102.717 150.585 102.695C150.674 102.673 150.768 102.673 150.857 102.694C150.947 102.715 151.031 102.756 151.101 102.815C151.172 102.875 151.228 102.95 151.264 103.034C151.741 104.341 152.651 105.445 153.844 106.162C154.867 106.68 155.342 106.319 155.621 105.802C156.02 105.082 155.596 104.539 154.331 103.463C152.341 101.817 149.497 99.202 151.8 94.896Z" fill="#B76800"></path><path opacity="0.1" d="M137.254 113.216L173.4 99.3437C173.31 99.9053 173.197 100.474 173.065 101.039C173.014 101.132 173.022 101.25 172.992 101.354C172.745 102.378 172.442 103.387 172.084 104.377L139.245 116.971C139.121 116.795 138.997 116.619 138.873 116.43C138.214 115.423 137.671 114.345 137.254 113.216V113.216Z" fill="white"></path><path opacity="0.1" d="M137.168 98.2668L171.263 85.1997C172.089 86.5972 172.71 88.1059 173.108 89.6796C173.176 89.9323 173.234 90.1924 173.291 90.4526C173.566 91.7433 173.725 93.0561 173.766 94.3753L173.771 94.4517C173.786 94.91 173.779 95.3699 173.765 95.8322L136.419 110.162C136.377 109.984 136.347 109.807 136.318 109.629C136.08 108.16 135.987 106.671 136.039 105.184C136.112 102.839 136.492 100.513 137.168 98.2668Z" fill="white"></path><path opacity="0.2" d="M175.176 103.074L178.001 102.012C177.566 103.776 177.001 105.506 176.311 107.188L173.192 108.382C174.004 106.673 174.668 104.897 175.176 103.074V103.074Z" fill="white"></path><path opacity="0.2" d="M134.278 118.776L138.215 117.268C138.936 118.554 139.836 119.73 140.888 120.762L136.63 122.388C136.099 121.758 135.612 121.092 135.175 120.394C134.909 119.965 134.665 119.52 134.426 119.066C134.371 118.972 134.322 118.875 134.278 118.776V118.776Z" fill="white"></path><path opacity="0.2" d="M175.138 88.1105L178.089 86.977C178.157 87.2429 178.23 87.5115 178.319 87.7756C178.666 89.2887 178.883 90.8288 178.967 92.3789C178.992 92.8559 179.006 93.3405 179.012 93.8272C179.008 95.3434 178.897 96.8573 178.68 98.3578L175.951 99.4059C176.575 95.6293 176.296 91.7588 175.138 88.1105V88.1105Z" fill="white"></path><path opacity="0.2" d="M131.965 104.669L136.023 103.114C135.427 106.881 135.737 110.737 136.93 114.36L133.075 115.84C132.395 113.724 131.989 111.529 131.868 109.309C131.781 107.762 131.814 106.211 131.965 104.669V104.669Z" fill="white"></path><path d="M269.063 68.707C268.333 68.1446 267.602 67.5822 266.872 67.0197C266.142 66.4573 265.433 65.911 264.757 65.2914C264.082 64.6717 263.42 64.1505 262.757 63.5732C262.094 62.9958 261.436 62.4115 260.783 61.8202C260.13 61.229 259.525 60.6629 258.909 60.0668C258.294 59.4707 257.702 58.9153 257.113 58.3284C256.523 57.7414 255.967 57.169 255.404 56.5911C254.84 56.0133 254.316 55.443 253.789 54.8604C253.263 54.2778 252.759 53.7235 252.259 53.15C251.759 52.5765 251.294 52.0297 250.825 51.4584C250.357 50.887 249.925 50.3548 249.489 49.7979C249.054 49.2411 248.666 48.7094 248.257 48.1616C247.848 47.6138 247.492 47.0966 247.129 46.5617C246.765 46.0268 246.436 45.5186 246.118 44.9966C245.8 44.4746 245.494 43.9948 245.202 43.4819C244.91 42.969 244.661 42.5006 244.41 42.0075C243.139 39.8207 242.412 37.3607 242.289 34.8344C242.427 32.8546 243.182 30.9679 244.449 29.4403C245.8 27.6 247.24 25.817 248.669 24.0479C248.721 23.9687 248.796 23.9067 248.884 23.8698C249.064 23.8089 249.234 23.962 249.371 24.1007C249.731 24.467 250.965 24.9077 251.072 25.3007C251.18 25.6936 250.78 26.1836 250.637 26.5277C250.404 27.1462 249.687 28.7541 250.838 28.8988L251.294 28.9397C252.735 29.1068 254.162 29.3798 255.563 29.7563C255.874 29.8411 256.198 29.9242 256.523 30.0197C257.375 30.2659 258.257 30.5458 259.183 30.8825C260.109 31.2192 261.07 31.5826 262.048 31.9814C262.628 32.2065 263.218 32.4616 263.817 32.7344C271.818 36.4038 279.358 41.0026 286.282 46.4361C289.134 48.6321 291.816 50.8753 294.299 53.1316C298.316 56.7307 302.034 60.6502 305.416 64.8514C306.443 66.1369 307.376 67.399 308.217 68.6376C311.367 73.2798 314.693 72.9607 314.678 76.0734L317.525 76.9808L313.813 81.8002L311.965 84.1995C311.834 84.3772 311.685 84.5412 311.521 84.689C311.169 85.0172 310.77 85.2924 310.338 85.506C309.753 85.8068 309.127 86.0228 308.481 86.1477C307.733 86.3007 306.972 86.3786 306.208 86.3802C305.734 86.3917 305.255 86.3663 304.733 86.3526C303.634 86.2684 302.541 86.1112 301.461 85.8823C298.674 85.2676 295.947 84.4024 293.315 83.297C292.773 83.0794 292.23 82.8495 291.645 82.5874C289.753 81.7503 287.782 80.798 285.765 79.7205C283.083 78.2973 280.319 76.6344 277.481 74.8248C274.642 73.0151 271.928 70.9138 269.063 68.707Z" fill="#F9C900"></path><path opacity="0.5" d="M269.063 68.707C268.333 68.1446 267.602 67.5822 266.872 67.0197C266.142 66.4573 265.433 65.911 264.757 65.2914C264.082 64.6717 263.42 64.1505 262.757 63.5732C262.094 62.9958 261.436 62.4115 260.783 61.8202C260.13 61.229 259.525 60.6629 258.909 60.0668C258.294 59.4707 257.702 58.9153 257.113 58.3284C256.523 57.7414 255.967 57.169 255.404 56.5911C254.84 56.0133 254.316 55.443 253.789 54.8604C253.263 54.2778 252.759 53.7235 252.259 53.15C251.759 52.5765 251.294 52.0297 250.825 51.4584C250.357 50.887 249.925 50.3548 249.489 49.7979C249.054 49.2411 248.666 48.7094 248.257 48.1616C247.848 47.6138 247.492 47.0966 247.129 46.5617C246.765 46.0268 246.436 45.5186 246.118 44.9966C245.8 44.4746 245.494 43.9948 245.202 43.4819C244.91 42.969 244.661 42.5006 244.41 42.0075C243.139 39.8207 242.412 37.3607 242.289 34.8344C242.427 32.8546 243.182 30.9679 244.449 29.4403C245.8 27.6 247.24 25.817 248.669 24.0479C248.721 23.9687 248.796 23.9067 248.884 23.8698C249.064 23.8089 249.234 23.962 249.371 24.1007C249.731 24.467 250.965 24.9077 251.072 25.3007C251.18 25.6936 250.78 26.1836 250.637 26.5277C250.404 27.1462 249.687 28.7541 250.838 28.8988L251.294 28.9397C252.735 29.1068 254.162 29.3798 255.563 29.7563C255.874 29.8411 256.198 29.9242 256.523 30.0197C257.375 30.2659 258.257 30.5458 259.183 30.8825C260.109 31.2192 261.07 31.5826 262.048 31.9814C262.628 32.2065 263.218 32.4616 263.817 32.7344C271.818 36.4038 279.358 41.0026 286.282 46.4361C289.134 48.6321 291.816 50.8753 294.299 53.1316C298.316 56.7307 302.034 60.6502 305.416 64.8514C306.443 66.1369 307.376 67.399 308.217 68.6376C311.367 73.2798 314.693 72.9607 314.678 76.0734L317.525 76.9808L313.813 81.8002L311.965 84.1995C311.834 84.3772 311.685 84.5412 311.521 84.689C311.169 85.0172 310.77 85.2924 310.338 85.506C309.753 85.8068 309.127 86.0228 308.481 86.1477C307.733 86.3007 306.972 86.3786 306.208 86.3802C305.734 86.3917 305.255 86.3663 304.733 86.3526C303.634 86.2684 302.541 86.1112 301.461 85.8823C298.674 85.2676 295.947 84.4024 293.315 83.297C292.773 83.0794 292.23 82.8495 291.645 82.5874C289.753 81.7503 287.782 80.798 285.765 79.7205C283.083 78.2973 280.319 76.6344 277.481 74.8248C274.642 73.0151 271.928 70.9138 269.063 68.707Z" fill="url(#paint6_linear_7106_37675)"></path><path opacity="0.6" d="M277.583 74.7489L295.956 50.895C299.971 54.4944 303.691 58.4114 307.078 62.6079L291.748 82.5116C289.855 81.6744 287.885 80.7222 285.868 79.6446C283.186 78.2215 280.406 76.5794 277.583 74.7489Z" fill="url(#paint7_linear_7106_37675)"></path><path d="M274.407 61.7547C255.588 47.2605 244.069 30.5667 248.463 24.2442L248.666 23.9799C248.818 23.7924 248.983 23.6162 249.161 23.4526C250.66 22.0812 253.093 21.5839 256.222 21.8662L256.678 21.9072C258.11 22.073 259.527 22.3429 260.92 22.7147L262.976 25.9716C267.757 27.1521 272.354 28.9814 276.639 31.4085L274.739 28.3942C276.263 29.1915 277.811 30.0733 279.378 31.0029L281.334 34.1164C283.592 35.5007 285.945 37.0917 288.281 38.7914L286.113 35.3487C287.942 36.6134 289.788 37.9573 291.624 39.3714C294.475 41.5675 297.164 43.8159 299.648 46.0722C303.664 49.6717 307.383 53.5887 310.77 57.7852C317.296 66.0137 320.127 73.2135 317.563 76.8888L317.423 77.0696C317.265 77.2779 317.089 77.4724 316.898 77.651C316.545 77.9792 316.147 78.2545 315.715 78.4682C315.129 78.7619 314.506 78.9754 313.863 79.1028L313.705 79.1359L310.748 74.4435C309.559 74.838 308.305 75.0008 307.055 74.923L309.802 79.2545C308.805 79.1624 307.814 79.0066 306.837 78.7881L306.445 78.7077L303.774 74.4351C302.139 74.0914 300.53 73.6331 298.958 73.0636C295.935 71.9593 292.997 70.6335 290.169 69.0971L292.986 73.5823C292.401 73.2764 291.798 72.9667 291.193 72.6447C288.504 71.2162 285.747 69.5585 282.908 67.7488C280.07 65.9392 277.279 63.9668 274.407 61.7547Z" fill="#F9C900"></path><path d="M281.348 34.1262L279.392 31.0127C281.597 32.3349 283.886 33.8093 286.127 35.3585L288.295 38.8012C285.959 37.1015 283.654 35.548 281.348 34.1262Z" fill="#F9C900"></path><path d="M309.81 79.2714L307.064 74.9399C308.314 75.0212 309.569 74.8584 310.757 74.4604L313.713 79.1528C313.014 79.2879 312.305 79.3569 311.593 79.3591C311.124 79.3637 310.633 79.3398 310.112 79.3261C310.01 79.3146 309.909 79.2963 309.81 79.2714V79.2714Z" fill="#F9C900"></path><path d="M262.977 25.9707L260.92 22.7137C261.232 22.7985 261.548 22.8762 261.846 22.9503C263.715 23.4995 265.554 24.1467 267.355 24.889C267.937 25.1264 268.527 25.3815 269.124 25.642C270.917 26.4357 272.776 27.3462 274.69 28.3557L276.59 31.37C272.317 28.9636 267.738 27.1473 262.977 25.9707V25.9707Z" fill="#F9C900"></path><path d="M293.012 73.6351L290.189 69.1569C294.456 71.5636 299.038 73.362 303.802 74.5001L306.472 78.7727C303.824 78.1571 301.233 77.3211 298.724 76.2734C296.892 75.5161 294.965 74.6521 293.012 73.6351Z" fill="#F9C900"></path><path d="M275.89 59.8274C259.568 47.2561 249.644 32.7652 253.736 27.452C255.274 25.4561 258.581 25.0454 262.977 25.9708C267.758 27.1524 272.356 28.9791 276.644 31.4007C278.207 32.2494 279.742 33.133 281.348 34.1262C283.606 35.5106 285.959 37.1016 288.296 38.8012C289.081 39.4065 289.874 40.0171 290.674 40.6331C307.003 53.2097 316.91 67.7092 312.823 73.0155C312.283 73.6952 311.562 74.2078 310.742 74.4936C309.554 74.8915 308.3 75.0544 307.049 74.973C305.949 74.9195 304.854 74.7769 303.777 74.5466C299.012 73.4085 294.431 71.61 290.164 69.2034C285.156 66.4766 280.382 63.3406 275.89 59.8274V59.8274Z" fill="url(#paint8_linear_7106_37675)"></path><path d="M275.349 60.5296C260.14 48.8153 250.907 35.3111 254.716 30.3665C254.97 30.0343 255.281 29.7485 255.632 29.5214C255.835 29.3772 256.052 29.2546 256.28 29.1557C257.369 28.6995 258.546 28.4932 259.725 28.552C261.449 28.6048 263.16 28.8726 264.817 29.3493C265.115 29.4233 265.421 29.5151 265.727 29.6068C267.327 30.0952 268.9 30.6703 270.438 31.3298L270.515 31.3887C271.077 31.6224 271.643 31.8807 272.215 32.1443C273.641 32.8064 275.101 33.5619 276.597 34.4109C277.305 34.801 278.028 35.2142 278.753 35.6396C278.878 35.736 278.996 35.827 279.159 35.8747C280.448 36.6462 281.756 37.4654 283.073 38.346C285.071 39.6639 287.093 41.1101 289.11 42.6635C301.697 52.3584 310.187 63.2739 310.59 69.5559C310.636 70.1609 310.586 70.7695 310.442 71.3589C310.315 71.8918 310.077 72.3918 309.744 72.8265L309.572 73.0491C309.155 73.5099 308.639 73.8701 308.063 74.1025C307.734 74.2404 307.395 74.3494 307.047 74.4284C306.678 74.5155 306.303 74.5747 305.925 74.6054C305.739 74.617 305.547 74.6357 305.347 74.6366C304.838 74.6445 304.33 74.6227 303.824 74.5715L303.775 74.534C299.012 73.3917 294.431 71.5935 290.162 69.1908L290.951 70.4404C288.367 69.1637 285.852 67.7519 283.416 66.2109C280.78 64.5127 278.062 62.6185 275.349 60.5296Z" fill="#F9C900"></path><path opacity="0.8" d="M276.002 51.238C271.231 47.5635 268.872 44.2834 269.308 42.0047C269.296 41.9561 269.274 41.9104 269.244 41.8702C269.214 41.83 269.177 41.7962 269.134 41.7707L266.985 40.1156C266.38 39.6496 265.997 39.111 266.14 38.9109L266.713 38.0667C266.862 37.8719 267.457 38.0639 268.062 38.5299L270.148 40.1368C270.26 40.2225 270.35 40.2921 270.405 40.2349C271.578 39.3878 273.331 39.3857 275.432 39.9516C276.02 40.1589 276.542 40.5189 276.944 40.9946L280.151 44.7719C280.594 45.2902 280.549 45.6216 280.038 45.4939C278.198 45.0068 276.617 45.0743 275.987 46.0073C275.638 46.4593 275.84 47.2906 276.833 48.0443C277.192 48.3823 277.652 48.5933 278.143 48.6449C278.634 48.6965 279.127 48.5859 279.549 48.3301C281.217 47.5315 283.603 46.1891 289.88 50.9574C293.621 53.8391 296.473 57.3432 296.043 59.715C296.043 59.715 296.106 59.8633 296.223 59.942L298.455 61.6614C299.06 62.1274 299.443 62.666 299.307 62.8715L298.734 63.7157C298.579 63.9174 297.983 63.7131 297.385 63.2525L295.062 61.4635C294.957 61.3831 294.867 61.3135 294.805 61.3654C293.514 61.9523 292.053 62.0485 290.697 61.6358C290.066 61.4294 289.506 61.0485 289.083 60.5371L286.059 56.8675C285.679 56.3974 285.695 56.0885 286.117 56.1589C287.833 56.4495 288.99 56.1553 289.382 55.5599C289.774 54.9644 289.222 54.3288 288.527 53.7932C287.553 53.0433 286.983 53.136 285.939 53.6722C284.394 54.5549 281.822 55.665 276.002 51.238Z" fill="#B76800"></path><path opacity="0.1" d="M301.789 74.2784L276.629 34.369C277.342 34.7522 278.066 35.1652 278.791 35.5906C278.916 35.687 279.034 35.7781 279.191 35.8328C280.486 36.5974 281.789 37.4234 283.11 38.2972L305.956 74.5512C305.769 74.5628 305.578 74.5814 305.378 74.5823C304.174 74.6129 302.97 74.511 301.789 74.2784V74.2784Z" fill="white"></path><path opacity="0.1" d="M283.443 66.176L259.725 28.5519C261.449 28.6047 263.16 28.8725 264.817 29.3492L265.727 29.6067C267.328 30.0951 268.9 30.6702 270.438 31.3297L270.515 31.3886C271.072 31.6292 271.643 31.8806 272.21 32.1512L298.199 73.3862C297.991 73.3256 297.781 73.2527 297.566 73.1867C295.729 72.5577 293.927 71.8284 292.169 71.002C289.162 69.5775 286.248 67.9656 283.443 66.176Z" fill="white"></path><path opacity="0.2" d="M281.348 34.1262L279.392 31.0127C281.597 32.3349 283.886 33.8093 286.127 35.3585L288.295 38.8012C285.959 37.1015 283.654 35.548 281.348 34.1262Z" fill="white"></path><path opacity="0.2" d="M309.81 79.2714L307.064 74.9399C308.314 75.0212 309.569 74.8584 310.757 74.4604L313.713 79.1528C313.014 79.2879 312.305 79.3569 311.593 79.3591C311.124 79.3637 310.633 79.3398 310.112 79.3261C310.01 79.3146 309.909 79.2963 309.81 79.2714V79.2714Z" fill="white"></path><path opacity="0.2" d="M262.977 25.9707L260.92 22.7137C261.232 22.7985 261.548 22.8762 261.846 22.9503C263.715 23.4995 265.554 24.1467 267.355 24.889C267.937 25.1264 268.527 25.3815 269.124 25.642C270.917 26.4357 272.776 27.3462 274.69 28.3557L276.59 31.37C272.317 28.9636 267.738 27.1473 262.977 25.9707V25.9707Z" fill="white"></path><path opacity="0.2" d="M293.012 73.6346L290.978 70.4061C291.379 70.6044 291.785 70.7957 292.185 70.9817C293.943 71.8099 295.747 72.537 297.588 73.1595C297.798 73.2324 298.007 73.3053 298.221 73.359C299.39 73.7379 300.582 74.0453 301.789 74.2791C302.507 74.4112 303.182 74.4988 303.807 74.5366L306.46 78.73C303.811 78.117 301.218 77.2833 298.707 76.2376C296.898 75.5086 294.965 74.6517 293.012 73.6346Z" fill="white"></path><path d="M412.467 78.3793C412.097 78.9382 411.727 79.4972 411.357 80.0562C410.987 80.6152 410.628 81.1582 410.213 81.6801C409.799 82.2021 409.456 82.7096 409.071 83.2208C408.687 83.7321 408.297 84.2398 407.902 84.7439C407.508 85.2481 407.128 85.7168 406.728 86.1944C406.328 86.6721 405.956 87.1301 405.561 87.5882C405.166 88.0464 404.779 88.4797 404.389 88.9184C404 89.357 403.613 89.7673 403.218 90.1794C402.823 90.5915 402.447 90.9859 402.057 91.3785C401.667 91.7711 401.295 92.1371 400.905 92.5067C400.515 92.8763 400.151 93.2175 399.77 93.5622C399.389 93.907 399.023 94.2163 398.647 94.5416C398.271 94.8669 397.914 95.1514 397.545 95.443C397.176 95.7346 396.825 95.9996 396.462 96.2575C396.1 96.5155 395.768 96.7627 395.412 97.0012C395.055 97.2396 394.728 97.4444 394.383 97.6527C392.863 98.6883 391.117 99.3439 389.29 99.5643C387.847 99.5675 386.439 99.1177 385.265 98.2783C383.86 97.3942 382.492 96.4427 381.134 95.4982C381.074 95.4642 381.025 95.4133 380.993 95.3517C380.94 95.2244 381.042 95.093 381.136 94.9865C381.383 94.7059 381.638 93.7879 381.917 93.6895C382.197 93.5912 382.573 93.8556 382.83 93.9415C383.291 94.078 384.495 94.5148 384.54 93.6719L384.546 93.339C384.592 92.2851 384.715 91.236 384.916 90.2003C384.961 89.97 385.004 89.7308 385.057 89.4898C385.191 88.859 385.348 88.2051 385.544 87.5157C385.74 86.8263 385.954 86.1103 386.192 85.38C386.325 84.9475 386.479 84.5061 386.646 84.0576C388.891 78.0632 391.834 72.3541 395.415 67.0482C396.86 64.8656 398.347 62.8032 399.855 60.8841C402.256 57.7829 404.906 54.882 407.777 52.2099C408.656 51.3984 409.523 50.6554 410.378 49.9809C413.581 47.4541 413.176 45.0581 415.435 44.9071L415.945 42.7948L419.634 45.2364L421.471 46.452C421.607 46.5377 421.733 46.637 421.849 46.7482C422.105 46.987 422.326 47.2618 422.503 47.5639C422.752 47.973 422.941 48.4153 423.065 48.8776C423.215 49.4123 423.312 49.9606 423.352 50.5144C423.385 50.8578 423.392 51.2066 423.409 51.5854C423.405 52.3877 423.348 53.1887 423.238 53.9834C422.938 56.0377 422.452 58.0607 421.787 60.0277C421.658 60.4318 421.519 60.8377 421.36 61.2756C420.851 62.692 420.263 64.1707 419.586 65.6903C418.693 67.71 417.631 69.8011 416.466 71.9545C415.301 74.108 413.918 76.1859 412.467 78.3793Z" fill="#F9C900"></path><path opacity="0.5" d="M412.467 78.3793C412.097 78.9382 411.727 79.4972 411.357 80.0562C410.987 80.6152 410.628 81.1582 410.213 81.6801C409.799 82.2021 409.456 82.7096 409.071 83.2208C408.687 83.7321 408.297 84.2398 407.902 84.7439C407.508 85.2481 407.128 85.7168 406.728 86.1944C406.328 86.6721 405.956 87.1301 405.561 87.5882C405.166 88.0464 404.779 88.4797 404.389 88.9184C404 89.357 403.613 89.7673 403.218 90.1794C402.823 90.5915 402.447 90.9859 402.057 91.3785C401.667 91.7711 401.295 92.1371 400.905 92.5067C400.515 92.8763 400.151 93.2175 399.77 93.5622C399.389 93.907 399.023 94.2163 398.647 94.5416C398.271 94.8669 397.914 95.1514 397.545 95.443C397.176 95.7346 396.825 95.9996 396.462 96.2575C396.1 96.5155 395.768 96.7627 395.412 97.0012C395.055 97.2396 394.728 97.4444 394.383 97.6527C392.863 98.6883 391.117 99.3439 389.29 99.5643C387.847 99.5675 386.439 99.1177 385.265 98.2783C383.86 97.3942 382.492 96.4427 381.134 95.4982C381.074 95.4642 381.025 95.4133 380.993 95.3517C380.94 95.2244 381.042 95.093 381.136 94.9865C381.383 94.7059 381.638 93.7879 381.917 93.6895C382.197 93.5912 382.573 93.8556 382.83 93.9415C383.291 94.078 384.495 94.5148 384.54 93.6719L384.546 93.339C384.592 92.2851 384.715 91.236 384.916 90.2003C384.961 89.97 385.004 89.7308 385.057 89.4898C385.191 88.859 385.348 88.2051 385.544 87.5157C385.74 86.8263 385.954 86.1103 386.192 85.38C386.325 84.9475 386.479 84.5061 386.646 84.0576C388.891 78.0632 391.834 72.3541 395.415 67.0482C396.86 64.8656 398.347 62.8032 399.855 60.8841C402.256 57.7829 404.906 54.882 407.777 52.2099C408.656 51.3984 409.523 50.6554 410.378 49.9809C413.581 47.4541 413.176 45.0581 415.435 44.9071L415.945 42.7948L419.634 45.2364L421.471 46.452C421.607 46.5377 421.733 46.637 421.849 46.7482C422.105 46.987 422.326 47.2618 422.503 47.5639C422.752 47.973 422.941 48.4153 423.065 48.8776C423.215 49.4123 423.312 49.9606 423.352 50.5144C423.385 50.8578 423.392 51.2066 423.409 51.5854C423.405 52.3877 423.348 53.1887 423.238 53.9834C422.938 56.0377 422.452 58.0607 421.787 60.0277C421.658 60.4318 421.519 60.8377 421.36 61.2756C420.851 62.692 420.263 64.1707 419.586 65.6903C418.693 67.71 417.631 69.8011 416.466 71.9545C415.301 74.108 413.918 76.1859 412.467 78.3793Z" fill="url(#paint9_linear_7106_37675)"></path><path opacity="0.6" d="M416.406 71.8842L398.146 59.7994C400.548 56.699 403.195 53.7971 406.063 51.1217L421.299 61.2052C420.791 62.6216 420.202 64.1003 419.526 65.6199C418.633 67.6396 417.587 69.7413 416.406 71.8842Z" fill="url(#paint10_linear_7106_37675)"></path><path d="M407.145 74.8645C397.611 89.2702 386.102 98.4946 381.287 95.6372L381.084 95.5033C380.94 95.4028 380.804 95.2921 380.676 95.1718C379.603 94.1556 379.116 92.4167 379.158 90.1326L379.164 89.7997C379.209 88.7524 379.331 87.71 379.529 86.6805L381.784 85.0192C382.391 81.4898 383.479 78.0601 385.016 74.8256L382.929 76.3607C383.428 75.2135 383.987 74.0447 384.579 72.86L386.736 71.2787C387.623 69.5689 388.654 67.7789 389.765 65.9957L387.381 67.7478C388.203 66.3551 389.082 64.9463 390.012 63.5409C391.457 61.3582 392.948 59.2904 394.455 57.3714C396.857 54.271 399.505 51.3691 402.372 48.6937C408.001 43.5312 413.076 41.1026 415.876 42.7717L416.014 42.8633C416.174 42.9673 416.324 43.0847 416.463 43.2141C416.72 43.453 416.94 43.7278 417.118 44.03C417.361 44.4397 417.549 44.8803 417.675 45.3401L417.707 45.4533L414.457 47.8421C414.805 48.6841 414.988 49.5851 414.997 50.4961L417.996 48.2781C417.981 49.0063 417.92 49.7327 417.812 50.453L417.774 50.7418L414.814 52.9012C414.65 54.1055 414.401 55.2967 414.07 56.4661C413.426 58.7167 412.618 60.9168 411.65 63.0484L414.757 60.7717C414.566 61.2114 414.373 61.6653 414.171 62.1211C413.274 64.1461 412.215 66.2318 411.051 68.3852C409.886 70.5386 408.6 72.6659 407.145 74.8645Z" fill="#F9C900"></path><path d="M386.743 71.2686L384.586 72.8498C385.431 71.1809 386.381 69.4443 387.388 67.7376L389.772 65.9856C388.661 67.7688 387.654 69.5215 386.743 71.2686Z" fill="#F9C900"></path><path d="M418.008 48.2717L415.009 50.4897C415.003 49.5783 414.82 48.6769 414.469 47.8356L417.719 45.4468C417.854 45.9466 417.941 46.4578 417.979 46.9739C418.007 47.3138 418.015 47.6714 418.032 48.0502C418.029 48.1245 418.021 48.1985 418.008 48.2717V48.2717Z" fill="#F9C900"></path><path d="M381.784 85.0196L379.528 86.6809C379.574 86.4506 379.614 86.2167 379.652 85.997C379.953 84.6126 380.327 83.2449 380.771 81.8997C380.913 81.4654 381.067 81.024 381.225 80.5773C381.708 79.2353 382.271 77.84 382.904 76.3984L384.992 74.8633C383.468 78.0883 382.389 81.5048 381.784 85.0196V85.0196Z" fill="#F9C900"></path><path d="M414.794 60.751L411.693 63.0313C413.216 59.8112 414.282 56.394 414.86 52.8787L417.82 50.7193C417.511 52.672 417.04 54.5955 416.411 56.4696C415.957 57.838 415.43 59.281 414.794 60.751Z" fill="#F9C900"></path><path d="M405.67 73.8885C397.401 86.383 387.407 94.3364 383.339 91.6447C381.812 90.6335 381.341 88.2554 381.784 85.0191C382.392 81.4894 383.478 78.0589 385.011 74.822C385.545 73.6446 386.106 72.4847 386.743 71.268C387.63 69.5582 388.661 67.7682 389.772 65.985C390.171 65.3834 390.572 64.7766 390.977 64.1643C399.25 51.6645 409.252 43.7235 413.314 46.4117C413.835 46.7676 414.244 47.2642 414.494 47.8437C414.845 48.6849 415.028 49.5864 415.034 50.4977C415.053 51.2989 415.006 52.1002 414.895 52.8938C414.318 56.409 413.252 59.8263 411.728 63.0463C410.011 66.8211 407.985 70.4475 405.67 73.8885V73.8885Z" fill="url(#paint11_linear_7106_37675)"></path><path d="M406.208 74.2455C398.503 85.8882 389.188 93.2887 385.403 90.7837C385.149 90.6161 384.925 90.406 384.742 90.1627C384.627 90.0234 384.527 89.8724 384.443 89.7122C384.056 88.946 383.845 88.1027 383.826 87.2443C383.774 85.991 383.88 84.7363 384.139 83.5091C384.177 83.2894 384.228 83.0626 384.278 82.8358C384.549 81.6493 384.885 80.4784 385.283 79.3284L385.322 79.2699C385.462 78.8498 385.62 78.4261 385.781 77.997C386.187 76.9286 386.659 75.8299 387.197 74.7008C387.443 74.167 387.705 73.6208 387.976 73.0728C388.04 72.977 388.1 72.8864 388.126 72.766C388.618 71.7905 389.144 70.799 389.715 69.7984C390.566 68.2799 391.51 66.7381 392.532 65.1943C398.909 55.5586 406.385 48.8318 410.921 48.2128C411.357 48.1475 411.801 48.152 412.236 48.226C412.629 48.2904 413.005 48.437 413.337 48.6561L413.508 48.7689C413.864 49.0474 414.152 49.403 414.35 49.8089C414.467 50.04 414.564 50.2808 414.64 50.5286C414.722 50.7918 414.785 51.0609 414.826 51.3335C414.845 51.468 414.868 51.6061 414.879 51.7512C414.911 52.1197 414.922 52.4898 414.911 52.8595L414.887 52.8968C414.306 56.4113 413.24 59.8281 411.72 63.0493L412.585 62.4125C411.793 64.3533 410.9 66.2511 409.909 68.098C408.815 70.0989 407.582 72.1693 406.208 74.2455Z" fill="#F9C900"></path><path opacity="0.8" d="M399.434 74.2555C397.017 77.9075 394.76 79.7901 393.085 79.5921C393.05 79.6034 393.018 79.6215 392.991 79.6453C392.963 79.6691 392.94 79.6981 392.924 79.7308L391.835 81.3757C391.529 81.8389 391.158 82.1447 391.006 82.0514L390.363 81.6799C390.214 81.5813 390.323 81.14 390.629 80.6769L391.686 79.0798C391.742 78.9946 391.788 78.9254 391.744 78.8884C391.068 78.0815 390.976 76.8105 391.277 75.2567C391.396 74.8196 391.63 74.4222 391.954 74.1053L394.527 71.5824C394.88 71.2342 395.123 71.2494 395.057 71.6267C394.8 72.9874 394.931 74.1307 395.64 74.5391C395.986 74.7681 396.579 74.5784 397.074 73.819C397.3 73.5408 397.43 73.1961 397.441 72.8376C397.453 72.4791 397.347 72.1265 397.14 71.8339C396.474 70.6658 395.376 69.0052 398.508 64.2035C400.403 61.3394 402.797 59.088 404.539 59.2769C404.539 59.2769 404.644 59.2234 404.695 59.1347L405.826 57.4258C406.132 56.9627 406.503 56.6569 406.659 56.7449L407.301 57.1163C407.456 57.2185 407.339 57.6616 407.036 58.1194L405.859 59.8975C405.806 59.9773 405.76 60.0465 405.801 60.0889C406.294 60.9948 406.44 62.0493 406.211 63.055C406.094 63.5233 405.847 63.949 405.498 64.2826L402.994 66.6672C402.673 66.9675 402.448 66.9718 402.477 66.6618C402.598 65.4025 402.325 64.5784 401.872 64.3249C401.42 64.0715 400.987 64.505 400.635 65.0373C400.142 65.7826 400.239 66.1913 400.682 66.921C401.403 67.9951 402.342 69.8033 399.434 74.2555Z" fill="#B76800"></path><path opacity="0.1" d="M414.805 54.3505L387.165 74.6794C387.406 74.1421 387.668 73.5959 387.939 73.0479C388.002 72.9521 388.062 72.8616 388.094 72.7446C388.581 71.7656 389.112 70.7776 389.677 69.7736L414.786 51.314C414.804 51.4485 414.827 51.5865 414.838 51.7317C414.923 52.6032 414.912 53.4814 414.805 54.3505V54.3505Z" fill="white"></path><path opacity="0.1" d="M409.883 68.0803L383.826 87.2442C383.774 85.991 383.879 84.7362 384.139 83.509L384.278 82.8357C384.549 81.6492 384.885 80.4783 385.283 79.3283L385.322 79.2698C385.467 78.8532 385.62 78.426 385.786 78.0005L414.344 57.0009C414.311 57.1551 414.269 57.311 414.233 57.4705C413.872 58.8363 413.437 60.1813 412.929 61.4994C412.052 63.7546 411.035 65.9526 409.883 68.0803Z" fill="white"></path><path opacity="0.2" d="M386.743 71.2686L384.586 72.8498C385.431 71.1809 386.381 69.4443 387.388 67.7376L389.772 65.9856C388.661 67.7688 387.654 69.5215 386.743 71.2686Z" fill="white"></path><path opacity="0.2" d="M418.008 48.2717L415.009 50.4897C415.003 49.5783 414.82 48.6769 414.469 47.8356L417.719 45.4468C417.854 45.9466 417.941 46.4578 417.979 46.9739C418.007 47.3138 418.015 47.6714 418.032 48.0502C418.029 48.1245 418.021 48.1985 418.008 48.2717V48.2717Z" fill="white"></path><path opacity="0.2" d="M381.784 85.0196L379.528 86.6809C379.574 86.4506 379.614 86.2167 379.652 85.997C379.953 84.6126 380.327 83.2449 380.771 81.8997C380.913 81.4654 381.067 81.024 381.225 80.5773C381.708 79.2353 382.271 77.84 382.904 76.3984L384.992 74.8633C383.468 78.0883 382.389 81.5048 381.784 85.0196V85.0196Z" fill="white"></path><path opacity="0.2" d="M414.794 60.7513L412.558 62.3949C412.681 62.0934 412.799 61.7885 412.913 61.4889C413.422 60.1706 413.856 58.8242 414.211 57.4565C414.253 57.3005 414.295 57.1446 414.323 56.9869C414.537 56.1187 414.698 55.2384 414.805 54.3507C414.863 53.8228 414.892 53.3287 414.886 52.8737L417.79 50.7304C417.483 52.6841 417.014 54.6088 416.386 56.4842C415.951 57.8348 415.43 59.2814 414.794 60.7513Z" fill="white"></path><g filter="url(#filter0_dd_7106_37675)"><rect x="136.213" y="204.746" width="307.446" height="118.762" rx="59.3809" fill="url(#paint12_linear_7106_37675)"></rect></g><g clip-path="url(#clip1_7106_37675)"><path d="M192.717 293.528C195.05 293.528 196.256 292.63 196.256 289.259V260.629H202.935V287.907C202.935 295.634 200.018 299.498 192.766 299.498L192.717 293.528ZM195.497 253.249C195.503 252.185 195.93 251.166 196.688 250.413C197.445 249.661 198.471 249.236 199.542 249.231C200.077 249.227 200.607 249.328 201.103 249.528C201.599 249.727 202.05 250.022 202.431 250.395C202.812 250.769 203.115 251.213 203.323 251.702C203.531 252.192 203.641 252.717 203.644 253.249C203.638 253.777 203.527 254.299 203.317 254.784C203.107 255.269 202.803 255.708 202.422 256.076C202.04 256.444 201.59 256.734 201.095 256.928C200.601 257.123 200.073 257.218 199.542 257.209C199.015 257.213 198.492 257.114 198.003 256.917C197.514 256.72 197.07 256.429 196.694 256.061C196.319 255.694 196.02 255.256 195.814 254.773C195.609 254.291 195.501 253.773 195.497 253.249Z" fill="#1F2B31"></path><path d="M234.833 277.261V249.037H241.055V251.935C241.636 250.901 242.498 250.05 243.544 249.481C244.59 248.912 245.775 248.648 246.965 248.718C248.343 248.647 249.711 248.975 250.905 249.66C252.099 250.346 253.067 251.361 253.693 252.582C254.404 251.356 255.439 250.347 256.687 249.666C257.935 248.985 259.348 248.657 260.77 248.718C265.573 248.718 268.353 251.78 268.353 258.609V277.242H261.675V258.358C261.675 255.547 260.158 254.494 258.291 254.494C256.425 254.494 254.898 255.596 254.898 258.262V277.242H248.229V258.358C248.229 255.596 246.81 254.494 244.846 254.494C243.077 254.494 241.453 255.547 241.453 258.262V277.242L234.833 277.261Z" fill="#1F2B31"></path><path d="M273.506 287.201V249.076H279.728V252.138C280.126 251.172 282.352 248.622 286.533 248.622C291.695 248.622 295.078 251.79 295.078 259.025V267.255C295.078 274.441 291.695 277.61 286.533 277.61C285.331 277.671 284.131 277.439 283.04 276.934C281.949 276.428 280.999 275.666 280.272 274.712V287.201H273.506ZM288.322 266.704V259.527C288.322 256.06 286.65 254.447 284.219 254.447C281.789 254.447 280.126 256.06 280.126 259.527V266.859C280.126 270.22 281.847 271.689 284.219 271.689C286.591 271.689 288.322 270.085 288.322 266.666V266.704Z" fill="#1F2B31"></path><path d="M312.118 277.239C303.622 278.213 300.419 274.944 300.419 266.836V255.212H297.713V250.039C301.355 250.039 302.583 248.586 302.583 244.038H306.897V249.603H312.016V255.212H306.897V267.025C306.897 270.933 308.082 272.154 312.104 271.573L312.118 277.239Z" fill="#1F2B31"></path><path d="M315.116 267.271V259.323C315.116 252.232 318.509 249.152 323.379 249.152C324.683 249.086 325.98 249.367 327.138 249.968C328.295 250.568 329.269 251.466 329.96 252.567V249.501H336.058V276.934H329.96V273.911C329.283 275.028 328.313 275.94 327.153 276.55C325.993 277.159 324.688 277.443 323.379 277.37C318.421 277.428 315.116 274.304 315.116 267.271ZM329.565 266.792V259.716C329.565 256.388 327.897 254.921 325.631 254.921C323.364 254.921 321.653 256.374 321.653 259.803V266.792C321.653 270.206 323.232 271.717 325.631 271.717C328.029 271.717 329.565 270.163 329.565 266.792Z" fill="#1F2B31"></path><path d="M339.992 267.809H346.47C346.394 268.391 346.451 268.982 346.638 269.538C346.825 270.095 347.136 270.602 347.549 271.021C347.961 271.441 348.464 271.762 349.019 271.961C349.575 272.159 350.168 272.23 350.755 272.168C353.256 272.168 354.689 270.802 354.689 269.262C354.689 264.482 340.635 267.068 340.635 257.406C340.635 252.378 344.321 249.298 350.463 249.298C357.19 249.298 360.919 252.422 360.919 258.67H354.587C354.587 255.604 352.919 254.776 350.506 254.776C348.094 254.776 347.011 255.749 347.011 257.406C347.011 262.535 361.226 259.803 361.226 269.32C361.226 274.493 357.541 277.617 350.755 277.617C343.97 277.617 339.992 273.97 339.992 267.809Z" fill="#1F2B31"></path><path d="M365.583 276.992V240.086H372.077V260.646H374.241L379.798 249.516H387.11L379.535 263.189L387.154 276.949H379.842L374.241 265.921H372.077V276.949L365.583 276.992Z" fill="#1F2B31"></path><path d="M227.599 228.753L222.096 239.475H224.235V249.569V268.356C224.253 268.891 224.16 269.423 223.964 269.921C223.767 270.419 223.471 270.872 223.092 271.253C222.714 271.633 222.262 271.933 221.763 272.134C221.264 272.335 220.729 272.433 220.191 272.423C219.268 272.479 218.354 272.207 217.615 271.655C216.875 271.102 216.358 270.306 216.156 269.409V249.337H218.305L212.802 238.567L207.3 249.298H209.429V249.53H209.371V267.361C209.371 267.825 209.371 268.279 209.429 268.714V269.515H209.526C210.314 274.934 214.134 278.267 220.22 278.267C226.792 278.267 230.992 274.046 230.992 267.361V262.85V239.436H233.131L227.599 228.753Z" fill="#5697F9"></path></g><path d="M109.789 463.342C106.692 466.054 101.982 465.737 99.2758 462.635L64.2824 422.523C61.5734 419.417 61.8903 414.705 64.9906 411.99V411.99L86.8406 393.029L94.9663 385.914L149.912 337.802C152.048 335.932 155.296 336.151 157.162 338.29V338.29L161.884 343.897L174.393 358.237L186.746 372.202V372.202C193.198 379.706 192.398 391.009 184.952 397.528L181.566 400.493L109.789 463.342V463.342Z" fill="url(#paint13_linear_7106_37675)"></path><path d="M52.9186 448.025C44.9545 431.072 69.5242 428.528 81.8649 442.674C94.2055 456.82 88.4004 480.874 72.6974 470.697C70.5956 469.461 68.7116 467.693 67.0089 465.937L57.0349 454.504C55.1754 452.372 53.8596 450.277 52.9186 448.025Z" fill="url(#paint14_linear_7106_37675)"></path><path d="M181.566 400.493L180.552 399.33L86.8406 393.029L153.781 334.414L161.884 343.897L174.393 358.237L174.744 358.443L180.31 365.02L198.398 385.754L181.566 400.493Z" fill="url(#paint15_linear_7106_37675)"></path><path d="M137.784 350.305L180.553 399.331C186.301 405.92 196.452 406.602 203.03 400.843C210.381 394.405 211.138 383.146 204.715 375.783L164.312 329.469C157.888 322.105 146.65 321.35 139.298 327.787C132.72 333.547 132.036 343.716 137.784 350.305Z" fill="#D0E0F0"></path><path d="M172.655 251.408C177.063 185.852 233.75 136.216 299.185 140.616C364.62 145.016 414.151 201.794 409.743 267.349C405.335 332.905 348.649 382.541 283.214 378.141C217.779 373.741 168.247 316.963 172.655 251.408Z" fill="url(#paint16_linear_7106_37675)" fill-opacity="0.9"></path><path d="M385.022 395.467C388.126 393.305 391.229 391.143 394.149 388.771C395.197 387.854 396.441 386.95 397.489 386.032C398.327 385.298 399.152 384.761 399.99 384.027C401.876 382.376 403.552 380.908 405.241 379.244C407.559 377.029 409.681 374.801 411.803 372.573C415.195 369.047 418.404 365.312 421.43 361.366C424.024 357.985 426.408 354.787 428.61 351.378C428.832 350.998 429.042 350.815 429.265 350.435C430.142 349.111 431.033 347.59 431.911 346.266C432.789 344.942 433.471 343.605 434.348 342.281C441.949 328.963 447.625 314.923 451.365 300.358C456.221 280.928 457.597 260.474 455.386 240.57C453.525 224.245 449.27 208.351 442.619 192.889C441.939 191.263 441.063 189.624 440.384 187.998C440.397 187.801 440.214 187.591 440.031 187.381C436.737 180.64 432.855 173.86 428.554 167.446C427.298 165.584 426.226 163.931 424.775 162.056C423.69 160.6 422.604 159.144 421.506 157.885C420.787 156.848 419.871 155.799 419.152 154.763C418.067 153.307 416.772 152.035 415.687 150.579C414.588 149.319 413.49 148.06 412.378 146.998C408.703 142.997 404.818 139.18 400.724 135.546C392.536 128.278 383.89 121.968 374.588 116.601C373.633 116.141 372.691 115.485 371.736 115.026C370.781 114.567 369.643 113.897 368.687 113.438C368.112 113.202 367.732 112.979 367.157 112.742C366.581 112.506 366.018 112.073 365.443 111.837C363.533 110.918 361.439 109.79 359.333 108.858C358.181 108.385 357.03 107.913 356.075 107.453C352.045 105.8 348.015 104.146 343.775 102.675C340.687 101.677 337.599 100.679 334.694 99.8915C334.498 99.8783 334.498 99.8783 334.302 99.8651C333.726 99.6288 333.333 99.6024 332.758 99.3662C328.884 98.3155 324.802 97.4483 320.705 96.7778C319.148 96.4755 317.395 96.16 315.628 96.0412C311.532 95.3707 307.423 94.8968 303.3 94.6196L303.104 94.6064C302.318 94.5536 301.533 94.5008 300.552 94.4348C297.214 94.2104 294.06 94.1959 290.906 94.1814C289.336 94.0758 287.752 94.1668 286.168 94.2579C282.412 94.4005 278.459 94.5298 274.676 95.0657C271.902 95.2743 268.917 95.6663 266.129 96.0715C258.956 97.1697 251.757 98.6612 244.518 100.743C243.719 100.887 242.908 101.227 242.109 101.371C240.303 101.842 238.679 102.523 236.86 103.191C236.048 103.532 235.446 103.689 234.634 104.029C228.377 106.177 222.276 108.928 216.149 112.072C215.337 112.412 214.721 112.766 213.897 113.303C213.491 113.474 212.875 113.827 212.469 113.998C212.273 113.984 212.26 114.181 212.064 114.168C211.042 114.692 210.218 115.229 209.196 115.753C208.987 115.937 208.79 115.923 208.581 116.107C205.504 117.875 202.623 119.657 199.73 121.636C196.011 124.152 192.489 126.681 188.953 129.406C186.661 131.228 184.356 133.246 182.051 135.264C181.423 135.815 180.794 136.365 180.166 136.916C179.956 137.099 179.956 137.099 179.747 137.283C179.537 137.466 179.328 137.649 178.922 137.82L178.712 138.003C173.461 142.787 168.785 147.806 164.292 153.036C164.082 153.219 164.082 153.219 163.873 153.403C161.725 156.024 159.576 158.646 157.625 161.28C121.416 210.014 115.089 274.783 140.415 329.235C141.957 332.697 143.696 336.172 145.63 339.661C147.212 342.533 148.794 345.405 150.768 348.304C154.677 354.691 159.201 360.725 164.131 366.588C164.118 366.784 164.314 366.798 164.497 367.007C165.047 367.637 165.596 368.267 166.145 368.896C167.793 370.785 169.441 372.674 171.102 374.366C173.678 377.108 176.451 379.862 179.25 382.224C186.313 388.626 193.808 394.464 201.749 399.541C257.584 434.313 329.791 433.834 385.022 395.467ZM173.616 240.194C175.377 228.657 179.089 217.448 184.135 206.921C187.346 200.223 191.316 193.97 195.666 187.941C197.618 185.306 199.766 182.685 202.11 180.076C204.245 177.652 206.367 175.424 208.895 173.025C210.165 171.728 211.423 170.627 212.889 169.343C217.08 165.673 221.65 162.227 226.18 159.37C227.424 158.466 228.865 157.575 230.292 156.881C232.753 155.466 235.215 154.051 237.663 152.833C244.812 149.165 252.3 146.31 259.932 144.255C265.757 142.671 271.752 141.493 277.707 140.906C279.095 140.802 280.286 140.684 281.673 140.58C287.026 140.15 292.353 140.113 297.863 140.286C302.575 140.602 307.273 141.116 311.958 141.826C312.743 141.879 313.711 142.141 314.483 142.391C315.452 142.654 316.63 142.733 317.598 142.995C318.383 143.048 319.155 143.298 319.927 143.547C323.617 144.388 327.281 145.622 330.749 146.843L330.945 146.856C337.88 149.298 344.579 152.317 350.832 156.096C351.787 156.555 352.729 157.211 353.671 157.867C355.372 158.969 357.072 160.072 358.577 161.161C362.161 163.575 365.719 166.382 369.081 169.177C373.175 172.81 377.256 176.641 380.917 180.838C382.016 182.097 382.918 183.343 384.017 184.603C386.017 187.108 388.005 189.81 389.809 192.302C410.271 222.324 415.298 259.013 405.76 292.352C405.248 294.096 404.736 295.839 404.015 297.766C397.589 317.09 385.941 334.878 369.598 349.189C366.455 351.941 363.325 354.496 360.012 356.842C357.524 358.65 355.049 360.262 352.378 361.86C349.903 363.472 347.246 364.873 344.601 366.079C342.964 366.956 341.341 367.637 339.718 368.318C338.696 368.842 337.688 369.17 336.471 369.681C333.826 370.886 330.999 371.881 328.38 372.693C327.176 373.007 325.959 373.518 324.754 373.832C324.348 374.002 324.152 373.989 323.746 374.159C323.34 374.329 323.144 374.316 322.738 374.486C320.932 374.958 318.929 375.416 317.123 375.887C315.316 376.358 313.327 376.62 311.52 377.091C302.541 378.66 293.235 379.22 284.205 378.613C283.419 378.56 282.634 378.507 281.849 378.454C272.819 377.847 263.671 376.047 254.983 373.289C253.243 372.777 251.319 372.055 249.592 371.346C247.865 370.637 245.942 369.915 244.214 369.207C243.835 368.984 243.639 368.97 243.259 368.747L242.304 368.288C241.153 367.815 240.001 367.343 238.863 366.674C236.194 365.309 233.721 363.957 231.249 362.606C230.307 361.95 229.352 361.49 228.214 360.821C226.696 359.929 225.192 358.84 223.674 357.947C221.228 356.203 218.978 354.471 216.532 352.726C214.295 350.797 211.862 348.856 209.639 346.731C206.669 343.963 203.91 341.011 201.164 337.863C195.488 331.357 190.82 324.524 186.768 317.337C183.069 310.766 180.168 304.052 177.882 296.983C174.095 285.863 172.113 274.271 171.912 262.602C171.821 261.015 171.914 259.638 171.823 258.052C171.918 253.712 172.222 249.188 172.723 244.678C173.221 243.131 173.314 241.754 173.616 240.194Z" fill="url(#paint17_linear_7106_37675)"></path><path d="M333.588 392.008C339.034 390.201 344.493 388.198 349.782 385.787C351.615 384.923 353.251 384.045 354.888 383.167C358.763 381.255 362.665 378.949 366.371 376.63C369.251 374.848 372.145 372.869 374.856 370.681C377.553 368.689 380.068 366.487 382.582 364.286C382.792 364.102 383.001 363.919 383.211 363.735C397.668 351.076 408.738 336.015 416.55 319.55C417.245 318.016 417.939 316.483 418.634 314.949C435.217 276.552 434.083 231.827 413.954 193.925C412.555 191.263 411.144 188.797 409.535 186.318C406.709 181.69 403.526 177.211 400.149 172.892C399.69 172.304 399.212 171.731 398.722 171.169V171.169C397.82 169.923 396.905 168.874 395.806 167.615C394.707 166.355 393.426 164.886 392.131 163.614C391.948 163.404 391.948 163.404 391.765 163.194C387.894 159.18 384.009 155.363 379.706 151.913C376.161 148.908 372.59 146.297 368.822 143.673V143.673C368.005 143.193 367.305 142.532 366.507 142.021C365.882 141.622 365.243 141.222 364.675 140.826C362.961 139.921 361.457 138.832 359.743 137.926V137.926C359.134 137.569 358.473 137.278 357.857 136.932C356.592 136.221 355.25 135.53 354.026 134.974C352.312 134.068 350.585 133.359 349.067 132.467C347.24 131.588 345.413 130.71 343.402 129.992C343.22 129.926 343.026 129.886 342.859 129.788V129.788C342.667 129.676 342.446 129.617 342.238 129.536C338.849 128.215 335.608 127.075 332.2 126.095C331.905 126.011 331.531 125.95 331.241 125.848V125.848C330.9 125.728 330.614 125.649 330.268 125.541C326.562 124.381 322.662 123.553 318.762 122.725C317.205 122.422 315.451 122.107 313.698 121.791C311.355 121.436 308.817 121.068 306.461 120.91C304.89 120.804 303.137 120.489 301.37 120.37C300.388 120.304 299.603 120.251 298.818 120.198C296.462 120.04 294.29 120.091 291.934 119.933C289.565 119.971 287 119.996 284.631 120.035V120.035C283.967 119.99 283.275 120.183 282.611 120.222C274.638 120.695 266.632 121.885 258.95 123.642C248.53 126.102 238.424 129.769 228.827 134.655C225.973 136.044 223.092 137.826 220.225 139.411C219.267 139.903 218.297 140.567 217.338 141.08C217.214 141.146 217.067 141.161 216.945 141.231V141.231C216.729 141.354 216.604 141.625 216.394 141.757C210.549 145.45 205.052 149.55 199.706 154.231C198.448 155.332 196.982 156.617 195.711 157.914C193.184 160.312 190.852 162.724 188.521 165.135C187.892 165.686 187.46 166.249 186.818 166.997C185.548 168.294 184.461 169.801 183.177 171.296C181.269 173.517 179.54 175.944 177.813 178.374C177.783 178.417 177.769 178.4 177.766 178.452V178.452C177.761 178.527 177.72 178.662 177.671 178.719C177.569 178.838 177.524 178.961 177.432 179.081C177.366 179.167 177.29 179.244 177.228 179.332C170.288 189.297 164.659 200.13 160.573 211.263C155.983 223.796 153.134 236.841 152.248 250.018C151.362 263.195 152.439 276.504 155.296 289.735C157.83 301.203 161.904 312.583 167.368 323.296C167.52 323.595 167.589 323.921 167.798 324.184V324.184C167.886 324.295 167.988 324.433 168.055 324.558C170.302 328.792 172.752 332.849 175.393 336.92C178.609 341.878 182.427 346.679 186.455 351.296C191.032 356.543 195.832 361.409 200.868 365.699C204.23 368.493 207.788 371.301 211.372 373.715C212.877 374.804 214.577 375.906 216.082 376.995C221.001 380.092 225.933 382.992 231.297 385.328C263.221 400.316 299.931 402.784 333.588 392.008ZM249.604 371.149C248.199 370.572 246.663 369.987 245.21 369.407C244.554 369.145 243.88 368.908 243.271 368.55V368.55V368.55C242.662 368.192 241.986 367.96 241.336 367.684C240.512 367.334 239.69 366.956 238.875 366.477C236.206 365.112 233.733 363.76 231.261 362.408C230.319 361.752 229.364 361.293 228.225 360.624C226.708 359.732 225.204 358.643 223.686 357.75C221.24 356.005 218.99 354.274 216.544 352.529C214.307 350.6 211.874 348.659 209.65 346.534C206.681 343.766 203.922 340.814 201.176 337.666C195.5 331.16 190.832 324.327 186.78 317.14C183.081 310.569 180.18 303.855 177.894 296.786C174.106 285.666 172.125 274.074 171.924 262.404C171.833 260.818 171.926 259.441 171.835 257.855C171.93 253.515 172.234 248.991 172.734 244.481C172.84 242.908 173.129 241.544 173.431 239.984C175.193 228.446 178.905 217.237 183.951 206.711C187.162 200.012 191.132 193.76 195.481 187.73C197.433 185.096 199.581 182.474 201.926 179.866C204.061 177.441 206.183 175.213 208.71 172.815C209.981 171.517 211.238 170.417 212.705 169.132C216.895 165.463 221.466 162.016 225.996 159.16C227.24 158.256 228.68 157.365 230.107 156.671C232.569 155.256 235.03 153.841 237.479 152.622C244.627 148.954 252.115 146.099 259.747 144.044C265.572 142.46 271.567 141.283 277.523 140.696C278.91 140.591 280.101 140.474 281.489 140.37C286.842 139.939 292.169 139.902 297.679 140.075C302.39 140.392 307.088 140.905 311.773 141.616C312.559 141.668 313.527 141.931 314.299 142.181C314.649 142.276 315.028 142.347 315.413 142.411C316.749 142.634 318.105 142.816 319.396 143.225C319.512 143.262 319.627 143.299 319.743 143.337C323.4 144.17 327.031 145.39 330.471 146.6C330.533 146.622 330.597 146.635 330.662 146.639V146.639C330.727 146.644 330.792 146.657 330.853 146.679C337.755 149.115 344.422 152.123 350.648 155.886C351.603 156.345 352.545 157.001 353.487 157.657C355.187 158.759 356.888 159.861 358.392 160.95C361.977 163.364 365.535 166.172 368.896 168.966C372.99 172.6 377.071 176.43 380.733 180.628C381.831 181.887 382.734 183.133 383.832 184.392C385.833 186.898 387.82 189.599 389.625 192.092C410.087 222.114 415.113 258.803 405.575 292.142C405.063 293.885 404.552 295.629 403.831 297.556C397.404 316.88 385.757 334.667 369.413 348.978C366.27 351.73 363.14 354.286 359.827 356.631C357.339 358.44 354.865 360.051 352.194 361.65C349.719 363.261 347.061 364.663 344.417 365.868C342.78 366.746 341.157 367.427 339.533 368.108C338.512 368.632 337.504 368.959 336.286 369.47C333.642 370.675 330.814 371.671 328.196 372.482C327.33 372.708 326.457 373.036 325.587 373.319C324.915 373.538 324.213 373.676 323.562 373.949V373.949V373.949C322.911 374.222 322.211 374.367 321.526 374.538C320.008 374.919 318.408 375.293 316.938 375.677C315.132 376.148 313.142 376.409 311.336 376.88C302.356 378.45 293.05 379.009 284.02 378.402C283.235 378.349 282.45 378.297 281.664 378.244C272.634 377.637 263.487 375.836 254.798 373.079C253.268 372.383 251.527 371.871 249.604 371.149Z" fill="url(#paint18_linear_7106_37675)"></path><path d="M94.3266 473.979L87.5646 466.227L59.1641 433.672L52.4021 425.921C49.0211 422.045 49.4241 416.052 53.3057 412.483C56.5947 409.603 61.3441 409.375 64.8228 411.798C65.5234 412.21 66.0306 412.791 66.5377 413.372L108.293 461.237C108.8 461.818 109.295 462.581 109.621 463.15C110.417 464.845 110.827 466.879 110.524 468.683C110.463 469.591 110.22 470.487 109.797 471.37C109.349 472.617 108.55 473.658 107.402 474.493C106.821 475.001 106.241 475.509 105.491 475.824C104.549 476.308 103.618 476.61 102.699 476.731C99.7381 477.444 96.5364 476.316 94.3266 473.979Z" fill="url(#paint19_linear_7106_37675)"></path></g><defs><filter id="filter0_dd_7106_37675" x="38.5859" y="131.526" width="502.7" height="314.015" color-interpolation-filters="sRGB"><feFlood flood-opacity="0" result="BackgroundImageFix"></feFlood><feColorMatrix in="SourceAlpha" type="matrix" values="0 0 0 0 0 0 0 0 0 0 0 0 0 0 0 0 0 0 127 0" result="hardAlpha"></feColorMatrix><feOffset dy="24.4067"></feOffset><feGaussianBlur stdDeviation="16.2711"></feGaussianBlur><feColorMatrix type="matrix" values="0 0 0 0 0.137255 0 0 0 0 0.266667 0 0 0 0 0.396078 0 0 0 0.15 0"></feColorMatrix><feBlend mode="normal" in2="BackgroundImageFix" result="effect1_dropShadow_7106_37675"></feBlend><feColorMatrix in="SourceAlpha" type="matrix" values="0 0 0 0 0 0 0 0 0 0 0 0 0 0 0 0 0 0 127 0" result="hardAlpha"></feColorMatrix><feOffset dy="24.4067"></feOffset><feGaussianBlur stdDeviation="48.8134"></feGaussianBlur><feColorMatrix type="matrix" values="0 0 0 0 0.137255 0 0 0 0 0.266667 0 0 0 0 0.396078 0 0 0 0.15 0"></feColorMatrix><feBlend mode="normal" in2="effect1_dropShadow_7106_37675" result="effect2_dropShadow_7106_37675"></feBlend><feBlend mode="normal" in="SourceGraphic" in2="effect2_dropShadow_7106_37675" result="shape"></feBlend></filter><linearGradient id="paint0_linear_7106_37675" x1="24068.8" y1="64780.7" x2="21604.1" y2="70539.2" gradientUnits="userSpaceOnUse"><stop stop-color="#E99E00" stop-opacity="0.7"></stop><stop offset="1" stop-color="#D07800"></stop></linearGradient><linearGradient id="paint1_linear_7106_37675" x1="38854.5" y1="56064.2" x2="42296.8" y2="60465.3" gradientUnits="userSpaceOnUse"><stop stop-color="#E99E00" stop-opacity="0.7"></stop><stop offset="1" stop-color="#D07800"></stop></linearGradient><linearGradient id="paint2_linear_7106_37675" x1="287.14" y1="150.534" x2="322.544" y2="195.798" gradientUnits="userSpaceOnUse"><stop stop-color="#EA9F00" stop-opacity="0"></stop><stop offset="0.9989" stop-color="#EA9F00"></stop></linearGradient><linearGradient id="paint3_linear_7106_37675" x1="-30332.5" y1="-32368.1" x2="-30320.6" y2="-36420.9" gradientUnits="userSpaceOnUse"><stop stop-color="#E99E00" stop-opacity="0.7"></stop><stop offset="1" stop-color="#D07800"></stop></linearGradient><linearGradient id="paint4_linear_7106_37675" x1="-36934.4" y1="-23438.5" x2="-40097.3" y2="-25189.2" gradientUnits="userSpaceOnUse"><stop stop-color="#E99E00" stop-opacity="0.7"></stop><stop offset="1" stop-color="#D07800"></stop></linearGradient><linearGradient id="paint5_linear_7106_37675" x1="172.259" y1="110.144" x2="139.729" y2="92.138" gradientUnits="userSpaceOnUse"><stop stop-color="#EA9F00" stop-opacity="0"></stop><stop offset="0.9989" stop-color="#EA9F00"></stop></linearGradient><linearGradient id="paint6_linear_7106_37675" x1="-36279.6" y1="9251.43" x2="-36832.5" y2="9969.26" gradientUnits="userSpaceOnUse"><stop stop-color="#E99E00" stop-opacity="0.7"></stop><stop offset="1" stop-color="#D07800"></stop></linearGradient><linearGradient id="paint7_linear_7106_37675" x1="-22098.8" y1="22663.9" x2="-22728.9" y2="23482.1" gradientUnits="userSpaceOnUse"><stop stop-color="#E99E00" stop-opacity="0.7"></stop><stop offset="1" stop-color="#D07800"></stop></linearGradient><linearGradient id="paint8_linear_7106_37675" x1="-31998.5" y1="7636.39" x2="-30678.7" y2="7384.15" gradientUnits="userSpaceOnUse"><stop stop-color="#EA9F00" stop-opacity="0"></stop><stop offset="1" stop-color="#EA9F00"></stop></linearGradient><linearGradient id="paint9_linear_7106_37675" x1="8976.7" y1="26112.1" x2="9526.19" y2="26475.7" gradientUnits="userSpaceOnUse"><stop stop-color="#E99E00" stop-opacity="0.7"></stop><stop offset="1" stop-color="#D07800"></stop></linearGradient><linearGradient id="paint10_linear_7106_37675" x1="17967.5" y1="15127" x2="18593.8" y2="15541.5" gradientUnits="userSpaceOnUse"><stop stop-color="#E99E00" stop-opacity="0.7"></stop><stop offset="1" stop-color="#D07800"></stop></linearGradient><linearGradient id="paint11_linear_7106_37675" x1="7582.23" y1="23090.7" x2="7330.54" y2="22146.5" gradientUnits="userSpaceOnUse"><stop stop-color="#EA9F00" stop-opacity="0"></stop><stop offset="1" stop-color="#EA9F00"></stop></linearGradient><linearGradient id="paint12_linear_7106_37675" x1="443.659" y1="350.897" x2="460.879" y2="523.98" gradientUnits="userSpaceOnUse"><stop stop-color="white"></stop><stop offset="1" stop-color="#7A9CBF"></stop></linearGradient><linearGradient id="paint13_linear_7106_37675" x1="110.042" y1="402.834" x2="96.8762" y2="467.831" gradientUnits="userSpaceOnUse"><stop stop-color="#0C227B"></stop><stop offset="1" stop-color="#015CBE"></stop></linearGradient><linearGradient id="paint14_linear_7106_37675" x1="82.847" y1="432.58" x2="51.9915" y2="480.104" gradientUnits="userSpaceOnUse"><stop stop-color="#EDF5FF"></stop><stop offset="1" stop-color="#D5E8FE"></stop></linearGradient><linearGradient id="paint15_linear_7106_37675" x1="102.333" y1="448.822" x2="217.727" y2="279.099" gradientUnits="userSpaceOnUse"><stop stop-color="#0C227B" stop-opacity="0"></stop><stop offset="0.294" stop-color="#0C1F72" stop-opacity="0.294"></stop><stop offset="0.779" stop-color="#0C1959" stop-opacity="0.779"></stop><stop offset="1" stop-color="#0C154B"></stop></linearGradient><linearGradient id="paint16_linear_7106_37675" x1="195.024" y1="252.89" x2="428.761" y2="268.606" gradientUnits="userSpaceOnUse"><stop stop-color="white" stop-opacity="0"></stop><stop offset="1" stop-color="white"></stop></linearGradient><linearGradient id="paint17_linear_7106_37675" x1="369.601" y1="304.51" x2="290.002" y2="112.219" gradientUnits="userSpaceOnUse"><stop stop-color="#0B82E3"></stop><stop offset="1" stop-color="#015CBE"></stop></linearGradient><linearGradient id="paint18_linear_7106_37675" x1="150.823" y1="271.219" x2="406.954" y2="189.522" gradientUnits="userSpaceOnUse"><stop stop-color="#0C227B"></stop><stop offset="1" stop-color="#015CBE"></stop></linearGradient><linearGradient id="paint19_linear_7106_37675" x1="85.7628" y1="406.713" x2="80.2654" y2="445.383" gradientUnits="userSpaceOnUse"><stop stop-color="#EDF5FF"></stop><stop offset="1" stop-color="#D5E8FE"></stop></linearGradient><clipPath id="clip0_7106_37675"><rect width="512" height="512" fill="white" transform="translate(0.802979 0.329102)"></rect></clipPath><clipPath id="clip1_7106_37675"><rect width="194.437" height="70.7449" fill="white" transform="translate(192.717 228.753)"></rect></clipPath></defs></svg> 