<?xml version="1.0" encoding="UTF-8"?> <svg xmlns="http://www.w3.org/2000/svg" width="129" height="129" viewBox="0 0 129 129" fill="none"><circle cx="68.502" cy="75.5867" r="20.6104" fill="#F9C900"></circle><path fill-rule="evenodd" clip-rule="evenodd" d="M14.3291 60.0532C13.2245 60.0532 12.3291 60.9487 12.3291 62.0532C12.3291 63.1578 13.2245 64.0532 14.3291 64.0532L34.9347 64.0532C36.0393 64.0532 36.9347 63.1578 36.9347 62.0532C36.9347 60.9487 36.0393 60.0532 34.9347 60.0532L14.3291 60.0532ZM4.5 67.6457C3.39543 67.6457 2.5 68.5411 2.5 69.6457C2.5 70.7503 3.39543 71.6457 4.5 71.6457H31.7899C32.8945 71.6457 33.7899 70.7503 33.7899 69.6457C33.7899 68.5411 32.8945 67.6457 31.7899 67.6457H4.5ZM8.75002 77.7111C8.75002 76.6065 9.64545 75.7111 10.75 75.7111L31.3557 75.7111C32.4602 75.7111 33.3557 76.6065 33.3557 77.7111C33.3557 78.8157 32.4602 79.7111 31.3557 79.7111L10.75 79.7111C9.64545 79.7111 8.75002 78.8157 8.75002 77.7111ZM20.145 84.2117C19.0404 84.2117 18.145 85.1071 18.145 86.2117C18.145 87.3162 19.0404 88.2117 20.145 88.2117L40.7506 88.2117C41.8552 88.2117 42.7506 87.3162 42.7506 86.2117C42.7506 85.1071 41.8552 84.2117 40.7506 84.2117L20.145 84.2117Z" fill="url(#paint0_linear_2368_21243)"></path><path fill-rule="evenodd" clip-rule="evenodd" d="M67.6262 22C56.9601 22 47.241 25.5231 41.4912 28.4015C40.9717 28.6613 40.4876 28.9163 40.0366 29.1618C39.1441 29.6483 38.3837 30.1016 37.7792 30.5007L44.32 40.1301L47.3992 41.3556C59.4324 47.4266 75.5696 47.4266 87.6052 41.3556L91.0999 39.5422L97.2866 30.5007C96.0049 29.6648 94.6721 28.91 93.2959 28.2409C87.5768 25.3932 78.0915 22 67.6262 22ZM52.4122 32.8998C50.0961 32.4664 47.8085 31.8923 45.5621 31.1808C50.9482 28.7888 58.9767 26.2504 67.6238 26.2504C73.6144 26.2504 79.2792 27.4688 83.964 29.0131C78.474 29.7852 72.6156 31.0958 67.0335 32.7085C62.6414 33.9789 57.508 33.842 52.4122 32.8998V32.8998ZM90.0987 44.8575L89.5202 45.1503C76.2804 51.828 58.7217 51.828 45.4818 45.1503L44.934 44.8716C25.047 66.6925 9.86384 107 67.6262 107C125.384 107 109.83 65.9392 90.0987 44.8575ZM65.1704 64.5035C63.9179 64.5035 62.7167 65.0011 61.831 65.8868C60.9453 66.7724 60.4478 67.9736 60.4478 69.2262C60.4478 70.4787 60.9453 71.6799 61.831 72.5655C62.7167 73.4512 63.9179 73.9488 65.1704 73.9488V64.5035ZM69.893 59.7809V57.4196H65.1704V59.7809C62.6654 59.7809 60.2629 60.776 58.4916 62.5474C56.7203 64.3187 55.7252 66.7211 55.7252 69.2262C55.7252 71.7312 56.7203 74.1336 58.4916 75.9049C60.2629 77.6763 62.6654 78.6714 65.1704 78.6714V88.1166C63.1161 88.1166 61.3663 86.8061 60.717 84.969C60.5084 84.3784 60.0738 83.8949 59.5088 83.6248C58.9437 83.3547 58.2945 83.3201 57.7039 83.5286C57.1134 83.7371 56.6299 84.1717 56.3597 84.7368C56.0896 85.3018 56.055 85.9511 56.2635 86.5416C56.9149 88.3834 58.1212 89.978 59.7163 91.1058C61.3114 92.2336 63.2169 92.8392 65.1704 92.8392V95.2005H69.893V92.8392C72.398 92.8392 74.8005 91.8441 76.5718 90.0728C78.3431 88.3015 79.3382 85.899 79.3382 83.394C79.3382 80.889 78.3431 78.4865 76.5718 76.7152C74.8005 74.9439 72.398 73.9488 69.893 73.9488V64.5035C71.9474 64.5035 73.6971 65.8141 74.3488 67.6512C74.4455 67.9517 74.6015 68.2298 74.8075 68.4691C75.0136 68.7083 75.2655 68.9038 75.5484 69.0439C75.8314 69.1841 76.1395 69.2661 76.4547 69.285C76.7698 69.304 77.0856 69.2596 77.3833 69.1544C77.681 69.0493 77.9546 68.8854 78.1878 68.6727C78.4211 68.4599 78.6094 68.2026 78.7414 67.9158C78.8735 67.629 78.9467 67.3186 78.9568 67.0031C78.9668 66.6875 78.9134 66.3731 78.7999 66.0785C78.1485 64.2368 76.9423 62.6422 75.3472 61.5144C73.7521 60.3866 71.8466 59.781 69.893 59.7809ZM69.893 78.6714V88.1166C71.1455 88.1166 72.3467 87.6191 73.2324 86.7334C74.1181 85.8477 74.6156 84.6465 74.6156 83.394C74.6156 82.1415 74.1181 80.9403 73.2324 80.0546C72.3467 79.1689 71.1455 78.6714 69.893 78.6714Z" fill="url(#paint1_linear_2368_21243)"></path><path d="M109.751 40.384V42.8749C109.751 44.0794 108.914 45.0553 107.88 45.0553H107.836C106.802 45.0553 105.965 44.0794 105.965 42.8749V40.384C105.965 39.8278 106.145 39.3194 106.441 38.9338C106.516 38.8349 106.601 38.7427 106.693 38.6609C106.873 38.5005 107.081 38.3742 107.302 38.2957C107.384 38.2685 107.469 38.2446 107.554 38.2309C107.645 38.2139 107.741 38.207 107.836 38.207H107.88C107.975 38.207 108.071 38.2173 108.163 38.2309C108.248 38.2446 108.333 38.2685 108.414 38.2957C108.639 38.3742 108.843 38.4971 109.023 38.6609C109.115 38.7427 109.2 38.8349 109.275 38.9338C109.574 39.3194 109.751 39.8278 109.751 40.384Z" fill="#C5E5FC"></path><path d="M110.125 40.8654H105.59C104.825 40.8654 104.206 40.2444 104.206 39.4766V38.5997C104.206 37.832 104.825 37.2109 105.59 37.2109H110.122C110.888 37.2109 111.507 37.832 111.507 38.5997V39.48C111.507 40.2444 110.888 40.8654 110.125 40.8654Z" fill="url(#paint2_linear_2368_21243)"></path><path d="M105.828 39.8729C105.828 39.9412 105.771 39.9992 105.703 39.9992C105.634 39.9992 105.577 39.9412 105.577 39.8729V38.2078C105.577 38.1395 105.634 38.0815 105.703 38.0815C105.771 38.0815 105.828 38.1395 105.828 38.2078V39.8729Z" fill="#014CAF"></path><path d="M106.567 39.9992C106.495 39.9992 106.441 39.9446 106.441 39.8729V38.2044C106.441 38.1361 106.495 38.0781 106.567 38.0781H106.57C106.638 38.0781 106.696 38.1327 106.696 38.2044V39.8729C106.692 39.9412 106.635 39.9992 106.567 39.9992Z" fill="#014CAF"></path><path d="M107.427 39.9992C107.356 39.9992 107.302 39.9446 107.302 39.8729V38.2044C107.302 38.1361 107.356 38.0781 107.427 38.0781H107.431C107.499 38.0781 107.557 38.1327 107.557 38.2044V39.8729C107.553 39.9412 107.499 39.9992 107.427 39.9992Z" fill="#014CAF"></path><path d="M108.291 39.9992C108.22 39.9992 108.165 39.9446 108.165 39.8729V38.2044C108.165 38.1361 108.22 38.0781 108.291 38.0781H108.295C108.363 38.0781 108.42 38.1327 108.42 38.2044V39.8729C108.414 39.9412 108.359 39.9992 108.291 39.9992Z" fill="#014CAF"></path><path d="M109.152 39.9992C109.08 39.9992 109.026 39.9446 109.026 39.8729V38.2044C109.026 38.1361 109.08 38.0781 109.152 38.0781H109.155C109.223 38.0781 109.281 38.1327 109.281 38.2044V39.8729C109.278 39.9412 109.22 39.9992 109.152 39.9992Z" fill="#014CAF"></path><path d="M110.013 39.9992C109.941 39.9992 109.887 39.9446 109.887 39.8729V38.2044C109.887 38.1361 109.941 38.0781 110.013 38.0781H110.016C110.084 38.0781 110.142 38.1327 110.142 38.2044V39.8729C110.138 39.9412 110.084 39.9992 110.013 39.9992Z" fill="#014CAF"></path><path opacity="0.5" d="M109.751 41.7291V42.7971L105.961 42.8721V42.0498C105.961 42.0498 109.241 41.654 109.574 41.7018C109.642 41.712 109.7 41.7222 109.751 41.7291Z" fill="url(#paint3_linear_2368_21243)"></path><path d="M117.437 43.4748L116.732 44.8806C116.392 45.5597 115.644 45.8736 115.058 45.5801L115.035 45.5665C114.449 45.273 114.252 44.4814 114.592 43.8024L115.297 42.3966C115.453 42.0827 115.698 41.8438 115.977 41.7107C116.048 41.6766 116.123 41.6493 116.198 41.6288C116.344 41.5879 116.498 41.5777 116.644 41.5981C116.698 41.605 116.753 41.6152 116.804 41.6322C116.862 41.6493 116.916 41.6698 116.97 41.6971L116.994 41.7107C117.049 41.738 117.1 41.7687 117.147 41.8063C117.192 41.8404 117.232 41.8745 117.27 41.9155C117.375 42.0212 117.457 42.1509 117.511 42.2942C117.539 42.3659 117.562 42.4409 117.576 42.5194C117.634 42.8231 117.593 43.1609 117.437 43.4748Z" fill="#C5E5FC"></path><path d="M117.511 43.8534L114.949 42.5636C114.517 42.3453 114.344 41.8198 114.561 41.3864L114.81 40.8883C115.028 40.4549 115.552 40.2809 115.984 40.4993L118.545 41.7891C118.977 42.0074 119.151 42.5329 118.933 42.9663L118.685 43.4644C118.467 43.8944 117.94 44.0718 117.511 43.8534Z" fill="url(#paint4_linear_2368_21243)"></path><path d="M115.365 42.0689C115.344 42.1099 115.297 42.1235 115.259 42.103C115.218 42.0826 115.205 42.0348 115.225 41.9972L115.695 41.0555C115.715 41.0145 115.763 41.0009 115.8 41.0214C115.841 41.0418 115.855 41.0896 115.834 41.1271L115.365 42.0689Z" fill="#014CAF"></path><path d="M115.746 42.3521C115.705 42.3317 115.688 42.2839 115.708 42.2464L116.181 41.3046C116.201 41.2671 116.249 41.25 116.286 41.2705C116.324 41.291 116.341 41.3387 116.32 41.3763L115.848 42.318C115.831 42.3555 115.783 42.3692 115.746 42.3521Z" fill="#014CAF"></path><path d="M116.232 42.5955C116.191 42.5751 116.174 42.5273 116.195 42.4898L116.668 41.548C116.688 41.5105 116.736 41.4934 116.773 41.5139C116.81 41.5344 116.827 41.5821 116.807 41.6197L116.334 42.5614C116.317 42.6024 116.273 42.616 116.232 42.5955Z" fill="#014CAF"></path><path d="M116.718 42.8399C116.678 42.8195 116.661 42.7717 116.681 42.7341L117.154 41.7924C117.174 41.7549 117.222 41.7378 117.259 41.7583C117.297 41.7787 117.314 41.8265 117.293 41.864L116.82 42.8058C116.807 42.8433 116.759 42.8604 116.718 42.8399Z" fill="#014CAF"></path><path d="M117.205 43.0865C117.164 43.066 117.147 43.0183 117.168 42.9807L117.64 42.039C117.661 42.0014 117.709 41.9844 117.746 42.0049C117.783 42.0253 117.8 42.0731 117.78 42.1106L117.307 43.0524C117.293 43.0899 117.246 43.107 117.205 43.0865Z" fill="#014CAF"></path><path d="M117.692 43.3309C117.651 43.3104 117.634 43.2627 117.654 43.2251L118.127 42.2834C118.148 42.2458 118.195 42.2288 118.233 42.2492C118.27 42.2697 118.287 42.3175 118.267 42.355L117.794 43.2968C117.78 43.3343 117.733 43.3514 117.692 43.3309Z" fill="#014CAF"></path><path opacity="0.5" d="M117.055 44.2368L116.752 44.8407L114.592 43.8068L114.827 43.3394C114.827 43.3394 116.79 44.0491 116.967 44.1719C116.997 44.1924 117.028 44.2163 117.055 44.2368Z" fill="url(#paint5_linear_2368_21243)"></path><path d="M125.962 60.3113C125.962 67.8761 121.305 74.3524 114.711 76.9968C113.8 77.3619 112.85 77.6554 111.871 77.8703C110.731 78.116 109.55 78.2559 108.343 78.273C108.251 78.2764 108.162 78.2764 108.067 78.2764C107.72 78.2764 107.37 78.2661 107.026 78.2457C104.495 78.1023 102.107 77.4267 99.9667 76.3314C99.8647 76.2802 99.7592 76.2291 99.6606 76.1711C98.7862 75.707 97.9561 75.1679 97.1804 74.5673C97.0205 74.4445 96.8606 74.3182 96.7041 74.1886C95.8672 73.4959 95.0915 72.7282 94.3907 71.8956C94.1798 71.6465 93.9757 71.3906 93.7783 71.1279C91.5125 68.1183 90.1721 64.3718 90.1721 60.3113C90.1721 51.1018 97.0716 43.5132 105.965 42.469C106.655 42.3871 107.356 42.3462 108.067 42.3462C108.401 42.3462 108.734 42.353 109.061 42.3735C109.292 42.3871 109.523 42.4042 109.755 42.4247C110.105 42.4588 110.452 42.4997 110.796 42.5543C111.5 42.6635 112.194 42.8102 112.867 43.0013C113.024 43.0457 113.177 43.09 113.33 43.1378C113.357 43.1446 113.388 43.1549 113.415 43.1651C113.446 43.1753 113.473 43.1822 113.504 43.1924C113.545 43.2061 113.589 43.2197 113.63 43.2334C113.755 43.2743 113.881 43.3152 114.004 43.3596C114.031 43.3698 114.055 43.3767 114.082 43.3869C114.147 43.4108 114.208 43.4313 114.273 43.4551C114.307 43.4688 114.344 43.4824 114.378 43.4961C114.429 43.5166 114.483 43.537 114.535 43.5575C114.565 43.5677 114.596 43.5814 114.623 43.5916C114.643 43.5985 114.664 43.6087 114.684 43.6155C114.691 43.6189 114.701 43.6223 114.708 43.6258C114.762 43.6462 114.813 43.6667 114.868 43.6906C115.235 43.8441 115.589 44.0079 115.943 44.1819C116.249 44.3321 116.549 44.489 116.845 44.6562C117.239 44.878 117.624 45.1169 118.001 45.3694C119.389 46.2975 120.638 47.4167 121.713 48.6894C122.584 49.7165 123.336 50.8425 123.958 52.047C124.727 53.5381 125.295 55.1521 125.629 56.8479C125.717 57.3086 125.792 57.776 125.843 58.2503C125.921 58.9259 125.962 59.6152 125.962 60.3113Z" fill="#0B2781"></path><path opacity="0.15" d="M114.871 43.6875L96.7071 74.1923C95.8701 73.4997 95.0945 72.7319 94.3936 71.8994C94.1827 71.6503 93.9786 71.3944 93.7812 71.1282L110.795 42.5547C111.499 42.6639 112.193 42.8106 112.867 43.0017C113.554 43.1894 114.221 43.4214 114.871 43.6875Z" fill="white"></path><path opacity="0.15" d="M123.958 52.0475L108.339 78.2768C108.248 78.2803 108.159 78.2803 108.064 78.2803C107.717 78.2803 107.366 78.27 107.023 78.2495C104.492 78.1062 102.103 77.4306 99.9634 76.3353C99.858 76.2841 99.7559 76.2295 99.6572 76.1749L118.001 45.3699C119.389 46.298 120.638 47.4172 121.713 48.6899C122.584 49.717 123.336 50.843 123.958 52.0475Z" fill="white"></path><path d="M108.067 75.7376C116.562 75.7376 123.448 68.831 123.448 60.3112C123.448 51.7914 116.562 44.8848 108.067 44.8848C99.5725 44.8848 92.6863 51.7914 92.6863 60.3112C92.6863 68.831 99.5725 75.7376 108.067 75.7376Z" fill="url(#paint6_linear_2368_21243)"></path><path d="M122.258 60.3115C122.258 68.2482 115.845 74.6802 107.931 74.6802C107.404 74.6802 106.884 74.6495 106.373 74.5915C106.081 74.5608 105.792 74.5232 105.506 74.472C103.117 74.066 100.93 73.0628 99.0996 71.6263C98.9499 71.5103 98.8036 71.3874 98.6573 71.2646C97.9599 70.6709 97.3169 70.0055 96.7385 69.2855C96.7283 69.2719 96.7181 69.2617 96.7045 69.2446C95.8098 68.1118 95.0817 66.8458 94.5578 65.4741C94.534 65.4093 94.5068 65.3479 94.4864 65.2831C93.9148 63.7374 93.6018 62.0586 93.6018 60.3115C93.6018 53.7431 97.9905 48.2086 103.992 46.4888C104.618 46.3114 105.261 46.1715 105.921 46.0828C106.577 45.9872 107.244 45.9429 107.928 45.9429C108.047 45.9429 108.166 45.9429 108.282 45.9463C109.037 45.9633 109.775 46.0418 110.5 46.1749C110.881 46.2431 111.252 46.3284 111.619 46.424C112.14 46.5605 112.65 46.7277 113.147 46.929C114.865 47.5978 116.423 48.5941 117.743 49.8396C118.485 50.5357 119.152 51.317 119.73 52.1598C121.322 54.4767 122.258 57.2849 122.258 60.3115Z" fill="#E5F3FE"></path><path d="M122.258 60.3115C122.258 68.2482 115.845 74.6802 107.931 74.6802C107.404 74.6802 106.884 74.6495 106.373 74.5915C106.081 74.5642 105.792 74.5232 105.506 74.472C103.117 74.066 100.933 73.0628 99.0996 71.6263C98.9499 71.5103 98.8036 71.3874 98.6573 71.2646C97.9599 70.6675 97.3169 70.0055 96.7385 69.2855C96.7283 69.2719 96.7181 69.2617 96.7045 69.2446C95.8098 68.1118 95.0817 66.8458 94.5578 65.4741C94.5306 65.4093 94.5068 65.3479 94.4864 65.2831C93.9148 63.7374 93.6018 62.0586 93.6018 60.3115C93.6018 54.9408 96.5344 50.2627 100.882 47.7957L108.139 60.2706V45.9429C108.187 45.9429 108.238 45.9429 108.285 45.9463C109.041 45.9633 109.779 46.0418 110.503 46.1749C110.884 46.2431 111.255 46.3284 111.623 46.4274C112.143 46.5639 112.654 46.7311 113.15 46.9324C114.868 47.6012 116.423 48.5975 117.746 49.843C118.488 50.5391 119.155 51.3205 119.733 52.1633C121.322 54.4767 122.258 57.2849 122.258 60.3115Z" fill="#73C1FF"></path><path opacity="0.1" d="M110.503 46.1749L96.7344 69.2889C96.7242 69.2753 96.714 69.2651 96.7003 69.248C95.8056 68.1152 95.0775 66.8492 94.5536 65.4776C94.5298 65.4127 94.5026 65.3513 94.4822 65.2865L105.92 46.0828C106.577 45.9872 107.243 45.9429 107.927 45.9429C108.046 45.9429 108.165 45.9429 108.281 45.9463C109.04 45.9633 109.778 46.0418 110.503 46.1749Z" fill="white"></path><path opacity="0.1" d="M119.729 52.1596L106.369 74.5946C106.077 74.5639 105.788 74.5264 105.502 74.4752C103.113 74.0691 100.926 73.0659 99.0956 71.6294C98.9459 71.5134 98.7996 71.3906 98.6533 71.2677L113.146 46.9321C114.864 47.6009 116.422 48.5973 117.742 49.8427C118.484 50.5388 119.151 51.3168 119.729 52.1596Z" fill="white"></path><path d="M108.139 50.6857C107.829 50.6857 107.577 50.4332 107.577 50.1227V47.8706C107.577 47.5601 107.829 47.3076 108.139 47.3076C108.448 47.3076 108.7 47.5601 108.7 47.8706V50.1227C108.7 50.4332 108.448 50.6857 108.139 50.6857Z" fill="#033798"></path><path d="M101.389 53.49C101.171 53.7084 100.814 53.7084 100.596 53.49L99.0073 51.8966C98.7896 51.6782 98.7896 51.3199 99.0073 51.1015C99.225 50.8831 99.5823 50.8831 99.8 51.1015L101.389 52.695C101.61 52.9134 101.61 53.2683 101.389 53.49Z" fill="#033798"></path><path d="M98.5959 60.2608C98.5959 60.5713 98.3441 60.8238 98.0345 60.8238H95.7891C95.4795 60.8238 95.2278 60.5713 95.2278 60.2608C95.2278 59.9503 95.4795 59.6978 95.7891 59.6978H98.0345C98.3441 59.6978 98.5959 59.9468 98.5959 60.2608Z" fill="#033798"></path><path d="M101.389 67.0271C101.607 67.2454 101.607 67.6037 101.389 67.8221L99.8 69.4156C99.5822 69.634 99.225 69.634 99.0073 69.4156C98.7896 69.1972 98.7896 68.8389 99.0073 68.6205L100.596 67.0271C100.814 66.8087 101.171 66.8087 101.389 67.0271Z" fill="#033798"></path><path d="M108.139 69.8311C108.448 69.8311 108.7 70.0836 108.7 70.3941V72.6461C108.7 72.9566 108.448 73.2091 108.139 73.2091C107.829 73.2091 107.577 72.9566 107.577 72.6461V70.3941C107.577 70.0836 107.829 69.8311 108.139 69.8311Z" fill="#033798"></path><path d="M114.888 67.0271C115.106 66.8087 115.463 66.8087 115.681 67.0271L117.27 68.6205C117.487 68.8389 117.487 69.1972 117.27 69.4156C117.052 69.634 116.695 69.634 116.477 69.4156L114.888 67.8221C114.667 67.6037 114.667 67.2489 114.888 67.0271Z" fill="#033798"></path><path d="M117.685 60.2608C117.685 59.9503 117.937 59.6978 118.246 59.6978H120.492C120.801 59.6978 121.053 59.9503 121.053 60.2608C121.053 60.5713 120.801 60.8238 120.492 60.8238H118.246C117.933 60.8238 117.685 60.5713 117.685 60.2608Z" fill="#033798"></path><path d="M114.888 53.49C114.67 53.2717 114.67 52.9134 114.888 52.695L116.477 51.1015C116.695 50.8831 117.052 50.8831 117.27 51.1015C117.487 51.3199 117.487 51.6782 117.27 51.8966L115.681 53.49C115.463 53.7084 115.106 53.7084 114.888 53.49Z" fill="#033798"></path><path opacity="0.67" d="M107.901 63.1818C109.143 63.1818 110.15 62.172 110.15 60.9263C110.15 59.6807 109.143 58.6709 107.901 58.6709C106.659 58.6709 105.652 59.6807 105.652 60.9263C105.652 62.172 106.659 63.1818 107.901 63.1818Z" fill="#0A2883"></path><path d="M109.37 63.7239C109.609 63.5976 109.697 63.3042 109.575 63.0653L104.23 52.9073C104.104 52.6684 103.811 52.5797 103.573 52.7026C103.335 52.8288 103.247 53.1223 103.369 53.3611L108.714 63.5191C108.84 63.758 109.136 63.8501 109.37 63.7239Z" fill="#003EA1"></path><path d="M107.901 62.2334C108.62 62.2334 109.204 61.6483 109.204 60.9265C109.204 60.2047 108.62 59.6196 107.901 59.6196C107.181 59.6196 106.598 60.2047 106.598 60.9265C106.598 61.6483 107.181 62.2334 107.901 62.2334Z" fill="#003EA1"></path><defs><linearGradient id="paint0_linear_2368_21243" x1="8.74175" y1="63.2087" x2="29.7735" y2="88.7148" gradientUnits="userSpaceOnUse"><stop stop-color="#023D9F"></stop><stop offset="1" stop-color="#0C257F"></stop></linearGradient><linearGradient id="paint1_linear_2368_21243" x1="36.4874" y1="22" x2="103.594" y2="111.475" gradientUnits="userSpaceOnUse"><stop stop-color="#0C257F"></stop><stop offset="1" stop-color="#013FA1"></stop></linearGradient><linearGradient id="paint2_linear_2368_21243" x1="104.209" y1="39.039" x2="111.508" y2="39.039" gradientUnits="userSpaceOnUse"><stop offset="1.29819e-07" stop-color="#0171D3"></stop><stop offset="0.9989" stop-color="#015CBE"></stop></linearGradient><linearGradient id="paint3_linear_2368_21243" x1="107.66" y1="41.5605" x2="108.642" y2="45.2311" gradientUnits="userSpaceOnUse"><stop stop-color="#015CBE" stop-opacity="0"></stop><stop offset="0.9989" stop-color="#015CBE"></stop></linearGradient><linearGradient id="paint4_linear_2368_21243" x1="114.687" y1="41.1385" x2="118.815" y2="43.2042" gradientUnits="userSpaceOnUse"><stop offset="1.29819e-07" stop-color="#0171D3"></stop><stop offset="0.9989" stop-color="#015CBE"></stop></linearGradient><linearGradient id="paint5_linear_2368_21243" x1="115.924" y1="43.5454" x2="115.435" y2="45.8969" gradientUnits="userSpaceOnUse"><stop stop-color="#015CBE" stop-opacity="0"></stop><stop offset="0.9989" stop-color="#015CBE"></stop></linearGradient><linearGradient id="paint6_linear_2368_21243" x1="108.067" y1="75.7378" x2="108.067" y2="44.8863" gradientUnits="userSpaceOnUse"><stop stop-color="#015CBE" stop-opacity="0"></stop><stop offset="0.9989" stop-color="#015CBE"></stop></linearGradient></defs></svg> 