<?xml version="1.0" encoding="UTF-8"?> <svg xmlns="http://www.w3.org/2000/svg" width="129" height="129" viewBox="0 0 129 129" fill="none"><circle cx="64.5" cy="64.5" r="42.5" fill="url(#paint0_linear_2368_21386)"></circle><mask id="mask0_2368_21386" style="mask-type:alpha" maskUnits="userSpaceOnUse" x="22" y="22" width="85" height="85"><circle cx="64.5" cy="64.5" r="42.5" fill="url(#paint1_linear_2368_21386)"></circle></mask><g mask="url(#mask0_2368_21386)"><rect x="53.2825" y="13.7844" width="22.119" height="42.658" fill="#F9C900"></rect><path d="M61.221 82.3999C62.8131 84.6787 66.1868 84.6787 67.779 82.3999L82.9545 60.6795C84.807 58.0281 82.91 54.3886 79.6756 54.3886H49.3244C46.09 54.3886 44.193 58.0281 46.0455 60.6795L61.221 82.3999Z" fill="#F9C900"></path><path d="M62.7218 66.4069H66.2578V64.0539C67.8872 63.7679 69.1915 63.1092 70.1708 62.0779C71.1502 61.0379 71.6398 59.7596 71.6398 58.2429C71.6398 56.8996 71.2715 55.8206 70.5348 55.0059C69.8068 54.1912 68.6152 53.5456 66.9598 53.0689L63.6578 52.1329C62.8258 51.8989 62.2192 51.6216 61.8378 51.3009C61.4565 50.9716 61.2658 50.5816 61.2658 50.1309C61.2658 49.5156 61.5605 49.0042 62.1498 48.5969C62.7478 48.1896 63.4758 47.9989 64.3338 48.0249C65.2352 48.0509 66.0022 48.3239 66.6348 48.8439C67.2762 49.3552 67.6878 50.0269 67.8698 50.8589L71.5098 50.2089C71.1458 48.7789 70.5132 47.6176 69.6118 46.7249C68.7192 45.8236 67.6012 45.2256 66.2578 44.9309V42.5129H62.7218V44.8529C61.1792 45.1042 59.9658 45.7109 59.0818 46.6729C58.1978 47.6349 57.7558 48.8482 57.7558 50.3129C57.7558 52.7482 59.0905 54.3776 61.7598 55.2009L66.3878 56.6309C67.5492 57.0122 68.1298 57.6362 68.1298 58.5029C68.1298 59.1789 67.8048 59.7466 67.1548 60.2059C66.5135 60.6652 65.7032 60.8949 64.7238 60.8949C63.6838 60.8949 62.7868 60.5916 62.0328 59.9849C61.2875 59.3782 60.7978 58.5636 60.5638 57.5409L57.0538 58.0869C57.2878 59.6642 57.9032 60.9729 58.8998 62.0129C59.9052 63.0529 61.1792 63.7246 62.7218 64.0279V66.4069Z" fill="url(#paint2_linear_2368_21386)"></path></g><defs><linearGradient id="paint0_linear_2368_21386" x1="41.1171" y1="27.6877" x2="91.8327" y2="111.74" gradientUnits="userSpaceOnUse"><stop stop-color="#0150B3"></stop><stop offset="1" stop-color="#0C247E"></stop></linearGradient><linearGradient id="paint1_linear_2368_21386" x1="41.1171" y1="27.6877" x2="84.0911" y2="101.312" gradientUnits="userSpaceOnUse"><stop stop-color="#013EA1"></stop><stop offset="1" stop-color="#0C247E"></stop></linearGradient><linearGradient id="paint2_linear_2368_21386" x1="59.7602" y1="45.0671" x2="71.1356" y2="71.7679" gradientUnits="userSpaceOnUse"><stop stop-color="#0150B3"></stop><stop offset="1" stop-color="#0C2681"></stop></linearGradient></defs></svg> 