<?xml version="1.0" encoding="UTF-8"?> <svg xmlns="http://www.w3.org/2000/svg" width="129" height="129" viewBox="0 0 129 129" fill="none"><path d="M113.766 87.4547H14.4937V31.3968C14.4925 30.9549 14.5785 30.5171 14.7467 30.1085C14.915 29.6999 15.1621 29.3284 15.4739 29.0154C15.7858 28.7023 16.1564 28.4538 16.5644 28.2841C16.9724 28.1143 17.4098 28.0267 17.8517 28.0261H110.408C111.3 28.0295 112.154 28.3861 112.784 29.0179C113.413 29.6496 113.766 30.505 113.766 31.3968V87.4547Z" fill="url(#paint0_linear_2368_21315)"></path><path d="M127.61 100.961V102.983C127.608 103.252 127.498 103.51 127.303 103.7C127.108 103.89 126.845 103.998 126.569 104H3.04137C2.8291 104.001 2.62162 103.939 2.44631 103.822C2.30627 103.722 2.19141 103.593 2.11054 103.444C2.03666 103.301 1.99877 103.143 2.00003 102.983V100.961H127.61Z" fill="url(#paint1_linear_2368_21315)"></path><path d="M126.607 101.974H3.0157C2.81947 101.972 2.62786 101.913 2.46365 101.803C2.29944 101.693 2.16953 101.537 2.08937 101.354C2.00922 101.171 1.98219 100.968 2.01149 100.77C2.04079 100.571 2.1252 100.385 2.25467 100.235L11.608 89.4805H118.002L127.356 100.235C127.484 100.385 127.569 100.569 127.598 100.766C127.628 100.964 127.602 101.166 127.524 101.348C127.445 101.531 127.317 101.687 127.155 101.798C126.992 101.909 126.802 101.97 126.607 101.974V101.974Z" fill="#0C257F"></path><path opacity="0.2" d="M118.643 95.1772C118.745 95.3041 118.808 95.4565 118.826 95.617C118.844 95.7775 118.815 95.9397 118.743 96.0851C118.672 96.2304 118.559 96.3531 118.42 96.4391C118.28 96.5251 118.119 96.571 117.954 96.5715H11.6568C11.4918 96.571 11.3303 96.5251 11.1907 96.4391C11.0511 96.3531 10.9389 96.2304 10.8671 96.0851C10.7953 95.9397 10.7666 95.7775 10.7844 95.617C10.8022 95.4565 10.8658 95.3041 10.9678 95.1772L13.9451 91.4978C14.0269 91.3955 14.1315 91.3127 14.2509 91.2557C14.3703 91.1987 14.5013 91.1691 14.6341 91.1689H115.01C115.143 91.1691 115.274 91.1987 115.394 91.2557C115.513 91.3127 115.618 91.3955 115.7 91.4978L118.643 95.1772Z" fill="#5757D3"></path><path d="M114.21 26H15.0589C14.1031 26 13.1864 26.3789 12.5105 27.0534C11.8346 27.728 11.4548 28.6428 11.4548 29.5967V89.4805H117.818V29.5967C117.815 28.6431 117.434 27.7296 116.758 27.0557C116.082 26.3818 115.166 26.0022 114.21 26V26ZM113.785 87.1351H15.0249V31.4841C15.0249 31.4247 15.0249 31.3696 15.0249 31.3102C15.0249 31.2508 15.0249 31.1957 15.0249 31.1405C15.0228 31.1194 15.0228 31.0981 15.0249 31.0769C15.0229 31.0416 15.0229 31.0062 15.0249 30.9709C15.0229 30.9582 15.0229 30.9454 15.0249 30.9327C15.0229 30.9201 15.0229 30.9072 15.0249 30.8945V30.8224C15.0225 30.807 15.0225 30.7912 15.0249 30.7758L15.0504 30.6613V30.6019C15.0578 30.5686 15.0678 30.536 15.0802 30.5043C15.0822 30.4903 15.0822 30.476 15.0802 30.4619V30.4619C15.0802 30.4619 15.0802 30.4619 15.0802 30.4365C15.0883 30.4103 15.0982 30.3848 15.1099 30.3601C15.1099 30.3092 15.1482 30.2583 15.1694 30.2032C15.2102 30.1042 15.257 30.0079 15.3097 29.9148C15.3395 29.8554 15.3777 29.796 15.4117 29.7366L15.45 29.6773L15.4755 29.6349L15.5647 29.5076L15.6497 29.4016L15.6965 29.3549L15.7517 29.2913L15.8622 29.1768C15.9175 29.1173 15.9772 29.062 16.0407 29.0114C16.0581 28.9933 16.0765 28.9763 16.096 28.9605V28.9605L16.1597 28.9138C16.205 28.8734 16.2533 28.8365 16.3042 28.8035C16.3554 28.7656 16.4094 28.7316 16.4657 28.7017V28.7017L16.5507 28.6509L16.6442 28.6L16.7165 28.566C16.7382 28.5492 16.7626 28.5363 16.7887 28.5279L16.8822 28.4854L17.0267 28.4303L17.1202 28.3964H17.1415H17.184L17.3413 28.354H17.4093H17.507L17.6473 28.3243H17.6685H17.8385H17.9108C17.9432 28.3199 17.9761 28.3199 18.0085 28.3243C18.0651 28.32 18.1219 28.32 18.1785 28.3243H110.78H110.87H110.916H110.959H110.997C111.008 28.32 111.02 28.32 111.031 28.3243C111.048 28.32 111.065 28.32 111.082 28.3243H111.12H111.18C111.212 28.3282 111.244 28.3368 111.273 28.3497H111.316L111.431 28.3879C111.486 28.4004 111.54 28.4174 111.592 28.4388L111.771 28.5109L111.885 28.5618H111.911L112.021 28.6212C112.064 28.6412 112.105 28.6639 112.145 28.689V28.689C112.182 28.7071 112.217 28.7283 112.251 28.7526L112.408 28.8629L112.446 28.8884H112.468L112.531 28.9435C112.574 28.9766 112.616 29.012 112.655 29.0495C112.698 29.0807 112.737 29.1178 112.769 29.1598C112.804 29.1902 112.837 29.2228 112.867 29.2574C112.878 29.265 112.887 29.2752 112.893 29.2871C112.926 29.3204 112.957 29.3558 112.986 29.3931V29.3931L113.016 29.427L113.084 29.5161C113.119 29.5554 113.15 29.598 113.177 29.6433V29.6433C113.193 29.6626 113.206 29.684 113.216 29.707V29.707L113.271 29.7918L113.335 29.9021C113.36 29.9487 113.386 29.9954 113.407 30.042C113.428 30.0887 113.454 30.1396 113.475 30.1905C113.497 30.2389 113.517 30.2884 113.534 30.3389C113.534 30.3898 113.573 30.4407 113.59 30.4959C113.607 30.551 113.619 30.6019 113.632 30.657C113.632 30.6994 113.632 30.7461 113.662 30.7885C113.698 30.9618 113.721 31.1377 113.73 31.3144C113.73 31.3696 113.73 31.4247 113.73 31.4841L113.785 87.1351Z" fill="#0C247E"></path><rect x="25.6362" y="48.2856" width="78" height="18.5714" rx="8" fill="#E3EEF8"></rect><path d="M68.0467 59.3503H68.5692V58.0578H69.5017C69.535 58.0578 69.5775 58.0562 69.6292 58.0528C69.6825 58.0495 69.7325 58.0445 69.7792 58.0378C70.0792 57.9895 70.3042 57.8612 70.4542 57.6528C70.6058 57.4445 70.6817 57.1945 70.6817 56.9028C70.6817 56.6112 70.6067 56.3612 70.4567 56.1528C70.3067 55.9445 70.0808 55.817 69.7792 55.7703C69.7325 55.762 69.6833 55.757 69.6317 55.7553C69.58 55.752 69.5367 55.7503 69.5017 55.7503H68.0467V59.3503ZM68.5692 57.5628V56.2428H69.4817C69.515 56.2428 69.5517 56.2445 69.5917 56.2478C69.6333 56.2512 69.6725 56.2578 69.7092 56.2678C69.8692 56.3045 69.9825 56.3862 70.0492 56.5128C70.1158 56.6395 70.1492 56.7695 70.1492 56.9028C70.1492 57.0345 70.1158 57.1645 70.0492 57.2928C69.9825 57.4195 69.8692 57.502 69.7092 57.5403C69.6725 57.5487 69.6333 57.5545 69.5917 57.5578C69.5517 57.5612 69.515 57.5628 69.4817 57.5628H68.5692ZM71.8609 59.4253C72.2909 59.4253 72.6151 59.2695 72.8334 58.9578V59.3503H73.2959V57.6878C73.2959 57.5745 73.2909 57.4687 73.2809 57.3703C73.2709 57.272 73.2443 57.1787 73.2009 57.0903C73.1176 56.912 72.9859 56.782 72.8059 56.7003C72.6276 56.617 72.4176 56.5753 72.1759 56.5753C71.8643 56.5753 71.6143 56.6437 71.4259 56.7803C71.2376 56.917 71.1109 57.1012 71.0459 57.3328L71.5334 57.4828C71.5801 57.3328 71.6626 57.2245 71.7809 57.1578C71.8993 57.0912 72.0293 57.0578 72.1709 57.0578C72.3809 57.0578 72.5326 57.1028 72.6259 57.1928C72.7209 57.2812 72.7726 57.4187 72.7809 57.6053C72.5609 57.6353 72.3459 57.667 72.1359 57.7003C71.9259 57.732 71.7426 57.7703 71.5859 57.8153C71.3776 57.882 71.2193 57.9812 71.1109 58.1128C71.0026 58.2445 70.9484 58.412 70.9484 58.6153C70.9484 58.762 70.9826 58.897 71.0509 59.0203C71.1209 59.142 71.2234 59.2403 71.3584 59.3153C71.4951 59.3887 71.6626 59.4253 71.8609 59.4253ZM71.9534 58.9978C71.7868 58.9978 71.6634 58.9595 71.5834 58.8828C71.5051 58.8062 71.4659 58.7153 71.4659 58.6103C71.4659 58.5037 71.5009 58.4195 71.5709 58.3578C71.6426 58.2962 71.7318 58.247 71.8384 58.2103C71.9518 58.177 72.0851 58.1478 72.2384 58.1228C72.3934 58.0978 72.5726 58.0703 72.7759 58.0403C72.7743 58.1037 72.7701 58.1745 72.7634 58.2528C72.7568 58.3312 72.7426 58.4012 72.7209 58.4628C72.7009 58.5512 72.6584 58.6362 72.5934 58.7178C72.5301 58.7995 72.4443 58.867 72.3359 58.9203C72.2293 58.972 72.1018 58.9978 71.9534 58.9978ZM74.1587 60.5503H74.6562L76.1462 56.6503H75.6162L74.8537 58.6803L74.0562 56.6503H73.5112L74.6037 59.3378L74.1587 60.5503ZM77.6127 59.4253C77.881 59.4253 78.1144 59.3653 78.3127 59.2453C78.511 59.1237 78.6644 58.9562 78.7727 58.7428C78.8827 58.5278 78.9377 58.2795 78.9377 57.9978C78.9377 57.7195 78.8835 57.4737 78.7752 57.2603C78.6669 57.0453 78.5135 56.8778 78.3152 56.7578C78.1169 56.6362 77.8827 56.5753 77.6127 56.5753C77.3477 56.5753 77.116 56.6353 76.9177 56.7553C76.7194 56.8753 76.5652 57.042 76.4552 57.2553C76.3452 57.4687 76.2902 57.7162 76.2902 57.9978C76.2902 58.2762 76.3444 58.5228 76.4527 58.7378C76.561 58.9528 76.7135 59.1212 76.9102 59.2428C77.1085 59.3645 77.3427 59.4253 77.6127 59.4253ZM77.6127 58.9328C77.361 58.9328 77.1702 58.8487 77.0402 58.6803C76.9102 58.5103 76.8452 58.2828 76.8452 57.9978C76.8452 57.7228 76.9077 57.4995 77.0327 57.3278C77.1577 57.1545 77.351 57.0678 77.6127 57.0678C77.8677 57.0678 78.0594 57.152 78.1877 57.3203C78.3177 57.4887 78.3827 57.7145 78.3827 57.9978C78.3827 58.2745 78.3185 58.4995 78.1902 58.6728C78.0635 58.8462 77.871 58.9328 77.6127 58.9328ZM80.5046 59.4228C80.6996 59.4228 80.8721 59.3878 81.0221 59.3178C81.1738 59.2478 81.2988 59.1512 81.3971 59.0278V59.3503H81.8621V56.6503H81.3346V58.0553C81.3346 58.2687 81.3038 58.4395 81.2421 58.5678C81.1804 58.6945 81.0971 58.7862 80.9921 58.8428C80.8888 58.8995 80.7746 58.9278 80.6496 58.9278C80.5063 58.9278 80.3896 58.8987 80.2996 58.8403C80.2096 58.782 80.1404 58.7053 80.0921 58.6103C80.0438 58.5153 80.0104 58.4128 79.9921 58.3028C79.9754 58.1912 79.9671 58.0828 79.9671 57.9778V56.6503H79.4371V58.1503C79.4371 58.2337 79.4446 58.3303 79.4596 58.4403C79.4746 58.5503 79.5029 58.6628 79.5446 58.7778C79.5863 58.8928 79.6463 58.9995 79.7246 59.0978C79.8046 59.1945 79.9079 59.2728 80.0346 59.3328C80.1613 59.3928 80.3179 59.4228 80.5046 59.4228ZM84.1083 59.3503V58.9078C83.9316 58.9345 83.7774 58.9403 83.6458 58.9253C83.5158 58.9087 83.4208 58.8495 83.3608 58.7478C83.3291 58.6928 83.3116 58.6253 83.3083 58.5453C83.3066 58.4653 83.3058 58.3712 83.3058 58.2628V57.0703H84.1083V56.6503H83.3058V55.9003H82.7808V56.6503H82.2633V57.0703H82.7808V58.2878C82.7808 58.4345 82.7824 58.5662 82.7858 58.6828C82.7908 58.7978 82.8224 58.9112 82.8808 59.0228C82.9474 59.1478 83.0449 59.2395 83.1733 59.2978C83.3016 59.3562 83.4474 59.3878 83.6108 59.3928C83.7741 59.3978 83.9399 59.3837 84.1083 59.3503ZM85.5785 59.3478H88.0135V58.8503H86.386L87.4285 57.9203C87.5585 57.8053 87.6668 57.6987 87.7535 57.6003C87.8402 57.502 87.9052 57.3953 87.9485 57.2803C87.9918 57.1637 88.0135 57.0237 88.0135 56.8603C88.0135 56.632 87.961 56.4287 87.856 56.2503C87.7527 56.072 87.611 55.932 87.431 55.8303C87.251 55.727 87.0477 55.6753 86.821 55.6753C86.5827 55.6753 86.3702 55.7253 86.1835 55.8253C85.9985 55.9237 85.8535 56.0612 85.7485 56.2378C85.6435 56.4128 85.591 56.617 85.591 56.8503H86.126C86.1243 56.7287 86.1527 56.617 86.211 56.5153C86.271 56.412 86.3527 56.3295 86.456 56.2678C86.5593 56.2045 86.6777 56.1728 86.811 56.1728C87.0043 56.1728 87.1635 56.2378 87.2885 56.3678C87.4135 56.4978 87.476 56.6595 87.476 56.8528C87.476 56.9545 87.4527 57.0562 87.406 57.1578C87.361 57.2578 87.2752 57.3645 87.1485 57.4778L85.581 58.8828L85.5785 59.3478ZM89.6806 59.4253C89.9056 59.4253 90.1122 59.3712 90.3006 59.2628C90.4906 59.1545 90.6431 59.0095 90.7581 58.8278C90.8731 58.6445 90.9306 58.4412 90.9306 58.2178C90.9306 57.9928 90.8797 57.7912 90.7781 57.6128C90.6781 57.4345 90.5397 57.2945 90.3631 57.1928C90.1881 57.0895 89.9881 57.0378 89.7631 57.0378C89.6564 57.0378 89.5489 57.0545 89.4406 57.0878C89.3339 57.1212 89.2364 57.1695 89.1481 57.2328L89.2081 56.2428H90.6831V55.7503H88.7406L88.6306 57.6428L89.0856 57.8028C89.1422 57.7278 89.2214 57.6612 89.3231 57.6028C89.4247 57.5428 89.5489 57.5128 89.6956 57.5128C89.8239 57.5128 89.9414 57.5445 90.0481 57.6078C90.1564 57.6695 90.2422 57.7537 90.3056 57.8603C90.3706 57.967 90.4031 58.0862 90.4031 58.2178C90.4031 58.3462 90.3714 58.4637 90.3081 58.5703C90.2447 58.677 90.1597 58.762 90.0531 58.8253C89.9464 58.8887 89.8272 58.9203 89.6956 58.9203C89.5456 58.9203 89.4047 58.8737 89.2731 58.7803C89.1431 58.6853 89.0572 58.5578 89.0156 58.3978L88.5131 58.5328C88.5631 58.7078 88.6447 58.8628 88.7581 58.9978C88.8714 59.1312 89.0072 59.2362 89.1656 59.3128C89.3239 59.3878 89.4956 59.4253 89.6806 59.4253ZM92.3781 57.4753C92.5431 57.4753 92.6931 57.4353 92.8281 57.3553C92.9648 57.2737 93.0739 57.1653 93.1556 57.0303C93.2373 56.8937 93.2781 56.742 93.2781 56.5753C93.2781 56.4087 93.2373 56.2578 93.1556 56.1228C93.0739 55.9862 92.9648 55.8778 92.8281 55.7978C92.6931 55.7162 92.5431 55.6753 92.3781 55.6753C92.2181 55.6753 92.0698 55.7162 91.9331 55.7978C91.7964 55.8795 91.6864 55.9887 91.6031 56.1253C91.5198 56.262 91.4781 56.412 91.4781 56.5753C91.4781 56.742 91.5189 56.8937 91.6006 57.0303C91.6823 57.1653 91.7906 57.2737 91.9256 57.3553C92.0623 57.4353 92.2131 57.4753 92.3781 57.4753ZM91.9781 59.3503L95.2306 56.1028L94.8806 55.7503L91.6281 59.0003L91.9781 59.3503ZM92.3781 57.0228C92.2564 57.0228 92.1514 56.9787 92.0631 56.8903C91.9748 56.802 91.9306 56.697 91.9306 56.5753C91.9306 56.4537 91.9748 56.3487 92.0631 56.2603C92.1514 56.172 92.2564 56.1278 92.3781 56.1278C92.4998 56.1278 92.6048 56.172 92.6931 56.2603C92.7814 56.3487 92.8256 56.4537 92.8256 56.5753C92.8256 56.697 92.7814 56.802 92.6931 56.8903C92.6048 56.9787 92.4998 57.0228 92.3781 57.0228ZM94.4806 59.4253C94.6456 59.4253 94.7956 59.3853 94.9306 59.3053C95.0673 59.2237 95.1764 59.1153 95.2581 58.9803C95.3398 58.8437 95.3806 58.692 95.3806 58.5253C95.3806 58.3587 95.3398 58.2078 95.2581 58.0728C95.1764 57.9362 95.0673 57.8278 94.9306 57.7478C94.7956 57.6662 94.6456 57.6253 94.4806 57.6253C94.3206 57.6253 94.1723 57.6662 94.0356 57.7478C93.8989 57.8295 93.7889 57.9387 93.7056 58.0753C93.6223 58.212 93.5806 58.362 93.5806 58.5253C93.5806 58.692 93.6206 58.8437 93.7006 58.9803C93.7823 59.1153 93.8914 59.2237 94.0281 59.3053C94.1648 59.3853 94.3156 59.4253 94.4806 59.4253ZM94.4806 58.9728C94.3589 58.9728 94.2539 58.9287 94.1656 58.8403C94.0773 58.752 94.0331 58.647 94.0331 58.5253C94.0331 58.4037 94.0773 58.2987 94.1656 58.2103C94.2539 58.122 94.3589 58.0778 94.4806 58.0778C94.6023 58.0778 94.7073 58.122 94.7956 58.2103C94.8839 58.2987 94.9281 58.4037 94.9281 58.5253C94.9281 58.647 94.8839 58.752 94.7956 58.8403C94.7073 58.9287 94.6023 58.9728 94.4806 58.9728Z" fill="#596471"></path><path fill-rule="evenodd" clip-rule="evenodd" d="M25.655 56.2446C25.655 51.8264 29.2368 48.2446 33.655 48.2446L56.8147 48.2446C56.8147 48.2446 58.0117 48.4913 58.2716 48.6651C60.0115 49.8289 57.4074 52.8464 57.5044 53.476C57.7565 55.1117 60.4674 53.8272 61.6047 54.2474C62.0266 54.4033 62.6328 54.8079 62.6328 55.9417C62.6328 58.3746 58.9512 56.1432 58.2716 56.9443C57.592 57.7453 56.3501 57.8456 56.3501 59.9564C56.3501 62.0672 57.0047 62.4461 57.5044 64.0617C57.6764 64.6175 57.8565 65.4354 57.7565 65.9704C57.6565 66.5055 57.1106 67.0224 57.1106 67.0224H33.655C29.2367 67.0224 25.655 63.4407 25.655 59.0224V56.2446Z" fill="#F9C900"></path><path d="M41.5746 34.6393C41.8974 34.3157 42.2809 34.059 42.7031 33.8838C43.1253 33.7086 43.5779 33.6184 44.035 33.6184C44.4921 33.6184 44.9447 33.7086 45.3669 33.8838C45.789 34.059 46.1725 34.3157 46.4953 34.6393L64.8853 53.0363L83.2753 34.6393C83.5984 34.3162 83.982 34.0599 84.4041 33.8851C84.8263 33.7102 85.2787 33.6202 85.7356 33.6202C86.1926 33.6202 86.645 33.7102 87.0672 33.8851C87.4893 34.0599 87.8729 34.3162 88.196 34.6393C88.5191 34.9624 88.7754 35.346 88.9502 35.7681C89.1251 36.1903 89.2151 36.6427 89.2151 37.0997C89.2151 37.5566 89.1251 38.0091 88.9502 38.4312C88.7754 38.8533 88.5191 39.2369 88.196 39.56L69.799 57.95L88.196 76.34C88.5191 76.6631 88.7754 77.0467 88.9502 77.4688C89.1251 77.891 89.2151 78.3434 89.2151 78.8003C89.2151 79.2573 89.1251 79.7097 88.9502 80.1319C88.7754 80.554 88.5191 80.9376 88.196 81.2607C87.8729 81.5838 87.4893 81.8401 87.0672 82.0149C86.645 82.1898 86.1926 82.2798 85.7356 82.2798C85.2787 82.2798 84.8263 82.1898 84.4041 82.0149C83.982 81.8401 83.5984 81.5838 83.2753 81.2607L64.8853 62.8637L46.4953 81.2607C46.1722 81.5838 45.7886 81.8401 45.3665 82.0149C44.9444 82.1898 44.4919 82.2798 44.035 82.2798C43.578 82.2798 43.1256 82.1898 42.7034 82.0149C42.2813 81.8401 41.8977 81.5838 41.5746 81.2607C41.2515 80.9376 40.9952 80.554 40.8204 80.1319C40.6455 79.7097 40.5555 79.2573 40.5555 78.8003C40.5555 78.3434 40.6455 77.891 40.8204 77.4688C40.9952 77.0467 41.2515 76.6631 41.5746 76.34L59.9716 57.95L41.5746 39.56C41.251 39.2372 40.9943 38.8537 40.8191 38.4315C40.6439 38.0094 40.5537 37.5568 40.5537 37.0997C40.5537 36.6426 40.6439 36.19 40.8191 35.7678C40.9943 35.3456 41.251 34.9621 41.5746 34.6393Z" fill="#C70000"></path><defs><linearGradient id="paint0_linear_2368_21315" x1="14.4937" y1="47.9482" x2="113.766" y2="87.4547" gradientUnits="userSpaceOnUse"><stop offset="0.01" stop-color="#014FB2"></stop><stop offset="1" stop-color="#043696"></stop></linearGradient><linearGradient id="paint1_linear_2368_21315" x1="64.14" y1="82.1711" x2="65.4864" y2="124.407" gradientUnits="userSpaceOnUse"><stop stop-color="#1A469A"></stop><stop offset="1" stop-color="#191949"></stop></linearGradient></defs></svg> 