<?xml version="1.0" encoding="UTF-8"?> <svg xmlns="http://www.w3.org/2000/svg" width="273" height="236" viewBox="0 0 273 236" fill="none"><mask id="mask0_2543_20729" style="mask-type:alpha" maskUnits="userSpaceOnUse" x="37" y="18" width="205" height="204"><path d="M42.6689 92.0547L101.085 25.6479C104.084 22.2387 108.118 19.9068 112.569 19.0091C117.02 18.1115 121.642 18.6977 125.728 20.678L211.254 62.1308C214.072 63.4965 216.544 65.4818 218.486 67.9383C220.428 70.3946 221.789 73.2585 222.467 76.3153L240.556 157.83C241.614 162.596 240.958 167.583 238.703 171.914C236.448 176.245 232.74 179.642 228.228 181.51L136.576 219.447C133.785 220.602 130.777 221.134 127.76 221.007C124.743 220.879 121.79 220.095 119.107 218.709L48.7282 182.351C45.3441 180.603 42.5062 177.958 40.5251 174.704C38.544 171.451 37.4961 167.715 37.4961 163.906V105.768C37.496 100.72 39.3349 95.8448 42.6689 92.0547Z" fill="#87CAFA"></path></mask><g mask="url(#mask0_2543_20729)"><path d="M42.6689 92.0547L101.085 25.6479C104.084 22.2387 108.118 19.9068 112.569 19.0091C117.02 18.1115 121.642 18.6977 125.728 20.678L211.254 62.1308C214.072 63.4965 216.544 65.4818 218.486 67.9383C220.428 70.3946 221.789 73.2585 222.467 76.3153L240.556 157.83C241.614 162.596 240.958 167.583 238.703 171.914C236.448 176.245 232.74 179.642 228.228 181.51L136.576 219.447C133.785 220.602 130.777 221.134 127.76 221.007C124.743 220.879 121.79 220.095 119.107 218.709L48.7282 182.351C45.3441 180.603 42.5062 177.958 40.5251 174.704C38.544 171.451 37.4961 167.715 37.4961 163.906V105.768C37.496 100.72 39.3349 95.8448 42.6689 92.0547Z" fill="#87CAFA"></path><path d="M107.159 218.522C155.736 218.522 195.116 179.143 195.116 130.566C195.116 81.989 155.736 42.6096 107.159 42.6096C58.5825 42.6096 19.2031 81.989 19.2031 130.566C19.2031 179.143 58.5825 218.522 107.159 218.522Z" fill="#87CAFA"></path><path d="M78.6466 188.042C67.6896 188.275 56.8562 190.408 46.6289 194.347C62.6823 209.599 83.9011 218.23 106.043 218.515C128.185 218.799 149.619 210.716 166.058 195.881C154.264 192.991 142.176 191.471 130.033 191.351C119.148 191.351 78.6466 188.042 78.6466 188.042Z" fill="#F9C900"></path><path d="M107.479 171.261C119.113 171.139 130.793 173.606 131.281 174.582C131.77 175.558 127.935 181.561 126.631 182.118C125.326 182.674 89.1718 182.972 88.0177 182.118C86.8636 181.264 82.4723 175.348 83.5092 173.274C84.546 171.2 88.8155 170.651 90.2789 170.651C91.7423 170.651 107.479 171.261 107.479 171.261Z" fill="#C5E5FC"></path><path d="M86.9243 148.999L88.0173 179.739L113.883 195.963L118.884 194.865L125.349 183.155C125.349 183.155 124.618 166.809 122.178 162.417C119.738 158.026 86.9243 148.999 86.9243 148.999Z" fill="#F7B391"></path><path opacity="0.65" d="M124.827 175.927C124.358 170.964 123.531 164.853 122.178 162.417C121.654 161.474 119.728 160.317 117.028 159.082L87.1523 155.402L87.2763 158.893C89.6924 164.19 92.1442 168.133 96.1953 169.858C101.136 171.963 105.144 174.799 116.817 175.805C119.478 176.089 122.159 176.13 124.827 175.927Z" fill="url(#paint0_linear_2543_20729)"></path><path d="M97.2934 72.6367C89.9747 76.2961 76.8001 82.6395 75.8242 90.2025C74.8484 97.7656 74.3604 124.358 75.8242 127.286C77.288 130.213 80.2287 144.257 82.1979 147.901C84.2412 151.683 90.2661 160.14 95.8297 163.546C101.075 166.757 108.18 166.55 116.323 166.565C125.289 166.581 129.905 164.065 132.181 162.713C133.706 161.807 135.353 151.959 136.328 147.795C137.304 143.632 143.159 135.581 143.159 129.482C143.159 123.382 140.262 94.6246 138.921 87.7935C137.579 80.9624 143.648 84.8354 138.037 80.4439C132.426 76.0525 97.2934 72.6367 97.2934 72.6367Z" fill="#F9BFA3"></path><path opacity="0.65" d="M138.921 87.7934C138.878 87.5755 138.843 87.3687 138.814 87.1723L127.68 82.1516L80.6705 86.1771C80.6705 86.1771 74.9703 88.2508 77.532 91.3004C80.0938 94.35 92.4419 101.044 102.097 100.19C111.751 99.3361 110.288 91.2234 118.564 90.3093C128.781 89.181 134.438 89.8061 139.74 93.1284C139.436 90.8459 139.154 88.9824 138.921 87.7934Z" fill="url(#paint1_linear_2543_20729)"></path><path d="M75.3582 125.115C77.2572 125.435 77.9549 125.69 78.5075 125.115C79.9103 123.657 79.1175 88.7386 79.1175 88.7386C79.1175 88.7386 84.7287 95.3733 98.391 96.2272C112.053 97.0811 110.102 86.5429 119.006 86.2989C127.911 86.055 137.166 88.3697 139.566 91.8477C144.014 89.4142 147.762 82.3784 149.014 78.3699C149.925 75.4568 142.305 66.0495 127.789 61.902C113.273 57.7545 97.659 60.3162 89.73 63.6096C81.8011 66.903 68.2608 73.9785 66.6751 78.248C64.5487 83.9727 64.2354 93.1301 64.9675 97.7655C65.6996 102.401 69.6029 118.625 70.2128 119.6C70.8227 120.576 74.1238 124.908 75.3582 125.115Z" fill="url(#paint2_linear_2543_20729)"></path><path opacity="0.65" d="M89.2422 130.518C90.645 137.777 94.6095 140.216 97.4761 141.223C99.5998 141.968 104.857 142.759 107.338 140.582C111.428 136.994 112.808 133.634 113.32 130.579C113.832 127.524 115.347 123.87 120.148 123.565C122.117 123.44 125.562 124.27 125.349 126.371C125.246 128.345 125.557 130.319 126.264 132.165C126.684 133.222 128.464 137.171 130.686 139.196C132.543 140.896 134.965 141.846 137.482 141.863C138.014 141.784 138.514 141.563 138.929 141.221C139.344 140.88 139.658 140.432 139.837 139.925C140.147 139.287 135.993 126.493 135.993 126.493L127.368 123.936L124.08 122.224L119.602 121.455L114.493 123.473L89.2422 130.518Z" fill="url(#paint3_linear_2543_20729)"></path><path d="M126.922 125.655C126.672 125.354 124.389 122.702 121.171 122.399C118.674 122.166 116.522 123.515 114.799 124.601C114.456 124.817 114.13 125.023 113.819 125.205L112.82 123.511C113.115 123.338 113.424 123.142 113.749 122.937C115.62 121.758 118.179 120.14 121.355 120.441C125.278 120.81 127.943 123.803 128.437 124.4L126.922 125.655Z" fill="#0C154B"></path><path d="M89.6885 121.845C83.6254 121.619 73.5977 121.457 71.6262 121.477L71.6045 119.51C73.6489 119.49 83.5531 119.648 89.7615 119.879L89.6885 121.845Z" fill="#0C154B"></path><path d="M139.076 104.041C146.239 104.627 149.914 111.791 149.36 122.324C149.166 125.998 146.308 139.056 137.292 138.6C131.168 138.289 125.393 132.086 125.986 120.319C126.54 109.337 133.603 103.592 139.076 104.041Z" fill="#E5F3FE"></path><path d="M137.76 139.634C137.589 139.634 137.416 139.629 137.24 139.62C130.874 139.298 124.318 133.104 124.965 120.267C125.265 114.305 127.454 109.25 131.127 106.033C132.2 105.024 133.462 104.239 134.841 103.722C136.22 103.205 137.687 102.967 139.159 103.021C146.676 103.638 150.976 111.054 150.38 122.378C150.197 125.859 147.369 139.634 137.76 139.634ZM138.475 105.038C136.236 105.139 134.108 106.037 132.473 107.57C130.59 109.22 127.375 113.077 127.006 120.37C126.43 131.805 131.961 137.306 137.343 137.579C145.733 138.002 148.202 124.873 148.339 122.271C148.878 112.017 145.384 105.583 138.992 105.059C138.821 105.045 138.648 105.038 138.475 105.038Z" fill="#0C154B"></path><path d="M102.4 103.992C109.718 104.223 114.345 110.656 114.383 121.459C114.401 126.753 112.114 133.457 108.691 136.457C105.267 139.456 100.637 138.987 98.3719 138.477C95.0766 137.735 88.5201 133.281 88.6483 121.274C88.7872 108.256 96.8075 103.815 102.4 103.992Z" fill="#E5F3FE"></path><path d="M101.712 139.859C100.514 139.856 99.3197 139.723 98.1503 139.462C94.4564 138.631 87.506 133.757 87.6391 121.264C87.723 113.43 90.5862 109.058 92.9722 106.77C94.2199 105.544 95.6985 104.578 97.3222 103.928C98.946 103.278 100.683 102.957 102.431 102.983C110.387 103.235 115.353 110.313 115.392 121.456C115.409 126.518 113.299 133.761 109.355 137.216C107.217 139.003 104.497 139.943 101.712 139.859ZM102.062 104.996C99.1785 105.048 96.425 106.204 94.3687 108.226C91.3464 111.124 89.7175 115.639 89.6574 121.285C89.5377 132.488 95.4501 136.786 98.5934 137.493C100.36 137.891 104.816 138.511 108.025 135.699C111.043 133.055 113.391 126.802 113.373 121.464C113.338 111.371 109.224 105.217 102.367 105C102.266 104.997 102.164 104.995 102.062 104.995V104.996Z" fill="#0C154B"></path><path d="M75.946 125.822C74.7262 122.407 72.2865 117.649 69.8468 117.283C68.8445 117.138 67.8215 117.278 66.8954 117.688C65.9693 118.098 65.1777 118.761 64.6113 119.601C64.0529 120.76 63.6644 121.674 63.687 125.027C63.7011 127.118 64.9793 132.228 67.4075 134.3C69.4812 136.068 72.2259 137.105 73.9947 136.983C75.7635 136.861 79.7889 135.702 79.7279 134.909C79.6669 134.116 75.946 125.822 75.946 125.822Z" fill="#F9BFA3"></path><path opacity="0.65" d="M124.877 136.877C125.012 136.167 124.924 135.432 124.625 134.773C124.511 134.567 121.629 130.176 122.27 129.489C122.523 129.217 122.831 129.558 123.001 129.855C125.258 133.797 128.01 135.093 128.01 136.374C127.906 137.729 127.28 138.991 126.265 139.895C125.25 140.799 123.925 141.275 122.567 141.223C120.348 141.221 120.15 140.73 120.148 140.468C120.174 140.268 120.267 140.082 120.411 139.941C120.555 139.8 120.743 139.712 120.943 139.69C123.893 139.197 124.762 137.906 124.877 136.877Z" fill="url(#paint4_linear_2543_20729)"></path><path d="M136.472 193.783C129.881 201.53 127.812 200.139 127.013 199.941C125.484 199.257 123.996 198.486 122.557 197.63L132.866 186.235C132.866 186.235 137.728 190.208 137.472 191.399C137.258 192.239 136.922 193.042 136.472 193.783Z" fill="url(#paint5_linear_2543_20729)"></path><path d="M105.24 197.319C104.338 201.056 103.082 202.519 101.515 202.519C99.9471 202.519 88.1447 196.244 85.4915 192.566C82.8383 188.887 79.6376 184.405 79.7285 183.398C79.8193 182.392 103.38 195.456 103.38 195.456L105.24 197.318" fill="url(#paint6_linear_2543_20729)"></path><path d="M150.237 207.257C149.528 205.285 148.317 203.532 146.723 202.171C145.129 200.811 143.208 199.889 141.148 199.499C127.984 196.985 114.967 193.759 102.153 189.832C89.9103 188.962 78.6466 188.042 78.6466 188.042C67.6896 188.275 56.8562 190.408 46.6289 194.347C62.3991 209.318 83.3879 224.905 106.849 224.905C122.502 224.905 137.505 214.427 150.237 207.257Z" fill="url(#paint7_linear_2543_20729)"></path><path d="M110.162 183.948C110.894 184.497 114.371 193.523 115.225 193.523C116.078 193.523 116.871 188.369 117.054 187.516C117.976 185.593 119.17 183.813 120.599 182.229C121.292 181.727 124.556 181.508 124.922 182.972C125.288 184.436 127.789 192.608 126.996 193.523C126.203 194.438 117.115 203.282 115.468 203.282C112.968 203.282 106.32 199.318 101.99 193.828C97.6596 188.339 110.162 183.948 110.162 183.948Z" fill="url(#paint8_linear_2543_20729)"></path><path opacity="0.65" d="M110.162 183.947C108.089 188.476 105.24 197.318 105.24 197.318C105.24 197.318 104.662 196.811 103.379 195.457C102.096 194.103 107.891 183.673 110.162 183.947Z" fill="url(#paint9_linear_2543_20729)"></path><path d="M84.4258 172.24C82.3504 173.091 81.1305 175.47 80.8256 176.019C80.5206 176.568 77.8979 182.117 78.0809 182.911C78.2639 183.704 83.5092 188.827 85.6439 190.474C87.7786 192.121 97.6594 198.525 99.1842 199.013C99.726 199.143 100.294 199.107 100.816 198.912C101.338 198.716 101.789 198.369 102.112 197.915C102.417 197.549 108.821 184.07 110.163 183.948C107.037 182.751 100.944 181.556 98.0253 180.654C94.6708 179.617 87.9911 177.086 86.3443 175.111C85.6253 174.21 84.9836 173.249 84.4258 172.24Z" fill="#F0F9FF"></path><path opacity="0.65" d="M122.691 197.706C117.993 193.92 119.891 182.264 120.485 182.511C121.08 182.758 130.02 188.247 130.02 188.247L126.247 194.299L122.691 197.706Z" fill="url(#paint10_linear_2543_20729)"></path><path d="M131.281 174.582C130.076 176.246 128.614 177.707 126.951 178.913C125.626 179.894 120.303 181.708 120.486 182.511C120.668 183.314 126.89 196.844 128.232 196.784C129.573 196.723 137.441 191.05 137.563 190.257C137.685 189.464 136.506 184.439 135.429 181.962C134.209 179.157 131.755 174.536 131.281 174.582Z" fill="#F0F9FF"></path><path d="M120.753 195.002C121.17 196.048 121.834 196.976 122.691 197.706L124.544 195.931C123.312 195.636 122.044 195.325 120.753 195.002Z" fill="#41A1ED"></path><path d="M240.885 265.232H112.643C112.198 265.239 111.757 265.152 111.348 264.977C110.939 264.802 110.571 264.544 110.268 264.218C109.965 263.892 109.734 263.507 109.589 263.086C109.445 262.666 109.39 262.22 109.428 261.776L115.33 177.377C115.407 176.444 115.828 175.574 116.512 174.935C117.195 174.296 118.092 173.935 119.028 173.921H247.27C247.715 173.915 248.156 174.002 248.565 174.176C248.974 174.351 249.342 174.61 249.645 174.935C249.948 175.261 250.179 175.646 250.324 176.067C250.468 176.488 250.523 176.934 250.484 177.377L244.583 261.776C244.506 262.709 244.085 263.579 243.401 264.218C242.718 264.857 241.821 265.219 240.885 265.232Z" fill="url(#paint11_linear_2543_20729)"></path><path d="M217.514 131.08C217.515 126.079 216.089 121.183 213.405 116.965C210.72 112.746 206.888 109.381 202.358 107.265C197.828 105.148 192.789 104.367 187.831 105.015C182.873 105.662 178.202 107.71 174.367 110.918C170.532 114.127 167.692 118.363 166.18 123.129C164.669 127.895 164.548 132.993 165.832 137.825C167.116 142.658 169.752 147.023 173.43 150.41C177.109 153.797 181.677 156.064 186.598 156.946L189.835 162.552C189.977 162.798 190.181 163.001 190.426 163.143C190.671 163.284 190.949 163.359 191.232 163.359C191.516 163.359 191.794 163.284 192.039 163.143C192.284 163.001 192.488 162.798 192.629 162.552L195.866 156.946C201.936 155.858 207.429 152.672 211.387 147.943C215.344 143.215 217.513 137.245 217.514 131.08Z" fill="url(#paint12_linear_2543_20729)"></path></g><path d="M70.4277 91.2394C88.6153 91.2394 103.359 76.4954 103.359 58.3078C103.359 40.1202 88.6153 25.3762 70.4277 25.3762C52.2401 25.3762 37.4961 40.1202 37.4961 58.3078C37.4961 76.4954 52.2401 91.2394 70.4277 91.2394Z" fill="#C5E5FC"></path><path d="M69.0567 49.5531L64.376 52.4304V47.8199L69.0567 45.0115H73.3197V69.9717H69.0567V49.5531Z" fill="#163351"></path><path d="M206.075 116.943L193.691 126.106L195.994 120.706L206.075 116.943Z" fill="#E17726" stroke="#E17726" stroke-width="0.170407" stroke-linecap="round" stroke-linejoin="round"></path><path d="M177.511 116.943L189.784 126.191L187.592 120.706L177.511 116.943Z" fill="#E27625" stroke="#E27625" stroke-width="0.170407" stroke-linecap="round" stroke-linejoin="round"></path><path d="M201.616 138.188L198.321 143.222L205.377 145.165L207.398 138.299L201.616 138.188Z" fill="#E27625" stroke="#E27625" stroke-width="0.170407" stroke-linecap="round" stroke-linejoin="round"></path><path d="M176.2 138.299L178.209 145.165L185.252 143.222L181.969 138.188L176.2 138.299Z" fill="#E27625" stroke="#E27625" stroke-width="0.170407" stroke-linecap="round" stroke-linejoin="round"></path><path d="M184.872 129.685L182.912 132.642L189.894 132.96L189.661 125.446L184.872 129.685Z" fill="#E27625" stroke="#E27625" stroke-width="0.170407" stroke-linecap="round" stroke-linejoin="round"></path><path d="M198.713 129.685L193.851 125.36L193.691 132.96L200.673 132.642L198.713 129.685Z" fill="#E27625" stroke="#E27625" stroke-width="0.170407" stroke-linecap="round" stroke-linejoin="round"></path><path d="M185.252 143.222L189.478 141.182L185.84 138.348L185.252 143.222Z" fill="#E27625" stroke="#E27625" stroke-width="0.170407" stroke-linecap="round" stroke-linejoin="round"></path><path d="M194.108 141.182L198.321 143.222L197.746 138.348L194.108 141.182Z" fill="#E27625" stroke="#E27625" stroke-width="0.170407" stroke-linecap="round" stroke-linejoin="round"></path><path d="M198.321 143.222L194.108 141.182L194.451 143.919L194.414 145.079L198.321 143.222Z" fill="#D5BFB2" stroke="#D5BFB2" stroke-width="0.170407" stroke-linecap="round" stroke-linejoin="round"></path><path d="M185.252 143.222L189.172 145.079L189.147 143.919L189.478 141.182L185.252 143.222Z" fill="#D5BFB2" stroke="#D5BFB2" stroke-width="0.170407" stroke-linecap="round" stroke-linejoin="round"></path><path d="M189.245 136.539L185.742 135.513L188.216 134.376L189.245 136.539Z" fill="#233447" stroke="#233447" stroke-width="0.170407" stroke-linecap="round" stroke-linejoin="round"></path><path d="M194.34 136.539L195.369 134.376L197.856 135.513L194.34 136.539Z" fill="#233447" stroke="#233447" stroke-width="0.170407" stroke-linecap="round" stroke-linejoin="round"></path><path d="M185.252 143.222L185.864 138.188L181.969 138.299L185.252 143.222Z" fill="#CC6228" stroke="#CC6228" stroke-width="0.170407" stroke-linecap="round" stroke-linejoin="round"></path><path d="M197.721 138.188L198.321 143.222L201.616 138.299L197.721 138.188Z" fill="#CC6228" stroke="#CC6228" stroke-width="0.170407" stroke-linecap="round" stroke-linejoin="round"></path><path d="M200.673 132.642L193.691 132.959L194.341 136.539L195.37 134.377L197.856 135.513L200.673 132.642Z" fill="#CC6228" stroke="#CC6228" stroke-width="0.170407" stroke-linecap="round" stroke-linejoin="round"></path><path d="M185.742 135.513L188.216 134.377L189.245 136.539L189.894 132.959L182.912 132.642L185.742 135.513Z" fill="#CC6228" stroke="#CC6228" stroke-width="0.170407" stroke-linecap="round" stroke-linejoin="round"></path><path d="M182.913 132.642L185.84 138.347L185.742 135.513L182.913 132.642Z" fill="#E27525" stroke="#E27525" stroke-width="0.170407" stroke-linecap="round" stroke-linejoin="round"></path><path d="M197.856 135.513L197.746 138.347L200.673 132.642L197.856 135.513Z" fill="#E27525" stroke="#E27525" stroke-width="0.170407" stroke-linecap="round" stroke-linejoin="round"></path><path d="M189.894 132.959L189.245 136.539L190.066 140.766L190.25 135.195L189.894 132.959Z" fill="#E27525" stroke="#E27525" stroke-width="0.170407" stroke-linecap="round" stroke-linejoin="round"></path><path d="M193.691 132.959L193.348 135.183L193.52 140.766L194.34 136.539L193.691 132.959Z" fill="#E27525" stroke="#E27525" stroke-width="0.170407" stroke-linecap="round" stroke-linejoin="round"></path><path d="M194.34 136.539L193.52 140.766L194.107 141.182L197.745 138.347L197.856 135.513L194.34 136.539Z" fill="#F5841F" stroke="#F5841F" stroke-width="0.170407" stroke-linecap="round" stroke-linejoin="round"></path><path d="M185.742 135.513L185.84 138.347L189.478 141.182L190.066 140.766L189.245 136.539L185.742 135.513Z" fill="#F5841F" stroke="#F5841F" stroke-width="0.170407" stroke-linecap="round" stroke-linejoin="round"></path><path d="M194.414 145.079L194.451 143.919L194.132 143.65H189.453L189.147 143.919L189.172 145.079L185.252 143.222L186.624 144.346L189.404 146.265H194.169L196.962 144.346L198.321 143.222L194.414 145.079Z" fill="#C0AC9D" stroke="#C0AC9D" stroke-width="0.170407" stroke-linecap="round" stroke-linejoin="round"></path><path d="M194.108 141.182L193.52 140.767H190.066L189.478 141.182L189.147 143.919L189.453 143.65H194.132L194.451 143.919L194.108 141.182Z" fill="#161616" stroke="#161616" stroke-width="0.170407" stroke-linecap="round" stroke-linejoin="round"></path><path d="M206.602 126.704L207.643 121.647L206.075 116.943L194.108 125.8L198.713 129.685L205.218 131.579L206.651 129.905L206.026 129.453L207.018 128.549L206.259 127.963L207.251 127.205L206.602 126.704Z" fill="#763E1A" stroke="#763E1A" stroke-width="0.170407" stroke-linecap="round" stroke-linejoin="round"></path><path d="M175.943 121.647L176.996 126.704L176.323 127.205L177.327 127.963L176.568 128.549L177.56 129.453L176.935 129.905L178.368 131.579L184.872 129.685L189.478 125.8L177.511 116.943L175.943 121.647Z" fill="#763E1A" stroke="#763E1A" stroke-width="0.170407" stroke-linecap="round" stroke-linejoin="round"></path><path d="M205.217 131.579L198.713 129.685L200.673 132.642L197.746 138.347L201.616 138.298H207.398L205.217 131.579Z" fill="#F5841F" stroke="#F5841F" stroke-width="0.170407" stroke-linecap="round" stroke-linejoin="round"></path><path d="M184.872 129.685L178.368 131.579L176.2 138.298H181.969L185.839 138.347L182.912 132.642L184.872 129.685Z" fill="#F5841F" stroke="#F5841F" stroke-width="0.170407" stroke-linecap="round" stroke-linejoin="round"></path><path d="M193.691 132.96L194.108 125.801L195.994 120.706H187.591L189.478 125.801L189.894 132.96L190.053 135.208L190.066 140.767H193.52L193.532 135.208L193.691 132.96Z" fill="#F5841F" stroke="#F5841F" stroke-width="0.170407" stroke-linecap="round" stroke-linejoin="round"></path><defs><linearGradient id="paint0_linear_2543_20729" x1="103.573" y1="177.586" x2="107.233" y2="159.533" gradientUnits="userSpaceOnUse"><stop stop-color="#F7B391"></stop><stop offset="1" stop-color="#F3A078"></stop></linearGradient><linearGradient id="paint1_linear_2543_20729" x1="7877.07" y1="2228.8" x2="7881.31" y2="2009.51" gradientUnits="userSpaceOnUse"><stop stop-color="#F7B391"></stop><stop offset="1" stop-color="#F3A078"></stop></linearGradient><linearGradient id="paint2_linear_2543_20729" x1="102.944" y1="62.877" x2="112.093" y2="118.502" gradientUnits="userSpaceOnUse"><stop stop-color="#A65000"></stop><stop offset="1" stop-color="#7E3200"></stop></linearGradient><linearGradient id="paint3_linear_2543_20729" x1="6805.45" y1="3494.57" x2="6788.96" y2="2885.18" gradientUnits="userSpaceOnUse"><stop stop-color="#F7B391"></stop><stop offset="1" stop-color="#F3A078"></stop></linearGradient><linearGradient id="paint4_linear_2543_20729" x1="117.481" y1="133.513" x2="129.557" y2="138.453" gradientUnits="userSpaceOnUse"><stop stop-color="#F7B391"></stop><stop offset="1" stop-color="#EF956A"></stop></linearGradient><linearGradient id="paint5_linear_2543_20729" x1="132.241" y1="200.245" x2="127.291" y2="187.215" gradientUnits="userSpaceOnUse"><stop stop-color="#F9C900"></stop><stop offset="1" stop-color="#EA9F00"></stop></linearGradient><linearGradient id="paint6_linear_2543_20729" x1="2654.21" y1="4692.33" x2="2840.88" y2="4037.17" gradientUnits="userSpaceOnUse"><stop stop-color="#F9C900"></stop><stop offset="1" stop-color="#EA9F00"></stop></linearGradient><linearGradient id="paint7_linear_2543_20729" x1="156.005" y1="222.784" x2="102.445" y2="207.006" gradientUnits="userSpaceOnUse"><stop offset="0.0057" stop-color="#F9C900"></stop><stop offset="1" stop-color="#EA9F00"></stop></linearGradient><linearGradient id="paint8_linear_2543_20729" x1="116.222" y1="181.985" x2="105.393" y2="234.014" gradientUnits="userSpaceOnUse"><stop stop-color="#C5E5FC"></stop><stop offset="1" stop-color="#87CAFA"></stop></linearGradient><linearGradient id="paint9_linear_2543_20729" x1="106.629" y1="191.072" x2="106.833" y2="184.108" gradientUnits="userSpaceOnUse"><stop stop-color="#87CAFA"></stop><stop offset="1" stop-color="#64B5F3"></stop></linearGradient><linearGradient id="paint10_linear_2543_20729" x1="1557.07" y1="3515.93" x2="1682.28" y2="3515.93" gradientUnits="userSpaceOnUse"><stop stop-color="#87CAFA"></stop><stop offset="1" stop-color="#64B5F3"></stop></linearGradient><linearGradient id="paint11_linear_2543_20729" x1="180.633" y1="179.681" x2="185" y2="320.499" gradientUnits="userSpaceOnUse"><stop stop-color="#183985"></stop><stop offset="1" stop-color="#0C164C"></stop></linearGradient><linearGradient id="paint12_linear_2543_20729" x1="192.056" y1="97.9996" x2="190.063" y2="178.035" gradientUnits="userSpaceOnUse"><stop offset="0.0007" stop-color="#F0F9FF"></stop><stop offset="1" stop-color="#C5E5FC"></stop></linearGradient></defs></svg> 