<?xml version="1.0" encoding="UTF-8"?> <svg xmlns="http://www.w3.org/2000/svg" width="273" height="236" viewBox="0 0 273 236" fill="none"><g clip-path="url(#clip0_2543_20461)"><mask id="mask0_2543_20461" style="mask-type:alpha" maskUnits="userSpaceOnUse" x="37" y="18" width="205" height="204"><path d="M42.6587 92.0386L101.075 25.6318C104.074 22.2227 108.108 19.8907 112.558 18.993C117.009 18.0954 121.632 18.6816 125.717 20.6619L211.244 62.1144C214.061 63.48 216.534 65.4654 218.476 67.9218C220.417 70.3782 221.778 73.242 222.457 76.2989L240.546 157.813C241.603 162.58 240.947 167.567 238.693 171.897C236.438 176.228 232.729 179.626 228.218 181.493L136.565 219.43C133.775 220.585 130.766 221.118 127.749 220.99C124.732 220.863 121.779 220.079 119.096 218.693L48.7178 182.335C45.3337 180.587 42.4959 177.941 40.5148 174.688C38.5337 171.435 37.4858 167.699 37.4858 163.89V105.751C37.4858 100.703 39.3248 95.8285 42.6587 92.0386Z" fill="#87CAFA"></path></mask><g mask="url(#mask0_2543_20461)"><path d="M42.6587 92.0386L101.075 25.6318C104.074 22.2227 108.108 19.8907 112.558 18.993C117.009 18.0954 121.632 18.6816 125.717 20.6619L211.244 62.1144C214.061 63.48 216.534 65.4654 218.476 67.9218C220.417 70.3782 221.778 73.242 222.457 76.2989L240.546 157.813C241.603 162.58 240.947 167.567 238.693 171.897C236.438 176.228 232.729 179.626 228.218 181.493L136.565 219.43C133.775 220.585 130.766 221.118 127.749 220.99C124.732 220.863 121.779 220.079 119.096 218.693L48.7178 182.335C45.3337 180.587 42.4959 177.941 40.5148 174.688C38.5337 171.435 37.4858 167.699 37.4858 163.89V105.751C37.4858 100.703 39.3248 95.8285 42.6587 92.0386Z" fill="#87CAFA"></path><path d="M134.913 216.257C183.592 216.257 223.054 176.795 223.054 128.116C223.054 79.437 183.592 39.9749 134.913 39.9749C86.2341 39.9749 46.772 79.437 46.772 128.116C46.772 176.795 86.2341 216.257 134.913 216.257Z" fill="#87CAFA"></path><path d="M106.341 185.713C95.3608 185.946 84.5046 188.084 74.2559 192.031C90.3431 207.316 111.606 215.965 133.795 216.25C155.983 216.535 177.462 208.435 193.936 193.568C182.117 190.672 170.004 189.149 157.835 189.029C146.928 189.029 106.341 185.713 106.341 185.713Z" fill="#F9C900"></path><path d="M135.234 168.897C146.892 168.775 158.597 171.247 159.086 172.226C159.575 173.204 155.733 179.219 154.425 179.777C153.118 180.335 116.888 180.633 115.731 179.777C114.574 178.921 110.174 172.993 111.213 170.915C112.252 168.836 116.531 168.286 117.997 168.286C119.464 168.286 135.234 168.897 135.234 168.897Z" fill="#C5E5FC"></path><path d="M114.636 146.588L115.732 177.393L141.651 193.651L146.663 192.55L153.142 180.816C153.142 180.816 152.409 164.435 149.964 160.035C147.519 155.634 114.636 146.588 114.636 146.588Z" fill="#F7B391"></path><path opacity="0.65" d="M152.618 173.572C152.148 168.6 151.32 162.475 149.963 160.034C149.439 159.09 147.508 157.93 144.803 156.692L114.864 153.005L114.988 156.502C117.41 161.811 119.866 165.762 123.926 167.491C128.877 169.6 132.894 172.442 144.592 173.45C147.258 173.735 149.945 173.776 152.618 173.572Z" fill="url(#paint0_linear_2543_20461)"></path><path d="M125.026 70.0652C117.692 73.7324 104.49 80.0889 103.512 87.6678C102.534 95.2467 102.045 121.895 103.512 124.829C104.979 127.763 107.926 141.836 109.899 145.488C111.947 149.277 117.984 157.752 123.56 161.165C128.816 164.383 135.936 164.175 144.096 164.19C153.081 164.207 157.706 161.685 159.987 160.331C161.515 159.423 163.166 149.554 164.143 145.381C165.121 141.209 170.989 133.141 170.989 127.029C170.989 120.917 168.086 92.0988 166.741 85.2534C165.396 78.4079 171.478 82.2889 165.855 77.8883C160.232 73.4877 125.026 70.0652 125.026 70.0652Z" fill="#F9BFA3"></path><path opacity="0.65" d="M166.741 85.2534C166.698 85.0351 166.663 84.8287 166.635 84.6311L155.476 79.5999L108.368 83.6338C108.368 83.6338 102.656 85.7119 105.223 88.7679C107.791 91.8239 120.165 98.5318 129.84 97.6762C139.515 96.8206 138.048 88.6907 146.342 87.7747C156.58 86.6439 162.249 87.2705 167.561 90.5997C167.257 88.3125 166.975 86.4449 166.741 85.2534Z" fill="url(#paint1_linear_2543_20461)"></path><path d="M103.046 122.654C104.949 122.975 105.648 123.23 106.202 122.654C107.607 121.192 106.813 86.2009 106.813 86.2009C106.813 86.2009 112.436 92.8493 126.127 93.7052C139.818 94.561 137.862 84.0006 146.785 83.7561C155.709 83.5115 164.983 85.8312 167.388 89.3165C171.845 86.8779 175.601 79.8273 176.857 75.8104C177.769 72.8912 170.133 63.4641 155.587 59.3079C141.04 55.1517 125.393 57.7188 117.447 61.0193C109.501 64.3198 95.9332 71.4098 94.3438 75.6882C92.213 81.425 91.8994 90.6016 92.6325 95.2467C93.3655 99.8918 97.2776 116.15 97.8888 117.128C98.5 118.106 101.808 122.446 103.046 122.654Z" fill="url(#paint2_linear_2543_20461)"></path><path opacity="0.65" d="M116.958 128.068C118.364 135.342 122.337 137.786 125.21 138.795C127.337 139.542 132.606 140.334 135.092 138.154C139.191 134.557 140.574 131.191 141.087 128.13C141.6 125.068 143.118 121.407 147.929 121.101C149.902 120.976 153.354 121.807 153.142 123.913C153.038 125.891 153.35 127.869 154.059 129.719C154.479 130.779 156.263 134.735 158.49 136.765C160.351 138.468 162.777 139.42 165.299 139.437C165.832 139.359 166.334 139.136 166.749 138.794C167.165 138.452 167.48 138.003 167.66 137.495C167.97 136.856 163.807 124.035 163.807 124.035L155.164 121.473L151.869 119.758L147.382 118.987L142.262 121.01L116.958 128.068Z" fill="url(#paint3_linear_2543_20461)"></path><path d="M154.717 123.195C154.467 122.893 152.179 120.235 148.954 119.932C146.452 119.698 144.295 121.05 142.568 122.139C142.225 122.355 141.899 122.561 141.587 122.744L140.586 121.047C140.881 120.873 141.192 120.677 141.517 120.472C143.392 119.289 145.956 117.668 149.139 117.97C153.07 118.34 155.74 121.339 156.236 121.937L154.717 123.195Z" fill="#1F2B31"></path><path d="M117.406 119.376C111.33 119.15 101.281 118.988 99.3055 119.007L99.2837 117.036C101.332 117.017 111.257 117.175 117.479 117.406L117.406 119.376Z" fill="#1F2B31"></path><path d="M166.869 106.021C173.888 106.53 177.49 112.742 176.946 121.877C176.757 125.063 173.956 136.386 165.12 135.99C159.119 135.721 153.46 130.341 154.041 120.137C154.584 110.614 161.505 105.633 166.869 106.021Z" fill="#1F2B31"></path><path d="M165.58 137C165.412 137 165.244 136.996 165.07 136.989C158.833 136.707 152.409 131.294 153.043 120.077C153.338 114.867 155.482 110.449 159.081 107.638C160.132 106.757 161.369 106.071 162.72 105.619C164.071 105.168 165.509 104.959 166.951 105.007C174.317 105.545 178.53 112.026 177.946 121.922C177.767 124.964 174.996 137 165.58 137ZM166.281 106.769C164.087 106.857 162.001 107.642 160.4 108.982C158.554 110.424 155.404 113.794 155.043 120.167C154.479 130.159 159.898 134.967 165.172 135.205C173.393 135.575 175.811 124.102 175.946 121.828C176.474 112.867 173.051 107.245 166.787 106.787C166.62 106.775 166.451 106.769 166.281 106.769Z" fill="#1F2B31"></path><path d="M129.894 106.005C137.287 106.21 141.962 111.93 142 121.536C142.018 126.242 139.708 132.203 136.25 134.87C132.791 137.537 128.114 137.119 125.825 136.666C122.496 136.007 115.872 132.046 116.002 121.371C116.142 109.796 124.244 105.848 129.894 106.005Z" fill="#1F2B31"></path><path d="M129.2 136.996C127.991 136.993 126.786 136.878 125.606 136.651C121.88 135.93 114.868 131.702 115.002 120.862C115.087 114.065 117.975 110.272 120.382 108.286C121.641 107.223 123.133 106.385 124.771 105.821C126.409 105.257 128.161 104.979 129.925 105.002C137.951 105.22 142.961 111.361 143 121.029C143.017 125.42 140.889 131.705 136.91 134.703C134.752 136.253 132.009 137.069 129.2 136.996ZM129.552 106.747C126.643 106.793 123.866 107.796 121.791 109.55C118.742 112.064 117.099 115.982 117.038 120.881C116.917 130.6 122.882 134.33 126.053 134.943C127.835 135.288 132.33 135.827 135.568 133.386C138.613 131.093 140.982 125.667 140.964 121.035C140.929 112.279 136.778 106.94 129.86 106.752C129.758 106.749 129.655 106.747 129.552 106.747Z" fill="#1F2B31"></path><path d="M103.634 123.362C102.412 119.939 99.9671 115.172 97.5223 114.805C96.5177 114.66 95.4925 114.801 94.5644 115.211C93.6363 115.622 92.8429 116.287 92.2753 117.128C91.7158 118.29 91.3265 119.206 91.3491 122.566C91.3632 124.662 92.6442 129.783 95.0775 131.858C97.1555 133.631 99.9056 134.67 101.678 134.548C103.451 134.425 107.485 133.264 107.424 132.469C107.363 131.675 103.634 123.362 103.634 123.362Z" fill="#F9BFA3"></path><path opacity="0.65" d="M152.668 134.44C152.804 133.728 152.716 132.992 152.416 132.332C152.302 132.125 149.414 127.725 150.056 127.037C150.31 126.764 150.618 127.105 150.789 127.404C153.05 131.354 155.809 132.652 155.809 133.936C155.703 135.294 155.077 136.558 154.06 137.464C153.043 138.37 151.714 138.847 150.354 138.795C148.13 138.794 147.931 138.302 147.93 138.039C147.956 137.838 148.048 137.652 148.193 137.511C148.337 137.369 148.525 137.281 148.726 137.259C151.683 136.765 152.554 135.472 152.668 134.44Z" fill="url(#paint4_linear_2543_20461)"></path><path d="M164.288 191.466C157.683 199.229 155.61 197.835 154.808 197.636C153.277 196.952 151.786 196.178 150.344 195.321L160.674 183.902C160.674 183.902 165.547 187.883 165.29 189.077C165.076 189.919 164.738 190.724 164.288 191.466Z" fill="url(#paint5_linear_2543_20461)"></path><path d="M132.99 195.009C132.086 198.754 130.828 200.221 129.257 200.221C127.685 200.221 115.859 193.932 113.2 190.246C110.541 186.561 107.334 182.068 107.425 181.06C107.516 180.051 131.126 193.143 131.126 193.143L132.99 195.009" fill="url(#paint6_linear_2543_20461)"></path><path d="M178.082 204.969C177.371 202.992 176.158 201.235 174.56 199.872C172.963 198.508 171.037 197.585 168.974 197.193C155.782 194.675 142.737 191.441 129.897 187.506C117.628 186.635 106.341 185.713 106.341 185.713C95.3608 185.946 84.5046 188.084 74.2559 192.031C90.0592 207.033 110.231 230.291 133.742 230.291C149.427 230.292 165.323 212.153 178.082 204.969Z" fill="url(#paint7_linear_2543_20461)"></path><path d="M137.923 181.61C138.656 182.16 142.14 191.205 142.996 191.205C143.852 191.205 144.646 186.041 144.83 185.185C145.754 183.258 146.95 181.474 148.382 179.888C149.076 179.384 152.347 179.165 152.714 180.632C153.081 182.099 155.587 190.289 154.792 191.205C153.998 192.122 144.891 200.985 143.241 200.985C140.735 200.985 134.072 197.012 129.733 191.511C125.393 186.01 137.923 181.61 137.923 181.61Z" fill="url(#paint8_linear_2543_20461)"></path><path opacity="0.65" d="M137.923 181.61C135.845 186.148 132.99 195.009 132.99 195.009C132.99 195.009 132.411 194.5 131.126 193.143C129.84 191.786 135.646 181.335 137.923 181.61Z" fill="url(#paint9_linear_2543_20461)"></path><path d="M112.132 169.877C110.052 170.73 108.829 173.114 108.524 173.664C108.219 174.214 105.59 179.776 105.774 180.571C105.957 181.366 111.214 186.5 113.353 188.15C115.492 189.8 125.393 196.218 126.921 196.707C127.464 196.837 128.034 196.801 128.557 196.605C129.079 196.409 129.532 196.062 129.855 195.607C130.161 195.24 136.578 181.732 137.923 181.61C134.791 180.41 128.685 179.214 125.76 178.309C122.399 177.27 115.705 174.734 114.055 172.755C113.334 171.851 112.691 170.889 112.132 169.877Z" fill="#F0F9FF"></path><path opacity="0.65" d="M150.477 195.397C145.769 191.603 147.672 179.923 148.268 180.171C148.864 180.418 157.822 185.919 157.822 185.919L154.041 191.984L150.477 195.397Z" fill="url(#paint10_linear_2543_20461)"></path><path d="M159.086 172.225C157.878 173.892 156.413 175.357 154.747 176.564C153.42 177.547 148.085 179.366 148.268 180.17C148.451 180.975 154.685 194.533 156.03 194.473C157.375 194.412 165.259 188.727 165.381 187.933C165.504 187.138 164.321 182.103 163.242 179.62C162.02 176.809 159.56 172.179 159.086 172.225Z" fill="#F0F9FF"></path><path d="M148.536 192.688C148.953 193.736 149.619 194.666 150.477 195.397L152.334 193.618C151.1 193.324 149.829 193.012 148.536 192.688Z" fill="#41A1ED"></path><path d="M130.558 208.926H56.6665L59.4965 207.57H127.73L130.558 208.926Z" fill="#5697F9"></path><path d="M130.558 208.926H56.6665V223.135H130.558V208.926Z" fill="#1F2B31"></path><path d="M103.91 208.926H83.3813L84.1712 207.57H103.384L103.91 208.926Z" fill="#F0F9FF"></path><path d="M103.91 208.926H83.3813V223.135H103.91V208.926Z" fill="#E5F3FE"></path><path d="M125.069 194.027H51.1772L54.0072 192.671H122.241L125.069 194.027Z" fill="#5697F9"></path><path d="M125.069 194.027H51.1772V208.237H125.069V194.027Z" fill="#1F2B31"></path><path d="M98.4216 194.027H77.8926L78.6823 192.671H97.8956L98.4216 194.027Z" fill="#F0F9FF"></path><path d="M98.4216 194.027H77.8926V208.237H98.4216V194.027Z" fill="#E5F3FE"></path><path d="M81.7775 180.119H33.0059L34.8737 179.224H79.9104L81.7775 180.119Z" fill="#5697F9"></path><path d="M81.7775 180.119H33.0059V189.498H81.7775V180.119Z" fill="#1F2B31"></path><path d="M64.1892 180.119H50.6392L51.1605 179.224H63.8418L64.1892 180.119Z" fill="#E5F3FE"></path><path d="M64.1892 180.119H50.6392V189.498H64.1892V180.119Z" fill="#C5E5FC"></path><path d="M81.7775 170.197H33.0059L34.8737 169.302H79.9104L81.7775 170.197Z" fill="#5697F9"></path><path d="M81.7775 170.197H33.0059V179.576H81.7775V170.197Z" fill="#1F2B31"></path><path d="M64.1892 170.197H50.6392L51.1605 169.302H63.8418L64.1892 170.197Z" fill="#E5F3FE"></path><path d="M64.1892 170.197H50.6392V179.576H64.1892V170.197Z" fill="#C5E5FC"></path><path d="M81.7775 160.37H33.0059L34.8737 159.475H79.9104L81.7775 160.37Z" fill="#5697F9"></path><path d="M81.7775 160.371H33.0059V169.749H81.7775V160.371Z" fill="#1F2B31"></path><path d="M64.1892 160.371H50.6392L51.1605 159.475H63.8418L64.1892 160.371Z" fill="#E5F3FE"></path><path d="M64.1892 160.371H50.6392V169.749H64.1892V160.371Z" fill="#C5E5FC"></path><path d="M80.9108 150.448H32.1392L34.007 149.553H79.0437L80.9108 150.448Z" fill="#5697F9"></path><path d="M80.9108 150.448H32.1392V159.827H80.9108V150.448Z" fill="#1F2B31"></path><path d="M63.3225 150.448H49.7725L50.2938 149.553H62.9751L63.3225 150.448Z" fill="#E5F3FE"></path><path d="M63.3225 150.448H49.7725V159.827H63.3225V150.448Z" fill="#C5E5FC"></path><path d="M238.441 180.471H189.669L191.537 179.575H236.574L238.441 180.471Z" fill="#5697F9"></path><path d="M238.441 180.471H189.669V189.85H238.441V180.471Z" fill="#1F2B31"></path><path d="M220.852 180.471H207.302L207.824 179.575H220.505L220.852 180.471Z" fill="#E5F3FE"></path><path d="M220.852 180.471H207.302V189.85H220.852V180.471Z" fill="#C5E5FC"></path><path d="M238.441 170.549H189.669L191.537 169.653H236.574L238.441 170.549Z" fill="#5697F9"></path><path d="M238.441 170.549H189.669V179.927H238.441V170.549Z" fill="#1F2B31"></path><path d="M220.852 170.549H207.302L207.824 169.653H220.505L220.852 170.549Z" fill="#E5F3FE"></path><path d="M220.852 170.549H207.302V179.927H220.852V170.549Z" fill="#C5E5FC"></path><path d="M238.441 160.722H189.669L191.537 159.827H236.574L238.441 160.722Z" fill="#5697F9"></path><path d="M238.441 160.722H189.669V170.101H238.441V160.722Z" fill="#1F2B31"></path><path d="M220.852 160.722H207.302L207.824 159.827H220.505L220.852 160.722Z" fill="#E5F3FE"></path><path d="M220.852 160.722H207.302V170.101H220.852V160.722Z" fill="#C5E5FC"></path><path d="M237.574 150.8H188.802L190.67 149.905H235.707L237.574 150.8Z" fill="#5697F9"></path><path d="M237.574 150.8H188.802V160.179H237.574V150.8Z" fill="#1F2B31"></path><path d="M219.985 150.8H206.435L206.956 149.905H219.638L219.985 150.8Z" fill="#E5F3FE"></path><path d="M219.985 150.8H206.435V160.179H219.985V150.8Z" fill="#C5E5FC"></path><path d="M132.127 179.128H58.2349L61.0648 177.772H129.298L132.127 179.128Z" fill="#5697F9"></path><path d="M132.127 179.128H58.2349V193.338H132.127V179.128Z" fill="#1F2B31"></path><path d="M105.479 179.128H84.9497L85.7395 177.772H104.953L105.479 179.128Z" fill="#F0F9FF"></path><path d="M105.479 179.128H84.9497V193.338H105.479V179.128Z" fill="#E5F3FE"></path><path d="M224.447 200.258H150.555L153.385 198.902H221.619L224.447 200.258Z" fill="#5697F9"></path><path d="M224.447 200.258H150.555V214.468H224.447V200.258Z" fill="#1F2B31"></path><path d="M197.799 200.258H177.27L178.06 198.902H197.273L197.799 200.258Z" fill="#F0F9FF"></path><path d="M197.799 200.258H177.27V214.468H197.799L197.799 200.258Z" fill="#E5F3FE"></path><path d="M218.958 185.359H145.066L147.896 184.003H216.13L218.958 185.359Z" fill="#5697F9"></path><path d="M218.958 185.359H145.066V199.569H218.958V185.359Z" fill="#1F2B31"></path><path d="M192.31 185.359H171.781L172.571 184.003H191.784L192.31 185.359Z" fill="#F0F9FF"></path><path d="M192.31 185.359H171.781V199.569H192.31V185.359Z" fill="#E5F3FE"></path><path d="M218.958 215.549H145.066L147.896 214.193H216.13L218.958 215.549Z" fill="#6DA000"></path><path d="M218.958 215.549H145.066V229.759H218.958V215.549Z" fill="#527800"></path><path d="M192.31 215.549H171.781L172.571 214.193H191.784L192.31 215.549Z" fill="#F0F9FF"></path><path d="M192.31 215.549H171.781V229.759H192.31V215.549Z" fill="#E5F3FE"></path><path d="M127.321 163.601H53.4292L56.2591 162.245H124.493L127.321 163.601Z" fill="#5697F9"></path><path d="M127.321 163.601H53.4292V177.81H127.321V163.601Z" fill="#1F2B31"></path><path d="M100.673 163.601H80.144L80.9339 162.244H100.147L100.673 163.601Z" fill="#F0F9FF"></path><path d="M100.673 163.601H80.144V177.81H100.673V163.601Z" fill="#E5F3FE"></path></g><path d="M69.4907 90.4672C87.6783 90.4672 102.422 75.7232 102.422 57.5356C102.422 39.348 87.6783 24.604 69.4907 24.604C51.3031 24.604 36.5591 39.348 36.5591 57.5356C36.5591 75.7232 51.3031 90.4672 69.4907 90.4672Z" fill="#C5E5FC"></path><path d="M132.644 111L130.301 115.331H131.212V119.408V126.997C131.219 127.213 131.18 127.428 131.096 127.629C131.012 127.83 130.886 128.013 130.725 128.167C130.564 128.321 130.371 128.442 130.159 128.523C129.947 128.604 129.719 128.644 129.49 128.639C129.096 128.662 128.707 128.552 128.393 128.329C128.078 128.106 127.857 127.785 127.772 127.422V119.314H128.686L126.343 114.964L124 119.299H124.907V119.392H124.882V126.595C124.882 126.782 124.882 126.966 124.907 127.141V127.465H124.948C125.283 129.654 126.91 131 129.502 131C132.301 131 134.089 129.295 134.089 126.595V124.773V115.315H135L132.644 111Z" fill="#5697F9"></path><path d="M169.644 111L167.301 115.331H168.212V119.408V126.997C168.219 127.213 168.18 127.428 168.096 127.629C168.012 127.83 167.886 128.013 167.725 128.167C167.564 128.321 167.371 128.442 167.159 128.523C166.947 128.604 166.719 128.644 166.49 128.639C166.096 128.662 165.707 128.552 165.393 128.329C165.078 128.106 164.857 127.785 164.772 127.422V119.314H165.686L163.343 114.964L161 119.299H161.907V119.392H161.882V126.595C161.882 126.782 161.882 126.966 161.907 127.141V127.465H161.948C162.283 129.654 163.91 131 166.502 131C169.301 131 171.089 129.295 171.089 126.595V124.773V115.315H172L169.644 111Z" fill="#5697F9"></path><path d="M71.0585 64.8346H60V60.918L68.0078 44H72.7566L64.7827 60.918H71.0584V54.4343H75.2874V60.918H77.644V64.8346H75.2876V68.9606H71.0585V64.8346Z" fill="#163351"></path></g><defs><linearGradient id="paint0_linear_2543_20461" x1="131.32" y1="175.236" x2="134.987" y2="157.144" gradientUnits="userSpaceOnUse"><stop stop-color="#F7B391"></stop><stop offset="1" stop-color="#F3A078"></stop></linearGradient><linearGradient id="paint1_linear_2543_20461" x1="9938.41" y1="2178.24" x2="9942.67" y2="1958.03" gradientUnits="userSpaceOnUse"><stop stop-color="#F7B391"></stop><stop offset="1" stop-color="#F3A078"></stop></linearGradient><linearGradient id="paint2_linear_2543_20461" x1="130.689" y1="60.2849" x2="139.858" y2="116.027" gradientUnits="userSpaceOnUse"><stop stop-color="#A65000"></stop><stop offset="1" stop-color="#7E3200"></stop></linearGradient><linearGradient id="paint3_linear_2543_20461" x1="8472.13" y1="3441.37" x2="8455.57" y2="2829.45" gradientUnits="userSpaceOnUse"><stop stop-color="#F7B391"></stop><stop offset="1" stop-color="#F3A078"></stop></linearGradient><linearGradient id="paint4_linear_2543_20461" x1="145.257" y1="131.069" x2="157.359" y2="136.02" gradientUnits="userSpaceOnUse"><stop stop-color="#F7B391"></stop><stop offset="1" stop-color="#EF956A"></stop></linearGradient><linearGradient id="paint5_linear_2543_20461" x1="160.047" y1="197.941" x2="155.088" y2="184.885" gradientUnits="userSpaceOnUse"><stop stop-color="#F9C900"></stop><stop offset="1" stop-color="#EA9F00"></stop></linearGradient><linearGradient id="paint6_linear_2543_20461" x1="3504.74" y1="4648.58" x2="3692.2" y2="3990.66" gradientUnits="userSpaceOnUse"><stop stop-color="#F9C900"></stop><stop offset="1" stop-color="#EA9F00"></stop></linearGradient><linearGradient id="paint7_linear_2543_20461" x1="182.899" y1="223.798" x2="129.226" y2="207.987" gradientUnits="userSpaceOnUse"><stop offset="0.0057" stop-color="#F9C900"></stop><stop offset="1" stop-color="#EA9F00"></stop></linearGradient><linearGradient id="paint8_linear_2543_20461" x1="143.995" y1="179.643" x2="133.144" y2="231.782" gradientUnits="userSpaceOnUse"><stop stop-color="#C5E5FC"></stop><stop offset="1" stop-color="#87CAFA"></stop></linearGradient><linearGradient id="paint9_linear_2543_20461" x1="134.382" y1="188.749" x2="134.587" y2="181.771" gradientUnits="userSpaceOnUse"><stop stop-color="#87CAFA"></stop><stop offset="1" stop-color="#64B5F3"></stop></linearGradient><linearGradient id="paint10_linear_2543_20461" x1="1922.48" y1="3479.68" x2="2048.22" y2="3479.68" gradientUnits="userSpaceOnUse"><stop stop-color="#87CAFA"></stop><stop offset="1" stop-color="#64B5F3"></stop></linearGradient><clipPath id="clip0_2543_20461"><rect width="272.177" height="235.771" fill="white"></rect></clipPath></defs></svg> 