<?xml version="1.0" encoding="UTF-8"?> <svg xmlns="http://www.w3.org/2000/svg" width="272" height="237" viewBox="0 0 272 237" fill="none"><g clip-path="url(#clip0_2596_20894)"><path d="M43.1765 90.3735L101.634 24.0406C104.635 20.6353 108.671 18.3059 113.125 17.4093C117.579 16.5127 122.205 17.0983 126.293 19.0764L211.879 60.483C214.699 61.8471 217.173 63.8302 219.117 66.2839C221.06 68.7375 222.422 71.5982 223.101 74.6517L241.202 156.075C242.261 160.837 241.604 165.818 239.348 170.144C237.092 174.47 233.38 177.864 228.866 179.729L137.149 217.624C134.357 218.777 131.346 219.309 128.327 219.182C125.308 219.055 122.353 218.271 119.668 216.887L49.2399 180.57C45.8535 178.823 43.0136 176.181 41.0311 172.931C39.0486 169.681 38 165.95 38 162.145V104.071C37.9999 99.0289 39.8401 94.1594 43.1765 90.3735Z" fill="#87CAFA"></path><mask id="mask0_2596_20894" style="mask-type:alpha" maskUnits="userSpaceOnUse" x="38" y="17" width="204" height="203"><path d="M43.1765 90.3735L101.634 24.0406C104.635 20.6353 108.671 18.3059 113.125 17.4093C117.579 16.5127 122.205 17.0983 126.293 19.0764L211.879 60.483C214.699 61.8471 217.173 63.8302 219.117 66.2839C221.06 68.7375 222.422 71.5982 223.101 74.6517L241.202 156.075C242.261 160.837 241.604 165.818 239.348 170.144C237.092 174.47 233.38 177.864 228.866 179.729L137.149 217.624C134.357 218.777 131.346 219.309 128.327 219.182C125.308 219.055 122.353 218.271 119.668 216.887L49.2399 180.57C45.8535 178.823 43.0136 176.181 41.0311 172.931C39.0486 169.681 38 165.95 38 162.145V104.071C37.9999 99.0289 39.8401 94.1594 43.1765 90.3735Z" fill="#87CAFA"></path></mask><g mask="url(#mask0_2596_20894)"><path d="M168.389 225H104.438C98.1509 225 93 219.863 93 213.593V73.4074C93 67.137 98.1509 62 104.438 62H168.389C174.676 62 179.827 67.137 179.827 73.4074V213.593C179.827 219.863 174.676 225 168.389 225Z" fill="url(#paint0_linear_2596_20894)"></path><path d="M175.534 76.0028V212.935C175.534 217.586 171.756 221.384 167.122 221.384H105.71C101.09 221.384 97.2969 217.586 97.2969 212.935V76.0028C97.2969 71.3515 101.075 67.554 105.71 67.554H167.122C171.741 67.554 175.534 71.3662 175.534 76.0028Z" fill="#E4F3FE"></path><path d="M149.247 71.6617H123.581C121.485 71.6617 119.773 69.8536 119.773 67.6402V67.0167C119.773 64.8033 121.485 62.9951 123.581 62.9951H149.247C151.343 62.9951 153.055 64.8033 153.055 67.0167V67.6402C153.055 69.8692 151.343 71.6617 149.247 71.6617Z" fill="url(#paint1_linear_2596_20894)"></path><g filter="url(#filter0_d_2596_20894)"><rect x="109.344" y="140.655" width="53.2934" height="53.2934" rx="11" fill="#1F2B31"></rect></g><path d="M141.901 147.333L137.561 155.942H139.248V164.047V179.132C139.261 179.562 139.189 179.989 139.034 180.389C138.879 180.789 138.645 181.153 138.346 181.458C138.048 181.763 137.691 182.004 137.298 182.166C136.904 182.327 136.483 182.406 136.058 182.398C135.33 182.443 134.609 182.224 134.026 181.781C133.443 181.337 133.035 180.698 132.876 179.978V163.861H134.571L130.231 155.213L125.891 163.83H127.57V164.016H127.524V178.333C127.524 178.706 127.524 179.07 127.57 179.419V180.063H127.647C128.268 184.414 131.281 187.09 136.081 187.09C141.264 187.09 144.577 183.701 144.577 178.333V174.711V155.911H146.264L141.901 147.333Z" fill="#5697F9"></path><path fill-rule="evenodd" clip-rule="evenodd" d="M142.925 93.667H128.806V110.49H123.074C122.811 110.491 122.553 110.561 122.328 110.693C122.103 110.824 121.92 111.012 121.798 111.237C121.676 111.461 121.62 111.713 121.635 111.966C121.651 112.219 121.738 112.463 121.887 112.671L134.882 130.747C135.014 130.932 135.192 131.084 135.398 131.188C135.605 131.293 135.835 131.348 136.069 131.348C136.302 131.348 136.532 131.293 136.739 131.188C136.946 131.084 137.123 130.932 137.256 130.747L150.251 112.671C150.401 112.463 150.489 112.219 150.506 111.965C150.522 111.712 150.466 111.459 150.344 111.234C150.221 111.009 150.037 110.821 149.812 110.69C149.586 110.559 149.327 110.489 149.064 110.49H142.925V93.667Z" fill="url(#paint2_linear_2596_20894)"></path><path d="M168.389 225H104.438C98.1509 225 93 219.863 93 213.593V73.4074C93 67.137 98.1509 62 104.438 62H168.389C174.676 62 179.827 67.137 179.827 73.4074V213.593C179.827 219.863 174.676 225 168.389 225Z" fill="url(#paint3_linear_2596_20894)"></path><path d="M175.534 76.0028V212.935C175.534 217.586 171.756 221.384 167.122 221.384H105.71C101.09 221.384 97.2969 217.586 97.2969 212.935V76.0028C97.2969 71.3515 101.075 67.554 105.71 67.554H167.122C171.741 67.554 175.534 71.3662 175.534 76.0028Z" fill="#1F2B31"></path><path d="M149.247 71.6617H123.581C121.485 71.6617 119.773 69.8536 119.773 67.6402V67.0167C119.773 64.8033 121.485 62.9951 123.581 62.9951H149.247C151.343 62.9951 153.055 64.8033 153.055 67.0167V67.6402C153.055 69.8692 151.343 71.6617 149.247 71.6617Z" fill="url(#paint4_linear_2596_20894)"></path><rect x="126.25" y="135.25" width="44.5" height="7.5" stroke="#1C6DE7" stroke-width="0.5"></rect><rect x="127.25" y="164.25" width="41.5" height="7.5" stroke="#1C6DE7" stroke-width="0.5"></rect><rect x="124.25" y="108.25" width="44.5" height="7.5" stroke="#1C6DE7" stroke-width="0.5"></rect><path d="M213.293 209.986H175.384C173.563 208.698 164.129 201.902 160.223 196.829C159.399 195.759 156.367 186.491 154.044 178.982C152.594 174.283 151.407 170.271 151.21 169.349C151.144 169.027 151.094 168.392 151.07 167.53V167.521C150.971 164.45 151.103 158.515 151.243 153.807V153.79V153.729C151.251 153.52 151.259 153.32 151.259 153.12V153.111C151.259 153.094 151.259 153.068 151.259 153.05C151.284 152.232 151.309 151.458 151.333 150.762C151.391 149.013 151.44 147.69 151.465 147.177L151.473 146.933C151.531 146.898 153.36 145.872 155.791 147.725C156.376 148.177 156.919 149.256 157.422 150.666C157.743 151.571 158.04 152.607 158.312 153.694C159.375 157.889 160.141 162.91 160.545 164.25C161.204 166.425 168.949 175.971 169.435 176.563C169.443 176.571 169.451 176.58 169.46 176.589V161.509L163.61 144.975L161.204 138.188L160.001 134.777C160.001 134.777 158.147 131.566 156.598 127.702C155.922 126.014 155.296 124.195 154.909 122.473C154.818 122.064 154.736 121.655 154.678 121.254C154.448 119.792 154.431 118.444 154.753 117.347C155.321 115.389 156.59 115.015 157.57 115.059C157.669 115.059 157.768 115.067 157.867 115.085C157.966 115.093 158.056 115.12 158.147 115.146C158.32 115.198 158.485 115.268 158.633 115.363C158.88 115.52 159.103 115.729 159.268 115.99C159.268 115.99 160.092 117.13 161.204 118.661C161.937 119.671 162.786 120.845 163.61 121.985C165.068 124.013 166.419 125.901 166.798 126.449C168.809 129.443 174.23 139.197 174.23 139.197L180.574 139.476C181.58 139.519 182.535 139.946 183.269 140.668C185.526 142.896 190.387 147.708 190.989 148.421C190.989 148.656 194.771 150.579 197.687 152.285C199.772 153.216 203.743 156.522 203.743 156.522C204.567 157.288 205.193 158.054 205.506 158.785C206.866 161.909 210.557 189.102 212.32 202.546C212.897 206.862 213.268 209.76 213.293 209.986Z" fill="#F9BFA3"></path><path d="M174.242 139.183C174.242 139.183 180.117 149.312 180.9 149.773C181.674 150.225 184.706 150.869 185.052 149.773C185.39 148.676 174.242 139.183 174.242 139.183Z" fill="#F6B391"></path><path d="M203.78 156.545C203.771 156.536 203.763 156.527 203.747 156.518C203.747 156.518 199.775 153.212 197.691 152.281C195.013 150.714 191.602 148.965 191.066 148.504C191.693 149.253 196.068 154.491 197.748 154.883C199.232 155.231 202.593 156.197 203.78 156.545Z" fill="#F6B391"></path><path d="M169.473 176.579V161.499C169.473 161.499 172.867 167.494 173.123 170.775C173.386 174.064 171.714 179.39 169.473 176.579Z" fill="#F6B391"></path><path d="M157.168 121.248C156.673 120.352 155.783 118.724 155.478 117.811C155.396 117.55 155.404 117.036 155.701 116.488C155.882 116.157 156.162 115.818 156.591 115.513C156.788 115.374 156.994 115.244 157.217 115.157C157.472 115.061 157.744 115.009 158.016 115C158.263 115 158.519 115.148 158.7 115.418C159.285 116.323 160.035 117.558 160.537 118.672C160.892 119.447 160.776 120.334 160.265 120.726L160.027 120.908L158.807 121.848C158.296 122.249 157.571 121.979 157.168 121.248Z" fill="#FDDFD0"></path><path d="M157.171 121.246C156.677 120.35 155.787 118.723 155.482 117.809C155.4 117.548 155.408 117.034 155.705 116.486C155.787 116.417 155.87 116.347 155.96 116.286C156.158 116.147 156.364 116.016 156.586 115.929C156.842 115.834 157.114 115.781 157.386 115.773C157.633 115.773 157.888 115.921 158.069 116.19C158.654 117.095 159.404 118.331 159.907 119.445C160.129 119.941 160.17 120.48 160.03 120.907L158.811 121.847C158.3 122.247 157.575 121.977 157.171 121.246Z" fill="#FBCEB8"></path><path d="M194.254 203.78L182.933 209.975H175.394C173.574 208.688 164.14 201.892 160.234 196.818C159.41 195.748 156.378 186.481 154.055 178.971C154.368 179.972 160.86 194.573 162.706 196.235C164.552 197.897 174.266 207.565 176.943 207.461C179.539 207.365 193.364 204.006 194.221 203.797C194.229 203.789 194.238 203.789 194.254 203.78Z" fill="#F6B391"></path><path d="M217.037 209.98H176.211C178.254 209.127 186.09 205.968 194.214 203.802C194.23 203.802 194.238 203.793 194.255 203.793C201.225 201.931 208.41 200.8 212.307 202.496L212.332 202.54L217.037 209.98Z" fill="#0D267F"></path><path d="M151.268 153.033C151.96 152.763 152.924 152.589 153.394 153.416C154.127 154.703 151.408 166.085 151.07 167.512L151.268 153.033Z" fill="#F6B391"></path><path d="M151.473 146.917L151.242 153.8C151.242 153.8 152.61 154.035 153.393 153.417C154.175 152.8 153.755 146.83 151.473 146.917Z" fill="#FBCEB8"></path></g><path d="M60.9316 90.8632C79.1192 90.8632 93.8632 76.1192 93.8632 57.9316C93.8632 39.744 79.1192 25 60.9316 25C42.744 25 28 39.744 28 57.9316C28 76.1192 42.744 90.8632 60.9316 90.8632Z" fill="#C5E5FC"></path><path d="M121 89.0713C121.36 89.0713 121.547 88.9316 121.547 88.4074V83.9557H122.579V88.1971C122.579 89.3987 122.128 89.9995 121.008 89.9995L121 89.0713ZM121.43 82.8082C121.43 82.6427 121.496 82.4842 121.613 82.3672C121.73 82.2502 121.889 82.1842 122.054 82.1834C122.137 82.1828 122.219 82.1985 122.296 82.2295C122.372 82.2606 122.442 82.3065 122.501 82.3645C122.56 82.4225 122.606 82.4916 122.639 82.5677C122.671 82.6438 122.688 82.7255 122.688 82.8082C122.687 82.8903 122.67 82.9714 122.638 83.0468C122.605 83.1223 122.558 83.1906 122.499 83.2478C122.44 83.305 122.371 83.35 122.294 83.3803C122.218 83.4105 122.136 83.4254 122.054 83.424C121.973 83.4246 121.892 83.4091 121.817 83.3785C121.741 83.3479 121.672 83.3027 121.614 83.2455C121.556 83.1883 121.51 83.1202 121.478 83.0452C121.447 82.9702 121.43 82.8896 121.43 82.8082Z" fill="white"></path><path d="M127.508 86.543V82.1543H128.469V82.6049C128.559 82.4441 128.692 82.3119 128.854 82.2234C129.015 82.1349 129.198 82.0938 129.382 82.1048C129.595 82.0938 129.806 82.1446 129.991 82.2513C130.175 82.3579 130.325 82.5157 130.422 82.7055C130.531 82.5149 130.691 82.3581 130.884 82.2521C131.077 82.1462 131.295 82.0952 131.515 82.1048C132.257 82.1048 132.687 82.5809 132.687 83.6427V86.54H131.655V83.6037C131.655 83.1666 131.42 83.0029 131.132 83.0029C130.844 83.0029 130.608 83.1741 130.608 83.5887V86.54H129.577V83.6037C129.577 83.1741 129.358 83.0029 129.055 83.0029C128.781 83.0029 128.531 83.1666 128.531 83.5887V86.54L127.508 86.543Z" fill="white"></path><path d="M133.48 88.0886V82.1604H134.442V82.6366C134.503 82.4864 134.847 82.0898 135.493 82.0898C136.291 82.0898 136.813 82.5825 136.813 83.7074V84.9871C136.813 86.1045 136.291 86.5972 135.493 86.5972C135.307 86.6067 135.122 86.5706 134.953 86.492C134.785 86.4135 134.638 86.2949 134.526 86.1466V88.0886H133.48ZM135.769 84.9015V83.7855C135.769 83.2463 135.511 82.9955 135.136 82.9955C134.76 82.9955 134.503 83.2463 134.503 83.7855V84.9255C134.503 85.4482 134.769 85.6765 135.136 85.6765C135.502 85.6765 135.769 85.4272 135.769 84.8955V84.9015Z" fill="white"></path><path d="M139.448 86.5405C138.135 86.6918 137.641 86.1835 137.641 84.9228V83.1153H137.223V82.311C137.785 82.311 137.975 82.0851 137.975 81.3779H138.641V82.2432H139.432V83.1153H138.641V84.9522C138.641 85.5599 138.824 85.7497 139.446 85.6593L139.448 86.5405Z" fill="white"></path><path d="M139.91 84.9897V83.7539C139.91 82.6514 140.434 82.1724 141.187 82.1724C141.388 82.1621 141.589 82.2059 141.767 82.2992C141.946 82.3926 142.097 82.5321 142.203 82.7033V82.2266H143.145V86.4922H142.203V86.0222C142.099 86.1959 141.949 86.3377 141.77 86.4325C141.591 86.5272 141.389 86.5713 141.187 86.56C140.421 86.569 139.91 86.0832 139.91 84.9897ZM142.142 84.9152V83.8149C142.142 83.2975 141.885 83.0693 141.535 83.0693C141.184 83.0693 140.92 83.2953 140.92 83.8285V84.9152C140.92 85.4461 141.164 85.6811 141.535 85.6811C141.905 85.6811 142.142 85.4393 142.142 84.9152Z" fill="white"></path><path d="M143.754 85.0732H144.755C144.743 85.1636 144.752 85.2555 144.781 85.342C144.81 85.4285 144.858 85.5074 144.921 85.5726C144.985 85.6378 145.063 85.6878 145.149 85.7187C145.234 85.7496 145.326 85.7606 145.417 85.751C145.803 85.751 146.025 85.5386 146.025 85.2991C146.025 84.5558 143.853 84.958 143.853 83.4555C143.853 82.6738 144.423 82.1948 145.372 82.1948C146.411 82.1948 146.987 82.6806 146.987 83.6521H146.009C146.009 83.1754 145.751 83.0466 145.378 83.0466C145.006 83.0466 144.838 83.198 144.838 83.4555C144.838 84.2531 147.034 83.8283 147.034 85.3082C147.034 86.1125 146.465 86.5982 145.417 86.5982C144.368 86.5982 143.754 86.0311 143.754 85.0732Z" fill="white"></path><path d="M147.707 86.5016V80.7629H148.71V83.9599H149.045L149.903 82.2292H151.033L149.862 84.3552L151.04 86.4948H149.91L149.045 84.78H148.71V86.4948L147.707 86.5016Z" fill="white"></path><path d="M126.39 79L125.54 80.6672H125.87V82.2367V85.158C125.873 85.2411 125.859 85.3239 125.828 85.4013C125.798 85.4787 125.752 85.5492 125.694 85.6083C125.635 85.6675 125.565 85.7141 125.488 85.7454C125.411 85.7767 125.329 85.7919 125.245 85.7903C125.103 85.7991 124.962 85.7567 124.847 85.6708C124.733 85.585 124.653 85.4611 124.622 85.3217V82.2006H124.954L124.104 80.526L123.254 82.1946H123.583V82.2307H123.574V85.0033C123.574 85.0753 123.574 85.1459 123.583 85.2135V85.3382H123.598C123.72 86.1808 124.31 86.6989 125.25 86.6989C126.265 86.6989 126.914 86.0426 126.914 85.0033V84.3019V80.6611H127.245L126.39 79Z" fill="#5697F9"></path><rect x="103.5" y="128.5" width="23.3156" height="20.9998" rx="2.5" fill="#1C6DE7" stroke="#1C6DE7"></rect><path d="M117.921 135.186C118.084 135.031 118.301 134.945 118.526 134.947C118.751 134.949 118.967 135.038 119.128 135.196C119.289 135.353 119.382 135.567 119.388 135.792C119.394 136.018 119.312 136.236 119.16 136.402L114.54 142.18C114.46 142.266 114.365 142.334 114.258 142.382C114.151 142.43 114.036 142.455 113.92 142.458C113.803 142.46 113.687 142.438 113.579 142.395C113.47 142.351 113.372 142.286 113.289 142.203L110.226 139.139C110.14 139.06 110.072 138.964 110.024 138.858C109.977 138.751 109.951 138.636 109.949 138.519C109.947 138.403 109.969 138.287 110.012 138.179C110.056 138.071 110.121 137.973 110.204 137.89C110.286 137.808 110.384 137.743 110.492 137.699C110.601 137.655 110.716 137.634 110.833 137.636C110.95 137.638 111.065 137.663 111.171 137.711C111.278 137.758 111.373 137.827 111.453 137.912L113.878 140.336L117.899 135.212C117.906 135.203 117.914 135.195 117.922 135.186H117.921Z" fill="white"></path><rect x="104" y="157" width="22.705" height="20.3521" rx="2" stroke="#1C6DE7" stroke-width="2"></rect><path d="M118.158 163.303C118.324 163.145 118.544 163.058 118.773 163.06C119.002 163.061 119.221 163.152 119.384 163.312C119.548 163.472 119.642 163.69 119.648 163.919C119.654 164.147 119.571 164.369 119.417 164.538L114.723 170.408C114.642 170.495 114.545 170.565 114.436 170.614C114.328 170.662 114.211 170.688 114.093 170.69C113.974 170.693 113.856 170.671 113.746 170.626C113.636 170.582 113.536 170.516 113.452 170.432L110.339 167.319C110.253 167.238 110.183 167.141 110.135 167.033C110.087 166.925 110.061 166.808 110.059 166.689C110.057 166.571 110.078 166.453 110.123 166.343C110.167 166.233 110.233 166.134 110.317 166.05C110.401 165.966 110.501 165.9 110.61 165.856C110.72 165.811 110.838 165.789 110.956 165.791C111.075 165.794 111.192 165.82 111.3 165.868C111.408 165.916 111.506 165.985 111.586 166.072L114.05 168.534L118.136 163.329C118.143 163.32 118.151 163.311 118.159 163.303H118.158Z" fill="#1C6DE7"></path><rect x="103.5" y="100.5" width="23.3158" height="21" rx="2.5" fill="#1C6DE7" stroke="#1C6DE7"></rect><path d="M117.921 107.187C118.084 107.032 118.301 106.946 118.526 106.948C118.752 106.949 118.967 107.038 119.128 107.196C119.289 107.354 119.382 107.568 119.388 107.793C119.394 108.018 119.312 108.237 119.16 108.403L114.54 114.181C114.46 114.266 114.365 114.335 114.258 114.383C114.151 114.43 114.036 114.456 113.92 114.458C113.803 114.46 113.687 114.439 113.579 114.395C113.47 114.351 113.372 114.286 113.289 114.204L110.226 111.14C110.14 111.061 110.072 110.965 110.024 110.858C109.977 110.752 109.951 110.637 109.949 110.52C109.947 110.403 109.969 110.288 110.012 110.179C110.056 110.071 110.121 109.973 110.204 109.891C110.286 109.808 110.384 109.743 110.492 109.699C110.601 109.656 110.716 109.634 110.833 109.636C110.95 109.638 111.065 109.664 111.171 109.711C111.278 109.759 111.373 109.827 111.453 109.913L113.878 112.336L117.899 107.212C117.906 107.204 117.914 107.195 117.922 107.187H117.921Z" fill="#FBFBFB"></path><path d="M69.8477 62.09C69.7847 64.3553 68.8332 66.5049 67.1987 68.0746C65.5642 69.6443 63.3779 70.5082 61.1119 70.4796C59.2713 70.4783 57.4818 69.8744 56.0169 68.76C54.552 67.6456 53.4924 66.0822 53 64.3087L57.0209 63.2339C57.2306 64.027 57.6585 64.7455 58.2559 65.3078C58.8533 65.87 59.5963 66.2537 60.4007 66.4151C61.2051 66.5765 62.0386 66.5092 62.8067 66.2209C63.5747 65.9326 64.2466 65.4348 64.7461 64.7839C65.2456 64.1331 65.5527 63.3553 65.6326 62.5388C65.7125 61.7223 65.5619 60.8998 65.1979 60.1645C64.834 59.4292 64.2713 58.8107 63.5736 58.379C62.8759 57.9474 62.0713 57.7199 61.2509 57.7224C60.535 57.7007 59.823 57.8353 59.1645 58.1167C58.5059 58.3981 57.9166 58.8196 57.4374 59.352L53.8662 58.2078L54.629 45H68.1835V48.918H58.3033L57.9571 55.0533C59.1277 54.3399 60.4696 53.9567 61.8404 53.9444C62.9112 53.9168 63.9763 54.1097 64.9694 54.5111C65.9626 54.9125 66.8626 55.5139 67.6135 56.2778C68.3645 57.0417 68.9503 57.9518 69.3347 58.9517C69.719 59.9516 69.8937 61.0198 69.8477 62.09Z" fill="#163351"></path></g><defs><filter id="filter0_d_2596_20894" x="105.344" y="140.655" width="61.293" height="61.2935" color-interpolation-filters="sRGB"><feFlood flood-opacity="0" result="BackgroundImageFix"></feFlood><feColorMatrix in="SourceAlpha" type="matrix" values="0 0 0 0 0 0 0 0 0 0 0 0 0 0 0 0 0 0 127 0" result="hardAlpha"></feColorMatrix><feOffset dy="4"></feOffset><feGaussianBlur stdDeviation="2"></feGaussianBlur><feComposite in2="hardAlpha" operator="out"></feComposite><feColorMatrix type="matrix" values="0 0 0 0 0 0 0 0 0 0 0 0 0 0 0 0 0 0 0.15 0"></feColorMatrix><feBlend mode="normal" in2="BackgroundImageFix" result="effect1_dropShadow_2596_20894"></feBlend><feBlend mode="normal" in="SourceGraphic" in2="effect1_dropShadow_2596_20894" result="shape"></feBlend></filter><linearGradient id="paint0_linear_2596_20894" x1="136.414" y1="62" x2="136.414" y2="225" gradientUnits="userSpaceOnUse"><stop stop-color="#183B88"></stop><stop offset="1" stop-color="#0F1E5A"></stop></linearGradient><linearGradient id="paint1_linear_2596_20894" x1="136.414" y1="62.9951" x2="136.414" y2="71.6617" gradientUnits="userSpaceOnUse"><stop stop-color="#183B88"></stop><stop offset="1" stop-color="#0F1E5A"></stop></linearGradient><linearGradient id="paint2_linear_2596_20894" x1="131.307" y1="93.667" x2="139.99" y2="129.42" gradientUnits="userSpaceOnUse"><stop stop-color="#183B89"></stop><stop offset="1" stop-color="#0C1853"></stop></linearGradient><linearGradient id="paint3_linear_2596_20894" x1="136.414" y1="62" x2="136.414" y2="225" gradientUnits="userSpaceOnUse"><stop stop-color="#183B88"></stop><stop offset="1" stop-color="#0F1E5A"></stop></linearGradient><linearGradient id="paint4_linear_2596_20894" x1="136.414" y1="62.9951" x2="136.414" y2="71.6617" gradientUnits="userSpaceOnUse"><stop stop-color="#183B88"></stop><stop offset="1" stop-color="#0F1E5A"></stop></linearGradient><clipPath id="clip0_2596_20894"><rect width="271.987" height="236.034" fill="white"></rect></clipPath></defs></svg> 