<?xml version="1.0" encoding="UTF-8"?> <svg xmlns="http://www.w3.org/2000/svg" width="273" height="236" viewBox="0 0 273 236" fill="none"><g clip-path="url(#clip0_28_1155)"><path d="M48.1765 90.3735L106.633 24.0406C109.635 20.6353 113.671 18.3059 118.125 17.4093C122.579 16.5127 127.205 17.0983 131.293 19.0764L216.879 60.483C219.699 61.8471 222.173 63.8303 224.116 66.2839C226.059 68.7376 227.421 71.5982 228.1 74.6517L246.202 156.075C247.26 160.837 246.604 165.818 244.348 170.144C242.092 174.47 238.38 177.864 233.866 179.729L142.149 217.624C139.356 218.777 136.346 219.309 133.327 219.182C130.307 219.055 127.352 218.271 124.668 216.887L54.2399 180.57C50.8535 178.823 48.0136 176.181 46.0311 172.931C44.0486 169.681 43 165.95 43 162.145V104.071C42.9999 99.0289 44.8401 94.1594 48.1765 90.3735V90.3735Z" fill="#87CAFA"></path><mask id="mask0_28_1155" style="mask-type:alpha" maskUnits="userSpaceOnUse" x="43" y="17" width="204" height="203"><path d="M48.1765 90.3735L106.633 24.0406C109.635 20.6353 113.671 18.3059 118.125 17.4093C122.579 16.5127 127.205 17.0983 131.293 19.0764L216.879 60.483C219.699 61.8471 222.173 63.8303 224.116 66.2839C226.059 68.7376 227.421 71.5982 228.1 74.6517L246.202 156.075C247.26 160.837 246.604 165.818 244.348 170.144C242.092 174.47 238.38 177.864 233.866 179.729L142.149 217.624C139.356 218.777 136.346 219.309 133.327 219.182C130.307 219.055 127.352 218.271 124.668 216.887L54.2399 180.57C50.8535 178.823 48.0136 176.181 46.0311 172.931C44.0486 169.681 43 165.95 43 162.145V104.071C42.9999 99.0289 44.8401 94.1594 48.1765 90.3735Z" fill="#87CAFA"></path></mask><g mask="url(#mask0_28_1155)"><path d="M187.197 76.8313V165.814H29.5703V76.8313C29.5703 73.8789 31.9487 71.5005 34.9011 71.5005H181.866C184.819 71.5005 187.197 73.8789 187.197 76.8313Z" fill="#1B4599"></path><path d="M187.197 165.896H29.5703V76.8313C29.5703 73.8789 31.9487 71.5005 34.9011 71.5005H181.866C184.819 71.5005 187.197 73.8789 187.197 76.8313V165.896Z" fill="#E4F3FE"></path><path d="M209.038 196.825V201.917C209.038 203.318 208.299 204.463 207.394 204.463H9.72601C9.39725 204.463 9.06848 204.336 8.73972 203.954C8.49314 203.7 8.32877 203.318 8.16438 202.936C8.08219 202.554 8 202.172 8 201.79V196.698H209.038V196.825Z" fill="url(#paint0_linear_28_1155)"></path><path d="M207.442 199.287H10.4863C9.09412 199.287 8.35707 196.821 9.2579 195.219L24.1626 169.951H193.683L208.588 195.219C209.571 196.821 208.834 199.287 207.442 199.287Z" fill="#1B4599"></path><path opacity="0.2" d="M194.92 183.594C195.659 185.014 195.002 187.207 193.853 187.207H24.0483C22.8987 187.207 22.2418 185.143 22.9808 183.594L27.7432 174.176C27.9896 173.66 28.4001 173.402 28.8107 173.402H189.09C189.501 173.402 189.911 173.66 190.158 174.305L194.92 183.594Z" fill="url(#paint1_linear_28_1155)"></path><path d="M193.676 74.4128C193.676 73.9207 193.594 73.5106 193.43 73.1006C193.184 72.1985 192.609 71.2963 191.953 70.6402C191.625 70.3122 191.297 70.0662 190.887 69.8201C189.985 69.328 189.001 69 187.935 69H29.6521C28.586 69 27.5198 69.328 26.6997 69.8201C26.2896 70.0662 25.9616 70.3122 25.6335 70.6402C24.9774 71.2963 24.4854 72.1985 24.1573 73.1006C24.0753 73.5106 23.9933 74.0027 23.9113 74.4128C23.9113 74.4948 23.9113 74.5768 23.9113 74.6588V170.449H193.758V74.6588C193.676 74.5768 193.676 74.4948 193.676 74.4128ZM29.5701 77.6112C29.5701 77.5292 29.5701 77.4472 29.5701 77.4472C29.5701 77.3652 29.5701 77.2832 29.5701 77.2012V77.1192C29.5701 77.0372 29.5701 77.0371 29.5701 76.9551C29.5701 76.9551 29.5701 76.9551 29.5701 76.8731C29.5701 76.8731 29.5701 76.8731 29.5701 76.7911V76.7091V76.6271C29.5701 76.5451 29.5701 76.5451 29.5701 76.4631V76.3811C29.5701 76.299 29.5701 76.299 29.6521 76.217C29.6521 76.217 29.6521 76.135 29.7341 76.135C29.7341 76.053 29.8161 75.971 29.8161 75.889C29.8981 75.725 29.9802 75.5609 30.0622 75.3969C30.1442 75.3149 30.1442 75.2329 30.2262 75.1509C30.2262 75.1509 30.2262 75.0689 30.3082 75.0689V74.9869C30.3902 74.9048 30.3902 74.8228 30.4722 74.8228C30.5542 74.7408 30.5542 74.7408 30.6363 74.6588L30.7183 74.5768C30.8003 74.4948 30.8003 74.4948 30.8823 74.4128L30.9643 74.3308C31.0463 74.2488 31.0463 74.2488 31.1283 74.1667L31.2103 74.0847C31.2923 74.0027 31.3744 74.0027 31.4564 73.9207C31.5384 73.8387 31.6204 73.8387 31.7024 73.7567C31.7024 73.7567 31.7844 73.6747 31.8664 73.6747H31.9484H32.0305C32.0305 73.6747 32.1125 73.6747 32.1125 73.5927L32.1945 73.5106C32.2765 73.5106 32.2765 73.4286 32.3585 73.4286C32.4405 73.4286 32.5225 73.3466 32.6045 73.3466C32.6865 73.3466 32.6865 73.3466 32.7686 73.2646H32.8506C32.9326 73.2646 33.0146 73.1826 33.0966 73.1826H33.1786C33.2606 73.1826 33.2606 73.1826 33.3426 73.1826C33.4247 73.1826 33.5067 73.1826 33.5887 73.1006C33.6707 73.1006 33.7527 73.1006 33.8347 73.1006H33.9167H33.9987H34.0807C34.1628 73.1006 34.1628 73.1006 34.2448 73.1006C34.3268 73.1006 34.3268 73.1006 34.4088 73.1006H181.374C181.456 73.1006 181.456 73.1006 181.538 73.1006C181.62 73.1006 181.62 73.1006 181.702 73.1006H181.784H181.866H181.948H182.03H182.112H182.194C182.194 73.1006 182.194 73.1006 182.276 73.1006C182.276 73.1006 182.276 73.1006 182.358 73.1006C182.358 73.1006 182.358 73.1006 182.44 73.1006C182.44 73.1006 182.44 73.1006 182.522 73.1006H182.604H182.686C182.686 73.1006 182.686 73.1006 182.768 73.1006C182.768 73.1006 182.85 73.1006 182.932 73.1006C182.932 73.1006 182.932 73.1006 183.014 73.1006C183.096 73.1006 183.178 73.1826 183.26 73.1826C183.342 73.1826 183.424 73.2646 183.506 73.2646C183.588 73.2646 183.588 73.3466 183.67 73.3466C183.752 73.3466 183.752 73.4286 183.834 73.4286C183.916 73.4286 183.998 73.5106 183.998 73.5106C183.998 73.5106 184.08 73.5927 184.162 73.5927C184.244 73.6747 184.326 73.6747 184.408 73.7567C184.408 73.7567 184.408 73.7567 184.49 73.7567L184.572 73.8387C184.654 73.9207 184.736 73.9207 184.736 74.0027C184.818 74.0027 184.818 74.0847 184.9 74.1667L184.982 74.2488L185.064 74.3308C185.146 74.4128 185.146 74.4128 185.228 74.4948C185.228 74.5768 185.31 74.5768 185.31 74.6588C185.31 74.6588 185.31 74.6588 185.31 74.7408L185.392 74.8228L185.474 74.9048C185.474 74.9869 185.556 74.9869 185.556 75.0689C185.556 75.1509 185.638 75.1509 185.638 75.2329C185.638 75.3149 185.72 75.3969 185.72 75.4789C185.72 75.5609 185.803 75.6429 185.803 75.725C185.803 75.807 185.885 75.889 185.885 75.971V76.053C185.885 76.135 185.967 76.217 185.967 76.299V76.3811C185.967 76.4631 185.967 76.5451 186.049 76.6271C186.049 76.6271 186.049 76.6271 186.049 76.7091C186.049 76.7911 186.049 76.9551 186.131 77.0372C186.131 77.2012 186.131 77.2832 186.131 77.4472C186.131 77.5292 186.131 77.6112 186.131 77.6932V166.676H29.5701V77.6112Z" fill="#1B4599"></path><path d="M187.197 76.8313V165.814H29.5703V76.8313C29.5703 73.8789 31.9487 71.5005 34.9011 71.5005H181.866C184.819 71.5005 187.197 73.8789 187.197 76.8313Z" fill="#1B4599"></path><path d="M187.197 165.896H29.5703V76.8313C29.5703 73.8789 31.9487 71.5005 34.9011 71.5005H181.866C184.819 71.5005 187.197 73.8789 187.197 76.8313V165.896Z" fill="#E4F3FE"></path><path d="M209.038 196.825V201.917C209.038 203.318 208.299 204.463 207.394 204.463H9.72601C9.39725 204.463 9.06848 204.336 8.73972 203.954C8.49314 203.7 8.32877 203.318 8.16438 202.936C8.08219 202.554 8 202.172 8 201.79V196.698H209.038V196.825Z" fill="url(#paint2_linear_28_1155)"></path><path d="M207.442 199.287H10.4863C9.09412 199.287 8.35707 196.821 9.2579 195.219L24.1626 169.951H193.683L208.588 195.219C209.571 196.821 208.834 199.287 207.442 199.287Z" fill="#1B4599"></path><path opacity="0.2" d="M194.92 183.594C195.659 185.014 195.002 187.207 193.853 187.207H24.0483C22.8987 187.207 22.2418 185.143 22.9808 183.594L27.7432 174.176C27.9896 173.66 28.4001 173.402 28.8107 173.402H189.09C189.501 173.402 189.911 173.66 190.158 174.305L194.92 183.594Z" fill="url(#paint3_linear_28_1155)"></path><path d="M193.676 74.4128C193.676 73.9207 193.594 73.5106 193.43 73.1006C193.184 72.1985 192.609 71.2963 191.953 70.6402C191.625 70.3122 191.297 70.0662 190.887 69.8201C189.985 69.328 189.001 69 187.935 69H29.6521C28.586 69 27.5198 69.328 26.6997 69.8201C26.2896 70.0662 25.9616 70.3122 25.6335 70.6402C24.9774 71.2963 24.4854 72.1985 24.1573 73.1006C24.0753 73.5106 23.9933 74.0027 23.9113 74.4128C23.9113 74.4948 23.9113 74.5768 23.9113 74.6588V170.449H193.758V74.6588C193.676 74.5768 193.676 74.4948 193.676 74.4128ZM29.5701 77.6112C29.5701 77.5292 29.5701 77.4472 29.5701 77.4472C29.5701 77.3652 29.5701 77.2832 29.5701 77.2012V77.1192C29.5701 77.0372 29.5701 77.0371 29.5701 76.9551C29.5701 76.9551 29.5701 76.9551 29.5701 76.8731C29.5701 76.8731 29.5701 76.8731 29.5701 76.7911V76.7091V76.6271C29.5701 76.5451 29.5701 76.5451 29.5701 76.4631V76.3811C29.5701 76.299 29.5701 76.299 29.6521 76.217C29.6521 76.217 29.6521 76.135 29.7341 76.135C29.7341 76.053 29.8161 75.971 29.8161 75.889C29.8981 75.725 29.9802 75.5609 30.0622 75.3969C30.1442 75.3149 30.1442 75.2329 30.2262 75.1509C30.2262 75.1509 30.2262 75.0689 30.3082 75.0689V74.9869C30.3902 74.9048 30.3902 74.8228 30.4722 74.8228C30.5542 74.7408 30.5542 74.7408 30.6363 74.6588L30.7183 74.5768C30.8003 74.4948 30.8003 74.4948 30.8823 74.4128L30.9643 74.3308C31.0463 74.2488 31.0463 74.2488 31.1283 74.1667L31.2103 74.0847C31.2923 74.0027 31.3744 74.0027 31.4564 73.9207C31.5384 73.8387 31.6204 73.8387 31.7024 73.7567C31.7024 73.7567 31.7844 73.6747 31.8664 73.6747H31.9484H32.0305C32.0305 73.6747 32.1125 73.6747 32.1125 73.5927L32.1945 73.5106C32.2765 73.5106 32.2765 73.4286 32.3585 73.4286C32.4405 73.4286 32.5225 73.3466 32.6045 73.3466C32.6865 73.3466 32.6865 73.3466 32.7686 73.2646H32.8506C32.9326 73.2646 33.0146 73.1826 33.0966 73.1826H33.1786C33.2606 73.1826 33.2606 73.1826 33.3426 73.1826C33.4247 73.1826 33.5067 73.1826 33.5887 73.1006C33.6707 73.1006 33.7527 73.1006 33.8347 73.1006H33.9167H33.9987H34.0807C34.1628 73.1006 34.1628 73.1006 34.2448 73.1006C34.3268 73.1006 34.3268 73.1006 34.4088 73.1006H181.374C181.456 73.1006 181.456 73.1006 181.538 73.1006C181.62 73.1006 181.62 73.1006 181.702 73.1006H181.784H181.866H181.948H182.03H182.112H182.194C182.194 73.1006 182.194 73.1006 182.276 73.1006C182.276 73.1006 182.276 73.1006 182.358 73.1006C182.358 73.1006 182.358 73.1006 182.44 73.1006C182.44 73.1006 182.44 73.1006 182.522 73.1006H182.604H182.686C182.686 73.1006 182.686 73.1006 182.768 73.1006C182.768 73.1006 182.85 73.1006 182.932 73.1006C182.932 73.1006 182.932 73.1006 183.014 73.1006C183.096 73.1006 183.178 73.1826 183.26 73.1826C183.342 73.1826 183.424 73.2646 183.506 73.2646C183.588 73.2646 183.588 73.3466 183.67 73.3466C183.752 73.3466 183.752 73.4286 183.834 73.4286C183.916 73.4286 183.998 73.5106 183.998 73.5106C183.998 73.5106 184.08 73.5927 184.162 73.5927C184.244 73.6747 184.326 73.6747 184.408 73.7567C184.408 73.7567 184.408 73.7567 184.49 73.7567L184.572 73.8387C184.654 73.9207 184.736 73.9207 184.736 74.0027C184.818 74.0027 184.818 74.0847 184.9 74.1667L184.982 74.2488L185.064 74.3308C185.146 74.4128 185.146 74.4128 185.228 74.4948C185.228 74.5768 185.31 74.5768 185.31 74.6588C185.31 74.6588 185.31 74.6588 185.31 74.7408L185.392 74.8228L185.474 74.9048C185.474 74.9869 185.556 74.9869 185.556 75.0689C185.556 75.1509 185.638 75.1509 185.638 75.2329C185.638 75.3149 185.72 75.3969 185.72 75.4789C185.72 75.5609 185.803 75.6429 185.803 75.725C185.803 75.807 185.885 75.889 185.885 75.971V76.053C185.885 76.135 185.967 76.217 185.967 76.299V76.3811C185.967 76.4631 185.967 76.5451 186.049 76.6271C186.049 76.6271 186.049 76.6271 186.049 76.7091C186.049 76.7911 186.049 76.9551 186.131 77.0372C186.131 77.2012 186.131 77.2832 186.131 77.4472C186.131 77.5292 186.131 77.6112 186.131 77.6932V166.676H29.5701V77.6112Z" fill="#1B4599"></path><rect x="72" y="118" width="156.267" height="34.513" rx="17.2565" fill="white"></rect><path d="M97.8534 127.116L93.9949 129.831L97.8534 127.116Z" fill="white"></path><path d="M97.8534 127.116L93.9949 129.737L97.8534 127.116Z" fill="white"></path><path d="M101.904 135.547C101.422 135.547 101.036 135.921 101.036 136.389C101.036 136.857 101.422 137.232 101.904 137.232C102.387 137.232 102.773 136.857 102.773 136.389C102.773 135.921 102.387 135.547 101.904 135.547Z" fill="white"></path><path fill-rule="evenodd" clip-rule="evenodd" d="M105.571 133.484V131.237C105.571 130.394 104.895 129.739 104.124 129.739H103.545L101.326 126.649C101.23 126.462 101.037 126.368 100.94 126.275C100.651 126.087 100.362 125.994 100.072 125.994C99.7828 125.994 99.4934 126.087 99.3005 126.275L96.9854 124.496L96.5031 124.121C95.8279 123.559 94.8632 123.653 94.3809 124.308L90.4259 128.99L89.7507 129.832H88.7861C88.3037 129.832 87.8214 130.113 87.6285 130.582C87.4356 130.769 87.3391 131.05 87.3391 131.331V141.536C87.3391 141.817 87.4356 142.098 87.532 142.285C87.8214 142.66 88.3037 142.941 88.7861 142.941H104.22C104.992 142.941 105.667 142.285 105.667 141.443V139.195C106.535 139.195 107.21 138.54 107.21 137.697V134.982C107.114 134.233 106.439 133.578 105.571 133.484ZM105.571 134.982V137.697H100.265V134.982H105.571V134.982ZM100.072 127.492L100.747 128.428L101.23 129.083L101.712 129.832H96.696L99.1076 128.147L100.072 127.492ZM95.1526 125.806L95.5385 125.245L95.7314 125.432L97.95 127.117L94.0915 129.739H91.7764L95.1526 125.806ZM88.7861 131.331H102.677L102.773 131.237L102.677 131.331H104.22V133.578H100.265C99.397 133.578 98.7217 134.233 98.7217 135.076V137.791C98.7217 138.634 99.397 139.289 100.265 139.289H104.22V141.536H88.7861V131.331Z" fill="#5697F9"></path><path d="M102.773 136.389C102.773 136.857 102.387 137.232 101.904 137.232C101.422 137.232 101.036 136.857 101.036 136.389C101.036 135.921 101.422 135.547 101.904 135.547C102.387 135.547 102.773 135.921 102.773 136.389Z" fill="white"></path><path d="M102.773 136.389C102.773 136.857 102.387 137.232 101.904 137.232C101.422 137.232 101.036 136.857 101.036 136.389C101.036 135.921 101.422 135.547 101.904 135.547C102.387 135.547 102.773 135.921 102.773 136.389Z" fill="#5697F9"></path><rect x="114.915" y="123.997" width="38.5852" height="22.4711" rx="11.2355" fill="#E4F3FE"></rect><ellipse cx="141.925" cy="135.232" rx="7.71704" ry="7.49036" fill="#5697F9"></ellipse><path d="M161.217 143.501C161.888 143.501 162.235 143.248 162.235 142.3V134.248H164.155V141.92C164.155 144.093 163.317 145.18 161.231 145.18L161.217 143.501ZM162.017 132.172C162.018 131.873 162.141 131.587 162.359 131.375C162.577 131.163 162.872 131.044 163.18 131.042C163.334 131.041 163.486 131.07 163.629 131.126C163.771 131.182 163.901 131.265 164.011 131.37C164.12 131.475 164.207 131.6 164.267 131.737C164.327 131.875 164.358 132.023 164.36 132.172C164.358 132.321 164.326 132.468 164.265 132.604C164.205 132.741 164.118 132.864 164.008 132.968C163.898 133.071 163.769 133.153 163.627 133.207C163.484 133.262 163.333 133.289 163.18 133.286C163.028 133.287 162.878 133.259 162.737 133.204C162.597 133.149 162.469 133.067 162.361 132.963C162.253 132.86 162.167 132.737 162.108 132.601C162.049 132.465 162.018 132.32 162.017 132.172Z" fill="#1F2B31"></path><path d="M173.328 138.926V130.988H175.117V131.803C175.284 131.512 175.533 131.273 175.833 131.113C176.134 130.953 176.475 130.879 176.817 130.899C177.213 130.879 177.607 130.971 177.95 131.164C178.293 131.356 178.572 131.642 178.752 131.985C178.956 131.64 179.254 131.357 179.613 131.165C179.972 130.973 180.378 130.881 180.787 130.899C182.168 130.899 182.967 131.76 182.967 133.68V138.921H181.047V133.61C181.047 132.819 180.611 132.523 180.074 132.523C179.537 132.523 179.098 132.833 179.098 133.583V138.921H177.18V133.61C177.18 132.833 176.772 132.523 176.208 132.523C175.699 132.523 175.232 132.819 175.232 133.583V138.921L173.328 138.926Z" fill="#1F2B31"></path><path d="M184.449 141.721V130.999H186.238V131.86C186.353 131.588 186.993 130.871 188.195 130.871C189.68 130.871 190.652 131.762 190.652 133.797V136.111C190.652 138.133 189.68 139.024 188.195 139.024C187.849 139.041 187.505 138.976 187.191 138.833C186.877 138.691 186.604 138.477 186.395 138.209V141.721H184.449ZM188.709 135.957V133.938C188.709 132.963 188.229 132.509 187.53 132.509C186.831 132.509 186.353 132.963 186.353 133.938V136C186.353 136.945 186.848 137.358 187.53 137.358C188.212 137.358 188.709 136.907 188.709 135.946V135.957Z" fill="#1F2B31"></path><path d="M195.552 138.919C193.109 139.193 192.188 138.273 192.188 135.993V132.724H191.41V131.269C192.457 131.269 192.81 130.861 192.81 129.581H194.051V131.147H195.523V132.724H194.051V136.046C194.051 137.146 194.391 137.489 195.548 137.325L195.552 138.919Z" fill="#1F2B31"></path><path d="M196.414 136.116V133.881C196.414 131.887 197.39 131.02 198.79 131.02C199.165 131.002 199.538 131.081 199.871 131.25C200.204 131.419 200.484 131.671 200.683 131.981V131.118H202.436V138.834H200.683V137.984C200.488 138.298 200.209 138.554 199.876 138.726C199.542 138.897 199.167 138.977 198.79 138.956C197.365 138.973 196.414 138.094 196.414 136.116ZM200.569 135.981V133.991C200.569 133.055 200.09 132.643 199.438 132.643C198.786 132.643 198.294 133.051 198.294 134.016V135.981C198.294 136.942 198.748 137.367 199.438 137.367C200.128 137.367 200.569 136.929 200.569 135.981Z" fill="#1F2B31"></path><path d="M203.567 136.267H205.43C205.408 136.431 205.425 136.597 205.479 136.753C205.532 136.91 205.622 137.052 205.741 137.17C205.859 137.288 206.004 137.379 206.163 137.435C206.323 137.491 206.494 137.511 206.663 137.493C207.382 137.493 207.794 137.109 207.794 136.676C207.794 135.331 203.752 136.059 203.752 133.341C203.752 131.927 204.812 131.061 206.578 131.061C208.513 131.061 209.585 131.94 209.585 133.697H207.764C207.764 132.834 207.285 132.602 206.591 132.602C205.897 132.602 205.586 132.875 205.586 133.341C205.586 134.784 209.674 134.015 209.674 136.692C209.674 138.147 208.614 139.025 206.663 139.025C204.711 139.025 203.567 138 203.567 136.267Z" fill="#1F2B31"></path><path d="M210.927 138.85V128.47H212.794V134.252H213.416L215.014 131.122H217.117L214.939 134.968L217.13 138.837H215.027L213.416 135.736H212.794V138.837L210.927 138.85Z" fill="#1F2B31"></path><path d="M171.248 125.283L169.666 128.299H170.281V131.137V136.421C170.286 136.572 170.259 136.721 170.203 136.861C170.146 137.001 170.061 137.129 169.952 137.236C169.843 137.343 169.713 137.427 169.57 137.484C169.426 137.54 169.273 137.568 169.118 137.565C168.852 137.581 168.59 137.504 168.377 137.349C168.164 137.194 168.016 136.97 167.958 136.717V131.072H168.575L166.993 128.043L165.411 131.061H166.023V131.127H166.006V136.141C166.006 136.272 166.006 136.399 166.023 136.522V136.747H166.051C166.277 138.271 167.376 139.208 169.126 139.208C171.016 139.208 172.224 138.021 172.224 136.141V134.873V128.288H172.839L171.248 125.283Z" fill="#5697F9"></path></g></g><path d="M57.9546 94.7898C76.155 94.7898 90.9092 80.0623 90.9092 61.8949C90.9092 43.7275 76.155 29 57.9546 29C39.7543 29 25 43.7275 25 61.8949C25 80.0623 39.7543 94.7898 57.9546 94.7898Z" fill="#C5E5FC"></path><path d="M55.9252 69.8854H66.6439V73.8329H49.438V70.197L60.1222 60.6744C61.7876 59.2198 62.3427 57.9384 62.3427 56.6924C62.3757 56.1271 62.2909 55.5611 62.0935 55.0303C61.8961 54.4994 61.5904 54.0152 61.1959 53.6084C60.8014 53.2015 60.3266 52.8808 59.8015 52.6665C59.2764 52.4522 58.7125 52.3491 58.1454 52.3636C57.5721 52.3444 57.0008 52.4419 56.4664 52.65C55.932 52.8581 55.4455 53.1726 55.0367 53.5743C54.6278 53.9759 54.3051 54.4564 54.0881 54.9865C53.8711 55.5166 53.7645 56.0852 53.7745 56.6577H49.473C49.473 51.6711 53.0808 48.4161 58.2149 48.4161C59.3245 48.3736 60.431 48.5586 61.4661 48.9599C62.5012 49.3611 63.4429 49.97 64.2329 50.7488C65.0229 51.5277 65.6445 52.4601 66.0592 53.4882C66.474 54.5164 66.6731 55.6185 66.6442 56.7266C66.6442 60.2938 65.1523 61.7479 62.308 64.241L55.9252 69.8854Z" fill="#163351"></path><defs><linearGradient id="paint0_linear_28_1155" x1="107.508" y1="149.116" x2="112.912" y2="256.111" gradientUnits="userSpaceOnUse"><stop stop-color="#1B4599"></stop><stop offset="1" stop-color="#191849"></stop></linearGradient><linearGradient id="paint1_linear_28_1155" x1="22.606" y1="180.176" x2="195.204" y2="180.176" gradientUnits="userSpaceOnUse"><stop stop-color="#191849"></stop><stop offset="1" stop-color="#191849"></stop></linearGradient><linearGradient id="paint2_linear_28_1155" x1="107.508" y1="149.116" x2="112.912" y2="256.111" gradientUnits="userSpaceOnUse"><stop stop-color="#1B4599"></stop><stop offset="1" stop-color="#191849"></stop></linearGradient><linearGradient id="paint3_linear_28_1155" x1="22.606" y1="180.176" x2="195.204" y2="180.176" gradientUnits="userSpaceOnUse"><stop stop-color="#191849"></stop><stop offset="1" stop-color="#191849"></stop></linearGradient><clipPath id="clip0_28_1155"><rect width="203.695" height="202.2" fill="white" transform="translate(43 17)"></rect></clipPath></defs></svg> 