<?xml version="1.0" encoding="UTF-8"?> <svg xmlns="http://www.w3.org/2000/svg" width="273" height="236" viewBox="0 0 273 236" fill="none"><path d="M42.1765 90.3735L100.634 24.0406C103.635 20.6353 107.671 18.3059 112.125 17.4093C116.579 16.5127 121.205 17.0983 125.293 19.0764L210.879 60.483C213.699 61.8471 216.173 63.8302 218.117 66.2839C220.06 68.7375 221.422 71.5982 222.101 74.6517L240.202 156.075C241.261 160.837 240.604 165.818 238.348 170.144C236.092 174.47 232.38 177.864 227.866 179.729L136.149 217.624C133.357 218.777 130.346 219.309 127.327 219.182C124.308 219.055 121.353 218.271 118.668 216.887L48.2399 180.57C44.8535 178.823 42.0136 176.181 40.0311 172.931C38.0486 169.681 37 165.95 37 162.145V104.071C36.9999 99.0289 38.8401 94.1594 42.1765 90.3735Z" fill="#87CAFA"></path><path d="M47.9546 93.7898C66.155 93.7898 80.9092 79.0623 80.9092 60.8949C80.9092 42.7275 66.155 28 47.9546 28C29.7543 28 15 42.7275 15 60.8949C15 79.0623 29.7543 93.7898 47.9546 93.7898Z" fill="#C5E5FC"></path><path d="M56.1902 64.9303C56.1161 66.94 55.3352 68.8595 53.9846 70.3517C52.634 71.844 50.7999 72.8137 48.8044 73.0906C46.8089 73.3675 44.7794 72.9339 43.0722 71.866C41.365 70.7981 40.0892 69.1641 39.4688 67.2508L43.5282 66.1425C43.7639 67.0502 44.2998 67.8517 45.049 68.4173C45.7982 68.9829 46.7168 69.2794 47.6559 69.2587C48.2225 69.2601 48.7837 69.1486 49.3065 68.9307C49.8294 68.7128 50.3034 68.3929 50.7008 67.9898C51.0982 67.5867 51.411 67.1084 51.6208 66.5831C51.8306 66.0577 51.9333 65.4958 51.9227 64.9303C51.9447 64.3574 51.849 63.786 51.6415 63.2513C51.434 62.7166 51.1191 62.23 50.7162 61.8213C50.3133 61.4126 49.8308 61.0906 49.2986 60.8749C48.7663 60.6593 48.1955 60.5546 47.6212 60.5674C46.8676 60.5909 46.1303 60.7927 45.47 61.1562L43.5624 57.8666L50.7439 51.7373H40.4404V47.7891H55.7734V51.7373L50.1541 57.1391C53.97 57.9356 56.1902 61.1558 56.1902 64.9303Z" fill="#163351"></path><mask id="mask0_2596_21004" style="mask-type:alpha" maskUnits="userSpaceOnUse" x="37" y="17" width="204" height="203"><path d="M42.1765 90.3735L100.634 24.0406C103.635 20.6353 107.671 18.3059 112.125 17.4093C116.579 16.5127 121.205 17.0983 125.293 19.0764L210.879 60.483C213.699 61.8471 216.173 63.8302 218.117 66.2839C220.06 68.7375 221.422 71.5982 222.101 74.6517L240.202 156.075C241.261 160.837 240.604 165.818 238.348 170.144C236.092 174.47 232.38 177.864 227.866 179.729L136.149 217.624C133.357 218.777 130.346 219.309 127.327 219.182C124.308 219.055 121.353 218.271 118.668 216.887L48.2399 180.57C44.8535 178.823 42.0136 176.181 40.0311 172.931C38.0486 169.681 37 165.95 37 162.145V104.071C36.9999 99.0289 38.8401 94.1594 42.1765 90.3735Z" fill="#87CAFA"></path></mask><g mask="url(#mask0_2596_21004)"><path d="M167.389 225H103.438C97.1509 225 92 219.863 92 213.593V73.4074C92 67.137 97.1509 62 103.438 62H167.389C173.676 62 178.827 67.137 178.827 73.4074V213.593C178.827 219.863 173.676 225 167.389 225Z" fill="url(#paint0_linear_2596_21004)"></path><path d="M174.534 76.0028V212.935C174.534 217.586 170.756 221.384 166.122 221.384H104.71C100.09 221.384 96.2969 217.586 96.2969 212.935V76.0028C96.2969 71.3515 100.075 67.554 104.71 67.554H166.122C170.741 67.554 174.534 71.3662 174.534 76.0028Z" fill="#E4F3FE"></path><path d="M148.247 71.6617H122.581C120.485 71.6617 118.773 69.8536 118.773 67.6402V67.0167C118.773 64.8033 120.485 62.9951 122.581 62.9951H148.247C150.343 62.9951 152.055 64.8033 152.055 67.0167V67.6402C152.055 69.8692 150.343 71.6617 148.247 71.6617Z" fill="url(#paint1_linear_2596_21004)"></path><g filter="url(#filter0_d_2596_21004)"><rect x="108.344" y="140.655" width="53.2934" height="53.2934" rx="11" fill="#1F2B31"></rect></g><path d="M140.901 147.333L136.561 155.942H138.248V164.047V179.132C138.261 179.562 138.189 179.989 138.034 180.389C137.879 180.789 137.645 181.153 137.346 181.458C137.048 181.763 136.691 182.004 136.298 182.166C135.904 182.327 135.483 182.406 135.058 182.398C134.33 182.443 133.609 182.224 133.026 181.781C132.443 181.337 132.035 180.698 131.876 179.978V163.861H133.571L129.231 155.213L124.891 163.83H126.57V164.016H126.524V178.333C126.524 178.706 126.524 179.07 126.57 179.419V180.063H126.647C127.268 184.414 130.281 187.09 135.081 187.09C140.264 187.09 143.577 183.701 143.577 178.333V174.711V155.911H145.264L140.901 147.333Z" fill="#5697F9"></path><path fill-rule="evenodd" clip-rule="evenodd" d="M141.925 93.667H127.806V110.49H122.074C121.811 110.491 121.553 110.561 121.328 110.693C121.103 110.824 120.92 111.012 120.798 111.237C120.676 111.461 120.62 111.713 120.635 111.966C120.651 112.219 120.738 112.463 120.887 112.671L133.882 130.747C134.014 130.932 134.192 131.084 134.398 131.188C134.605 131.293 134.835 131.348 135.069 131.348C135.302 131.348 135.532 131.293 135.739 131.188C135.946 131.084 136.123 130.932 136.256 130.747L149.251 112.671C149.401 112.463 149.489 112.219 149.506 111.965C149.522 111.712 149.466 111.459 149.344 111.234C149.221 111.009 149.037 110.821 148.812 110.69C148.586 110.559 148.327 110.489 148.064 110.49H141.925V93.667Z" fill="url(#paint2_linear_2596_21004)"></path><path d="M167.389 225H103.438C97.1509 225 92 219.863 92 213.593V73.4074C92 67.137 97.1509 62 103.438 62H167.389C173.676 62 178.827 67.137 178.827 73.4074V213.593C178.827 219.863 173.676 225 167.389 225Z" fill="url(#paint3_linear_2596_21004)"></path><path d="M174.534 76.0028V212.935C174.534 217.586 170.756 221.384 166.122 221.384H104.71C100.09 221.384 96.2969 217.586 96.2969 212.935V76.0028C96.2969 71.3515 100.075 67.554 104.71 67.554H166.122C170.741 67.554 174.534 71.3662 174.534 76.0028Z" fill="#E4F3FE"></path><path d="M148.247 71.6617H122.581C120.485 71.6617 118.773 69.8536 118.773 67.6402V67.0167C118.773 64.8033 120.485 62.9951 122.581 62.9951H148.247C150.343 62.9951 152.055 64.8033 152.055 67.0167V67.6402C152.055 69.8692 150.343 71.6617 148.247 71.6617Z" fill="url(#paint4_linear_2596_21004)"></path></g><rect x="68" y="116" width="141" height="51" rx="25" fill="white"></rect><path fill-rule="evenodd" clip-rule="evenodd" d="M118.194 140.737V136.872C118.194 135.423 117.039 134.296 115.718 134.296H114.728L110.932 128.982C110.767 128.66 110.437 128.499 110.272 128.338C109.777 128.016 109.282 127.855 108.786 127.855C108.291 127.855 107.796 128.016 107.466 128.338L103.505 125.278L102.68 124.634C101.524 123.668 99.8738 123.829 99.0485 124.956L92.2816 133.008L91.1262 134.457H89.4757C88.6505 134.457 87.8252 134.94 87.4951 135.745C87.165 136.067 87 136.55 87 137.033V154.585C87 155.068 87.165 155.551 87.3301 155.873C87.8252 156.517 88.6505 157 89.4757 157H115.883C117.204 157 118.359 155.873 118.359 154.424V150.559C119.845 150.559 121 149.432 121 147.983V143.313C120.835 142.025 119.68 140.898 118.194 140.737ZM118.194 143.313V147.983H109.117V143.313H118.194ZM108.786 130.431L109.942 132.041L110.767 133.169L111.592 134.457H103.01L107.136 131.558L108.786 130.431ZM100.369 127.533L101.029 126.567L101.359 126.889L105.155 129.787L98.5534 134.296H94.5922L100.369 127.533ZM89.4757 137.033H113.243L113.408 136.872L113.243 137.033H115.883V140.898H109.117C107.631 140.898 106.476 142.025 106.476 143.474V148.144C106.476 149.593 107.631 150.72 109.117 150.72H115.883V154.585H89.4757V137.033Z" fill="#5697F9"></path><path d="M117 145.5C117 146.333 116.333 147 115.5 147C114.667 147 114 146.333 114 145.5C114 144.667 114.667 144 115.5 144C116.333 144 117 144.667 117 145.5Z" fill="#5697F9"></path><path d="M185.574 128L182.165 134.496H183.49V140.612V151.995C183.501 152.319 183.443 152.642 183.322 152.944C183.2 153.245 183.016 153.52 182.782 153.75C182.548 153.981 182.267 154.162 181.958 154.284C181.65 154.406 181.318 154.466 180.985 154.459C180.413 154.494 179.847 154.329 179.389 153.994C178.931 153.659 178.611 153.177 178.486 152.633V140.472H179.817L176.408 133.946L173 140.448H174.319V140.589H174.283V151.393C174.283 151.673 174.283 151.949 174.319 152.212V152.698H174.379C174.867 155.981 177.233 158 181.003 158C185.074 158 187.675 155.442 187.675 151.393V148.659V134.473H189L185.574 128Z" fill="#5697F9"></path><path fill-rule="evenodd" clip-rule="evenodd" d="M135 139.529L135 147.969L149.918 147.969L149.918 151.004C149.919 151.161 149.961 151.315 150.04 151.45C150.118 151.584 150.231 151.693 150.365 151.766C150.499 151.839 150.65 151.873 150.801 151.864C150.952 151.854 151.098 151.802 151.223 151.713L162.028 143.945C162.139 143.866 162.229 143.76 162.292 143.636C162.354 143.513 162.387 143.375 162.387 143.236C162.387 143.096 162.354 142.958 162.292 142.835C162.229 142.711 162.139 142.605 162.028 142.526L151.223 134.758C151.098 134.668 150.952 134.615 150.801 134.605C150.649 134.595 150.498 134.629 150.363 134.702C150.229 134.775 150.116 134.885 150.038 135.02C149.96 135.155 149.918 135.31 149.918 135.467L149.918 139.529L135 139.529Z" fill="url(#paint5_linear_2596_21004)"></path><defs><filter id="filter0_d_2596_21004" x="104.344" y="140.655" width="61.293" height="61.2935" color-interpolation-filters="sRGB"><feFlood flood-opacity="0" result="BackgroundImageFix"></feFlood><feColorMatrix in="SourceAlpha" type="matrix" values="0 0 0 0 0 0 0 0 0 0 0 0 0 0 0 0 0 0 127 0" result="hardAlpha"></feColorMatrix><feOffset dy="4"></feOffset><feGaussianBlur stdDeviation="2"></feGaussianBlur><feComposite in2="hardAlpha" operator="out"></feComposite><feColorMatrix type="matrix" values="0 0 0 0 0 0 0 0 0 0 0 0 0 0 0 0 0 0 0.15 0"></feColorMatrix><feBlend mode="normal" in2="BackgroundImageFix" result="effect1_dropShadow_2596_21004"></feBlend><feBlend mode="normal" in="SourceGraphic" in2="effect1_dropShadow_2596_21004" result="shape"></feBlend></filter><linearGradient id="paint0_linear_2596_21004" x1="135.414" y1="62" x2="135.414" y2="225" gradientUnits="userSpaceOnUse"><stop stop-color="#183B88"></stop><stop offset="1" stop-color="#0F1E5A"></stop></linearGradient><linearGradient id="paint1_linear_2596_21004" x1="135.414" y1="62.9951" x2="135.414" y2="71.6617" gradientUnits="userSpaceOnUse"><stop stop-color="#183B88"></stop><stop offset="1" stop-color="#0F1E5A"></stop></linearGradient><linearGradient id="paint2_linear_2596_21004" x1="130.307" y1="93.667" x2="138.99" y2="129.42" gradientUnits="userSpaceOnUse"><stop stop-color="#183B89"></stop><stop offset="1" stop-color="#0C1853"></stop></linearGradient><linearGradient id="paint3_linear_2596_21004" x1="135.414" y1="62" x2="135.414" y2="225" gradientUnits="userSpaceOnUse"><stop stop-color="#183B88"></stop><stop offset="1" stop-color="#0F1E5A"></stop></linearGradient><linearGradient id="paint4_linear_2596_21004" x1="135.414" y1="62.9951" x2="135.414" y2="71.6617" gradientUnits="userSpaceOnUse"><stop stop-color="#183B88"></stop><stop offset="1" stop-color="#0F1E5A"></stop></linearGradient><linearGradient id="paint5_linear_2596_21004" x1="131" y1="146.478" x2="152.372" y2="141.288" gradientUnits="userSpaceOnUse"><stop stop-color="#183B89"></stop><stop offset="1" stop-color="#0C1853"></stop></linearGradient></defs></svg> 